<svg xmlns="http://www.w3.org/2000/svg" viewBox="0 0 380.57 556.21"><defs><style>.a{isolation:isolate;}.b{fill:#acb1c4;}.c{fill:#797f96;}.d{fill:#9ea4b8;mix-blend-mode:multiply;}.e{opacity:0.61;}.e,.g,.i{mix-blend-mode:overlay;}.f,.g,.k{fill:#fff;}.g{opacity:0.72;}.h{fill:#717791;}.i{opacity:0.78;}.j{fill:#464e69;}.k{stroke:#000;stroke-miterlimit:10;stroke-width:8.65px;}.l{fill:#ccc;}.m{fill:#b3b3b3;}.n{fill:#e5811f;}</style></defs><title>account-advert-2</title><g class="a"><path class="b" d="M305.51,135.49c11.95,47.19-4.16,120.16-25.26,140.16s-40.65,15.42-49.19-34-2.84-93.73,18.26-113.73S301.34,119,305.51,135.49Z" transform="translate(-175.43 -70.76)"/><path class="c" d="M287.9,185.05c5,27.52.05,58.69-11.1,69.61s-24.27-2.54-29.3-30.06-.05-58.69,11.1-69.61S282.88,157.53,287.9,185.05Z" transform="translate(-175.43 -70.76)"/><path d="M310.15,129c1.24,9.17,1.94,18.38,2.37,27.59s.52,18.45.26,27.68c-.54,18.46-2.38,36.93-6.64,55.19-2.28,9.08-4.68,18.33-10.13,26.86a51.14,51.14,0,0,1-4.5,5.89c-1.58,1.84-3.24,3.6-4.9,5.32-3.35,3.43-6.71,6.78-10.28,10a46.06,46.06,0,0,1-12.29,8,26.18,26.18,0,0,1-7.6,2,18.06,18.06,0,0,1-8.23-1.1,19.26,19.26,0,0,1-6.83-4.6,29.08,29.08,0,0,1-4.62-6.23,57.37,57.37,0,0,1-5.22-13.63c-.6-2.3-1.13-4.65-1.52-6.92l-1.21-6.82c-.42-2.27-.69-4.56-1-6.84l-.5-3.43c-.16-1.14-.27-2.29-.41-3.44-1.16-9.17-1.78-18.39-2.12-27.62s-.22-18.47.18-27.7a235.31,235.31,0,0,1,2.71-27.54c1.4-9.12,3.15-18.16,5.11-27.15l1.53-6.73.09-.37.13-.45a9,9,0,0,1,.33-.87,9.29,9.29,0,0,1,.85-1.54,10.88,10.88,0,0,1,2.05-2.22,16.4,16.4,0,0,1,4.1-2.4,36.32,36.32,0,0,1,7.53-2.11c2.44-.44,4.83-.71,7.22-.9s4.75-.3,7.17-.31c1.3,0,2.27.06,3.36,0s2.16,0,3.26-.07c4.4-.17,8.94-.58,13.61-.77,2.34-.1,4.71-.13,7.15-.06a35,35,0,0,1,7.56,1,20.87,20.87,0,0,1,4,1.44,13.93,13.93,0,0,1,3.74,2.68,13.14,13.14,0,0,1,2.65,3.93A16.21,16.21,0,0,1,310.15,129Zm-7.4.89a6.66,6.66,0,0,0-1.62-4,8.34,8.34,0,0,0-4.24-2.14c-3.67-.84-8.09-.69-12.46-.28s-8.92,1-13.59,1.42q-1.76.15-3.55.25c-1.19.07-2.49.08-3.46.1-2.13.06-4.31.22-6.45.46a62,62,0,0,0-6.29,1,27.07,27.07,0,0,0-5.53,1.75,7,7,0,0,0-1.74,1.09,1,1,0,0,0-.24.29s0,0,0,0,0,0,0-.07l0,0s0-.06,0,0l-1.16,6.65c-1.5,8.88-2.67,17.8-3.65,26.72-1.91,17.84-3.72,35.7-3.85,53.64-.05,9,.09,17.94.81,26.87.08,1.12.14,2.24.24,3.35l.33,3.35c.24,2.23.4,4.47.7,6.69l.89,6.67c.29,2.23.65,4.34,1.11,6.47a46.76,46.76,0,0,0,4,12,22,22,0,0,0,3.3,4.83,12.33,12.33,0,0,0,4.33,3.06c3.15,1.33,7,.94,10.73-.64a39.56,39.56,0,0,0,10.45-6.86,41.93,41.93,0,0,0,8.32-9.94,60.36,60.36,0,0,0,3.06-5.76c.93-1.94,1.76-4,2.49-5.83,1.49-3.8,2.78-7.89,4.13-12s2.54-8.33,3.63-12.6,2.07-8.6,3-13c.45-2.18.86-4.37,1.26-6.56s.81-4.39,1.18-6.59c.74-4.4,1.38-8.83,2-13.27s1.1-8.9,1.54-13.36C304.19,165.75,304.63,147.68,302.75,129.87Z" transform="translate(-175.43 -70.76)"/><path class="d" d="M240.74,154.18c4.93-6.67,58.61-9.22,63.93,2.44s-15.5,56.18-41.53,60S226.87,172.92,240.74,154.18Z" transform="translate(-175.43 -70.76)"/><path class="b" d="M242.9,127.11c4.93-6.67,54.16-11.65,59.48,0S290,189.06,264,192.9,229,145.86,242.9,127.11Z" transform="translate(-175.43 -70.76)"/><path d="M237.4,123a11.52,11.52,0,0,1,3.1-2.8,19,19,0,0,1,2.4-1.29,33.2,33.2,0,0,1,4.14-1.53,68.41,68.41,0,0,1,7.63-1.78,126.38,126.38,0,0,1,14.86-1.7,112.52,112.52,0,0,1,15,.11,68.79,68.79,0,0,1,7.73,1,34.27,34.27,0,0,1,8.21,2.56,18.28,18.28,0,0,1,4.47,3,12.93,12.93,0,0,1,2.14,2.56,11.77,11.77,0,0,1,.85,1.61,13.55,13.55,0,0,1,.53,1.46,20,20,0,0,1,.8,5,38.76,38.76,0,0,1-.06,4.27,66.22,66.22,0,0,1-1.08,7.82c-.47,2.52-1.07,5-1.72,7.42A119.41,119.41,0,0,1,301.52,165a105.69,105.69,0,0,1-6.8,13.71,66,66,0,0,1-9.77,12.78,43.24,43.24,0,0,1-6.72,5.55,33.9,33.9,0,0,1-8.45,4.16,31.31,31.31,0,0,1-4.87,1.19,26.65,26.65,0,0,1-5.36.34,26.09,26.09,0,0,1-10.67-2.77,29,29,0,0,1-8.24-6.2,34.71,34.71,0,0,1-5.32-7.6,53.37,53.37,0,0,1-5.11-15.92,94.85,94.85,0,0,1-1.37-15.78,72.36,72.36,0,0,1,1.7-15.79A40.43,40.43,0,0,1,237.4,123Zm11,8.15a27,27,0,0,0-3.86,10.36,48.48,48.48,0,0,0-.51,12.35,46.89,46.89,0,0,0,2.54,12.19,44.65,44.65,0,0,0,5.28,10.29,20.9,20.9,0,0,0,6,6.08,7.68,7.68,0,0,0,2.86,1,8.79,8.79,0,0,0,1.7.08,11.86,11.86,0,0,0,2-.29,19.54,19.54,0,0,0,4.41-1.62,30.38,30.38,0,0,0,4.57-2.93A50.1,50.1,0,0,0,282,170a78.77,78.77,0,0,0,12.49-22.95,49.79,49.79,0,0,0,2.78-12.44,20,20,0,0,0,0-2.8,7.73,7.73,0,0,0-.34-2,1.23,1.23,0,0,0-.08-.2s0,.06,0,.06-.05,0-.15-.12a7.14,7.14,0,0,0-1.47-.83,24.45,24.45,0,0,0-5.32-1.46,54.2,54.2,0,0,0-6.31-.69,102.19,102.19,0,0,0-13.28.23,104.16,104.16,0,0,0-13.19,1.85,55.19,55.19,0,0,0-6.09,1.61,19.77,19.77,0,0,0-2.46,1,5,5,0,0,0-.7.4C247.82,131.73,247.9,131.81,248.4,131.19Z" transform="translate(-175.43 -70.76)"/><g class="e"><path class="f" d="M253.95,131.17A58.08,58.08,0,0,1,263,128a72.34,72.34,0,0,1,9.43-1.88,50.42,50.42,0,0,1,9.91-.36,26.24,26.24,0,0,1,5.35.94,15.35,15.35,0,0,1,2.9,1.2,9.8,9.8,0,0,1,2.94,2.41,10.24,10.24,0,0,1,1.72,3.3,13.75,13.75,0,0,1,.57,3.14,22.51,22.51,0,0,1-.4,5.53,42.94,42.94,0,0,1-3.14,9.54,56.61,56.61,0,0,1-4.74,8.49,44.15,44.15,0,0,1-2.91,3.9,21.3,21.3,0,0,1-3.55,3.5,1,1,0,0,1-1.44-1.33l0-.07a52.59,52.59,0,0,0,3.86-8.12c1.09-2.83,2.1-5.68,2.94-8.53a49.85,49.85,0,0,0,1.8-8.45,16.23,16.23,0,0,0,0-3.78,4.14,4.14,0,0,0-.77-2.23,2.58,2.58,0,0,0-.68-.48,7.8,7.8,0,0,0-1.42-.55,22.25,22.25,0,0,0-3.83-.71,82.52,82.52,0,0,0-8.75-.4c-6,0-12.2.23-18.51,0h0a1,1,0,0,1-.39-1.93Z" transform="translate(-175.43 -70.76)"/></g><ellipse class="b" cx="469.87" cy="187.8" rx="110.2" ry="40.56" transform="translate(103.84 585.79) rotate(-89.66)"/><ellipse class="c" cx="469.87" cy="188.97" rx="68.73" ry="18.81" transform="translate(102.67 586.94) rotate(-89.66)"/><path d="M520.42,188.1a282.53,282.53,0,0,1-2.28,32.17c-.72,5.34-1.55,10.67-2.62,16s-2.35,10.58-3.82,15.83a158.86,158.86,0,0,1-5.27,15.59,114.18,114.18,0,0,1-7.28,15.17A61.74,61.74,0,0,1,488.2,297a33.69,33.69,0,0,1-8.26,5.66,22.76,22.76,0,0,1-21.3-.53,32.48,32.48,0,0,1-7.77-6c-.55-.55-1-1.14-1.54-1.71l-.75-.86-.69-.88-1.36-1.77-1.23-1.81c-.85-1.2-1.52-2.44-2.29-3.66s-1.38-2.48-2-3.72a111.34,111.34,0,0,1-6.26-15.27c-1.71-5.16-3.16-10.35-4.4-15.57-.61-2.61-1.19-5.22-1.71-7.84-.29-1.31-.54-2.62-.78-3.93s-.51-2.62-.71-3.94c-.92-5.25-1.61-10.53-2.24-15.81a289.21,289.21,0,0,1-1.84-31.79,300.1,300.1,0,0,1,1.75-31.82,237,237,0,0,1,5.56-31.58,137.05,137.05,0,0,1,11.38-30.73,60.07,60.07,0,0,1,10.3-14.22A32.77,32.77,0,0,1,460,73.38a23.37,23.37,0,0,1,10.57-2.62,23.75,23.75,0,0,1,10.6,2.64,33.14,33.14,0,0,1,8,5.81,60.79,60.79,0,0,1,10.43,14.27,113.22,113.22,0,0,1,6.77,15.25c1.89,5.16,3.51,10.35,5,15.57C517.16,145.14,520.75,166.59,520.42,188.1Zm-20-.12c0-5,0-10.06-.18-15.08s-.23-10.05-.53-15.07-.62-10-1.19-15c-.12-1.25-.3-2.49-.45-3.73s-.32-2.49-.51-3.72c-.37-2.48-.85-4.93-1.32-7.38a112.11,112.11,0,0,0-9.38-27.73,47.14,47.14,0,0,0-7.58-11.06,19.4,19.4,0,0,0-4.46-3.46,9.49,9.49,0,0,0-4.35-1.27,9.7,9.7,0,0,0-4.43,1.1,19.28,19.28,0,0,0-4.63,3.33,47.09,47.09,0,0,0-8,10.9c-4.61,8.38-7.88,17.9-10.44,27.58-5,19.47-7.16,39.89-7.41,60.24a299.48,299.48,0,0,0,1.1,30.52c.45,5.06,1,10.12,1.87,15.12.18,1.26.42,2.5.63,3.75s.44,2.5.7,3.73c.49,2.48,1.08,4.94,1.66,7.39A116.82,116.82,0,0,0,452,275.82a45.24,45.24,0,0,0,8.14,10.92,19.06,19.06,0,0,0,4.7,3.28,9.25,9.25,0,0,0,4.43,1,9.67,9.67,0,0,0,4.23-1.35,19.4,19.4,0,0,0,4.32-3.46,47.09,47.09,0,0,0,7.37-11c4.19-8.41,7.06-17.91,9.27-27.54A277.36,277.36,0,0,0,500.45,188Z" transform="translate(-175.43 -70.76)"/><g class="e"><path class="f" d="M470,86.58a15.11,15.11,0,0,1,7.75,2.91,33.58,33.58,0,0,1,6,5.5,59.92,59.92,0,0,1,8.44,13.41,111.72,111.72,0,0,1,8.75,29.86,172.23,172.23,0,0,1,2,30.76,184.51,184.51,0,0,1-3.29,30.44,1,1,0,0,1-2-.18c-.16-10.13-.31-20.16-1-30.14a274.49,274.49,0,0,0-3.4-29.6,164.41,164.41,0,0,0-7.5-28.43,74.47,74.47,0,0,0-6.2-13.06,33.94,33.94,0,0,0-4.26-5.65,14.47,14.47,0,0,0-5.6-3.88l-.08,0a1,1,0,0,1,.37-1.92Z" transform="translate(-175.43 -70.76)"/></g><rect class="b" x="211.81" y="231.99" width="314.38" height="309.77" rx="50.54" ry="50.54" transform="translate(-173.12 -72.95) rotate(0.34)"/><path class="g" d="M320.84,526.39c-44-38.85-11-121.55,38.11-125S478.3,457,420.13,536.66C420.13,536.66,349.92,552.07,320.84,526.39Z" transform="translate(-175.43 -70.76)"/><path class="h" d="M319.89,526.61a61.33,61.33,0,0,1-13.95-17.34,69.53,69.53,0,0,1-7.31-21.33,80.76,80.76,0,0,1-1.15-11.29,87.23,87.23,0,0,1,.48-11.34,89.69,89.69,0,0,1,5.21-22.11A86.33,86.33,0,0,1,313.92,423a71.3,71.3,0,0,1,16.36-16.47A55.92,55.92,0,0,1,352,397a64.2,64.2,0,0,1,23.43.12,85.13,85.13,0,0,1,21.81,7,93.7,93.7,0,0,1,19.24,12.19,80.54,80.54,0,0,1,25.8,37.08,75.36,75.36,0,0,1,.05,44.72c-4.24,14.35-12,27.18-21.08,38.49a1.34,1.34,0,0,1-2.17-1.58h0a151.29,151.29,0,0,0,10.52-18.57,104.16,104.16,0,0,0,7-19.86,77.74,77.74,0,0,0,2-20.57,66.12,66.12,0,0,0-4-20,67.86,67.86,0,0,0-9.75-17.79,80.72,80.72,0,0,0-14.31-14.48,82.15,82.15,0,0,0-36.8-16.44,55.35,55.35,0,0,0-19.61,0,46.89,46.89,0,0,0-17.63,7.79,64.35,64.35,0,0,0-14.16,14,81.93,81.93,0,0,0-10,17.63,88.93,88.93,0,0,0-5.64,19.68,81.44,81.44,0,0,0-1,10.23,73.08,73.08,0,0,0,.27,10.28,69.67,69.67,0,0,0,4.94,20,65.49,65.49,0,0,0,11,17.76,1.35,1.35,0,0,1-1.89,1.91Z" transform="translate(-175.43 -70.76)"/><g class="i"><path class="f" d="M260.3,248.76c19.5-.71,39-1,58.47-1.19,9.74-.08,19.48-.18,29.22-.14s19.48-.06,29.22.06l29.21.25,29.21.47c9.74.16,19.47.31,29.21.58,2.36.07,5,.07,7.75.33a55.65,55.65,0,0,1,8.06,1.39,44.73,44.73,0,0,1,15.1,7,43.46,43.46,0,0,1,11.4,12.13,52,52,0,0,1,6.38,14.95,66.7,66.7,0,0,1,1.51,7.83l.23,2,.17,2c.09,1.29.13,2.5.19,3.76.29,5,.32,9.89.43,14.81l.09,14.68L516,344.2l-.24,14.63-.31,14.63c-1.05,39-2.61,77.93-5.06,116.86a1.46,1.46,0,0,1-2.92-.07c-.57-39-.65-77.93-1-116.86-.1-19.45-.39-38.93-.9-58.28-.19-4.82-.32-9.67-.67-14.38-.08-1.17-.14-2.4-.24-3.53l-.17-1.67-.23-1.66a55.8,55.8,0,0,0-1.37-6.48c-2.36-8.42-6.93-16-13.73-20.74a33.38,33.38,0,0,0-11.32-5.11,44.18,44.18,0,0,0-6.33-1.05c-2.15-.19-4.34-.18-6.85-.24-9.74-.15-19.48-.4-29.22-.65l-29.22-.76-29.21-1c-9.74-.29-19.47-.78-29.21-1.17s-19.47-.89-29.2-1.37c-19.47-1-38.93-2.11-58.38-3.64a1.46,1.46,0,0,1,.06-2.92Z" transform="translate(-175.43 -70.76)"/></g><path class="d" d="M492,526.39l-213.3-1.27a50.54,50.54,0,0,1-50.24-50.84l1.24-208.69a50.29,50.29,0,0,1,8.5-27.74,50.51,50.51,0,0,0-25.75,43.74l-1.24,208.69a50.54,50.54,0,0,0,50.24,50.84l213.3,1.27a50.49,50.49,0,0,0,42.34-22.5A50.29,50.29,0,0,1,492,526.39Z" transform="translate(-175.43 -70.76)"/><path d="M474.71,546.2c-12.1,0-24.2,0-36.3.16l-18.15.23L402.1,547l-72.61,1.79c-12.1.32-24.2.44-36.3.64l-18.15.16-9.08,0-4.54,0c-1.75,0-3.52-.08-5.27-.25a57.9,57.9,0,0,1-37.32-18.17,58,58,0,0,1-15.77-38.27l3.19-145.54.87-36.29.35-18.15.17-9.07,0-2.27.11-2.47c.12-1.65.26-3.29.51-4.93a56.11,56.11,0,0,1,18.56-34.1,55.25,55.25,0,0,1,16.95-10.16,57.15,57.15,0,0,1,19.49-3.63L408.51,225l18.15-.13,18.15,0,18.15,0,9.07,0h4.54c1.73,0,3.49.07,5.23.23a58.09,58.09,0,0,1,48.37,35.5,58.76,58.76,0,0,1,4.38,20.4l0,2.61,0,2.27-.07,4.54-.13,9.07L534,317.5l-.55,36.3c-.3,24.2-.48,48.4-.25,72.6.07,12.1.2,24.2.17,36.3,0,6.05-.06,12.1-.11,18.15,0,3-.08,6-.13,9.07l0,2.27-.11,2.6c-.12,1.73-.28,3.46-.55,5.18a51.82,51.82,0,0,1-7.07,19.38,54.19,54.19,0,0,1-13.76,14.91A61.94,61.94,0,0,1,474.71,546.2Zm0-7.62A40.7,40.7,0,0,0,491,535.31a41.28,41.28,0,0,0,13.41-9.37,47.91,47.91,0,0,0,8.94-13.16,50.42,50.42,0,0,0,4.25-14.9c.18-1.28.25-2.57.32-3.85l0-1.94v-2.27c0-3,0-6.05,0-9.08,0-6,0-12.1.11-18.15.11-12.1.38-24.2.6-36.3.52-24.2.63-48.4.62-72.59l-.12-36.3-.08-18.15,0-9.07v-6.8l-.06-1.92a43,43,0,0,0-3.45-14.84,43.52,43.52,0,0,0-8.39-12.68,44.13,44.13,0,0,0-12.23-9,43.47,43.47,0,0,0-14.61-4.16c-1.27-.14-2.54-.19-3.83-.24l-4.54-.06-9.07-.13-18.15-.25-18.15-.25-18.15-.35-145.18-3.06a45.5,45.5,0,0,0-40.59,23.48,44,44,0,0,0-5.09,15.57c-.19,1.36-.3,2.73-.36,4.1l0,2.06,0,2.27.07,9.08.14,18.15.44,36.3c.35,24.2.48,48.4.75,72.6l.83,72.24a43.61,43.61,0,0,0,3.48,14.67,43,43,0,0,0,8.34,12.5,42.53,42.53,0,0,0,26.51,13c1.26.14,2.51.18,3.79.22l4.54.07,9.07.15,18.15.38c12.1.35,24.2.62,36.29,1.07L402.16,537l18.15.57,18.15.45C450.55,538.3,462.65,538.44,474.75,538.59Z" transform="translate(-175.43 -70.76)"/><circle cx="457.39" cy="316.41" r="15.28" transform="translate(-37.17 701.15) rotate(-89.66)"/><circle cx="280.95" cy="316.41" r="15.28" transform="translate(-212.56 524.71) rotate(-89.66)"/><path class="j" d="M355.82,321.35c2.83,1.35,5.22,2.92,7.54,4.12a27,27,0,0,0,3.28,1.57,9.16,9.16,0,0,0,2.81.75,2.37,2.37,0,0,0,.63,0,2.25,2.25,0,0,0,.66,0,6.59,6.59,0,0,0,.71-.1c.24-.07.49-.14.75-.19a18.75,18.75,0,0,0,3.26-1.42,81.75,81.75,0,0,0,7-4.67l.08-.06a1,1,0,0,1,1.59,1.11,19.62,19.62,0,0,1-4.83,8.47,17.08,17.08,0,0,1-4.29,3.22,12.83,12.83,0,0,1-5.89,1.38,13.39,13.39,0,0,1-5.72-1.47,16.71,16.71,0,0,1-4.27-3.08,18.77,18.77,0,0,1-3-3.89,15.47,15.47,0,0,1-1.87-4.57,1.08,1.08,0,0,1,1.51-1.2Z" transform="translate(-175.43 -70.76)"/><path class="j" d="M346.06,346.13a22.62,22.62,0,0,0,7.3.66,16.31,16.31,0,0,0,11.06-5.63,21.46,21.46,0,0,0,3.77-6.5l0,0a1,1,0,0,1,2,0,13.16,13.16,0,0,1-.37,9.65,16.06,16.06,0,0,1-6.8,7.66c-.77.42-1.6.77-2.4,1.14s-1.72.51-2.58.72a25.65,25.65,0,0,1-2.68.21,19.62,19.62,0,0,1-2.67-.31,11.2,11.2,0,0,1-7.89-6.07,1.09,1.09,0,0,1,1.23-1.5Z" transform="translate(-175.43 -70.76)"/><path class="j" d="M371.71,330.6a64.32,64.32,0,0,0,2.67,7.68,18.94,18.94,0,0,0,3.84,5.92,14.72,14.72,0,0,0,5.72,3.42,56.61,56.61,0,0,0,7.9,1.78h0a1,1,0,0,1,.31,1.83,16.33,16.33,0,0,1-9.29,2,14.64,14.64,0,0,1-9.39-4.39,17.33,17.33,0,0,1-4.52-9,19.48,19.48,0,0,1,.5-9.41,1.16,1.16,0,0,1,2.21,0Z" transform="translate(-175.43 -70.76)"/><rect class="k" x="17.27" y="305.69" width="349.06" height="245.94" rx="34.32" ry="34.32"/><path d="M507.43,623.93c-47.13.41-94.25.49-141.38,1.27l-70.69.94-35.34.45-17.67.22-8.84.11-4.42,0h-2.23l-2.5-.11a38.81,38.81,0,0,1-18.86-6.21,39.46,39.46,0,0,1-13.36-14.76,38.63,38.63,0,0,1-3.45-9.46,47.54,47.54,0,0,1-.76-5c-.09-1.65-.21-3.45-.18-4.83l0-17.67c-.08-23.56,0-47.13.25-70.69s.86-47.13,1.27-70.69c.14-5.93.2-11.7.41-17.75A37.07,37.07,0,0,1,209,378.87,37.75,37.75,0,0,1,227,374.39c47.13.72,94.25.53,141.38.24l70.69-.73,35.34-.39,17.67-.09,8.84,0,4.42,0h2.22l2.4.11a37.29,37.29,0,0,1,18.11,6,37.9,37.9,0,0,1,12.79,14.2,36.66,36.66,0,0,1,3.24,9.09,46,46,0,0,1,.69,4.78c.07,1.59.18,3.28.14,4.69l-.08,17.67-.18,35.34-.41,35.34-.78,70.69L543.37,589a35.52,35.52,0,0,1-5.16,17.56,35.88,35.88,0,0,1-13.11,12.74A36.48,36.48,0,0,1,507.43,623.93Zm0-3.07a33.36,33.36,0,0,0,16.12-4.3,32.69,32.69,0,0,0,11.89-11.67,32.23,32.23,0,0,0,4.61-16c.06-5.8,0-11.76,0-17.63l-.78-70.69-.41-35.34-.18-35.34-.08-17.67c0-1.53-.1-2.79-.16-4.14a39.86,39.86,0,0,0-.61-3.95,33.13,33.13,0,0,0-2.72-7.49,31.44,31.44,0,0,0-10.49-11.86,31,31,0,0,0-15-5.13L368.4,378.26c-47.13-.29-94.25-.48-141.38.24A32.1,32.1,0,0,0,211.29,383,31.74,31.74,0,0,0,200,394.52,31,31,0,0,0,195.83,410c0,5.73.23,11.74.32,17.59.41,23.56,1.07,47.13,1.27,70.69s.33,47.13.25,70.69l0,17.67c0,1.57.08,2.71.12,4s.32,2.51.55,3.74a31.07,31.07,0,0,0,2.52,7.12,29.87,29.87,0,0,0,9.93,11.3A29.47,29.47,0,0,0,225,617.68l141.06,1.9C413.18,620.37,460.31,620.45,507.43,620.86Z" transform="translate(-175.43 -70.76)"/><path class="b" d="M193.56,399.06a37.1,37.1,0,0,1,18.52,10.67c1.52,1.65,14.62,15.88,8.32,26.81-4,6.88-14.3,10.2-25,7.4a23.49,23.49,0,0,1-1.88-44.88Z" transform="translate(-175.43 -70.76)"/><path d="M193.5,397.91c1.16.1,1.83.23,2.58.34s1.49.28,2.23.46a32.71,32.71,0,0,1,4.38,1.37,34.59,34.59,0,0,1,8.15,4.51,43.82,43.82,0,0,1,12,14.28,26.39,26.39,0,0,1,2.92,9.59A15.4,15.4,0,0,1,223,439a16.94,16.94,0,0,1-8.36,6,29.7,29.7,0,0,1-9.39,1.39c-6.1-.18-12.14-1.26-17.49-4.41a25,25,0,0,1-11.51-14.34,24.24,24.24,0,0,1,2.38-18.54,23.83,23.83,0,0,1,6.19-7.08,21.81,21.81,0,0,1,4-2.44c.68-.37,1.42-.62,2.12-.92A22.65,22.65,0,0,1,193.5,397.91Zm.12,2.3c-.53.36-.93.6-1.49.93s-1.19.68-1.73,1.1a23.63,23.63,0,0,0-3.1,2.6,23.32,23.32,0,0,0,2,34.9,19.24,19.24,0,0,0,7.5,3.34,20.53,20.53,0,0,0,8.27.24,19.05,19.05,0,0,0,7.36-3,14.85,14.85,0,0,0,4.67-5.17,12.34,12.34,0,0,0,1.21-6.11,20.28,20.28,0,0,0-2-7A48.22,48.22,0,0,0,207.13,409a37.73,37.73,0,0,0-6.37-5c-1.17-.72-2.38-1.4-3.62-2l-1.9-.91A8.65,8.65,0,0,1,193.62,400.21Z" transform="translate(-175.43 -70.76)"/><path class="b" d="M537.87,399.06a37.1,37.1,0,0,0-18.52,10.67c-1.52,1.65-14.62,15.88-8.32,26.81,4,6.88,14.3,10.2,25,7.4a23.49,23.49,0,0,0,1.88-44.88Z" transform="translate(-175.43 -70.76)"/><path d="M537.81,400.21a8.66,8.66,0,0,1-1.62.81l-1.9.91c-1.25.63-2.45,1.32-3.62,2a37.71,37.71,0,0,0-6.37,5,40.31,40.31,0,0,0-5.15,6.19,40.73,40.73,0,0,0-4,6.9,20.27,20.27,0,0,0-2,7,12.33,12.33,0,0,0,1.21,6.11,14.84,14.84,0,0,0,4.67,5.17,19.05,19.05,0,0,0,7.36,3,20.53,20.53,0,0,0,8.27-.24,19.24,19.24,0,0,0,7.5-3.34,23.16,23.16,0,0,0,2-34.9,23.65,23.65,0,0,0-3.1-2.6c-.54-.42-1.15-.73-1.73-1.1S538.34,400.57,537.81,400.21Zm.12-2.3a22.67,22.67,0,0,1,2.53.74c.7.31,1.44.55,2.12.92a21.8,21.8,0,0,1,4,2.44,23.83,23.83,0,0,1,6.19,7.08,24.24,24.24,0,0,1,2.38,18.54A25,25,0,0,1,543.62,442c-5.35,3.15-11.38,4.23-17.49,4.41a29.7,29.7,0,0,1-9.39-1.39,16.94,16.94,0,0,1-8.36-6,15.4,15.4,0,0,1-2.7-10.51,26.39,26.39,0,0,1,2.92-9.59,43.82,43.82,0,0,1,12-14.28,34.58,34.58,0,0,1,8.15-4.51,32.7,32.7,0,0,1,4.38-1.37c.74-.18,1.48-.35,2.23-.46S536.77,398,537.93,397.91Z" transform="translate(-175.43 -70.76)"/><rect class="l" x="67.2" y="412.1" width="249.18" height="62.87" rx="9.21" ry="9.21"/><path d="M482.6,546.88c-50.69.18-101.38,1.59-152.07,2.3-25.35.29-50.69.45-76,.09l-2.38,0a13.7,13.7,0,0,1-3.14-.37,12.38,12.38,0,0,1-9.51-11.69c0-.58,0-1,0-1.35l0-1.19.53-19,.55-19,.15-4.79a11,11,0,0,1,11.1-10.5c25.34.51,50.69.51,76,.18l38-.55,19-.29,19-.13,19-.12,19,.11c12.67,0,25.34.21,38,.45l2.38,0a11.93,11.93,0,0,1,2.76.33,10.85,10.85,0,0,1,8.33,10.16c0,1,0,1.63,0,2.46l-.29,19L493,532v4.78a10.26,10.26,0,0,1-1.46,5.08A10.39,10.39,0,0,1,482.6,546.88Zm0-2.3a8.08,8.08,0,0,0,6.91-3.93,8,8,0,0,0,1.14-3.95V532l-.16-19-.29-19c0-.75,0-1.67-.06-2.29a7.38,7.38,0,0,0-2.51-5.09,7.32,7.32,0,0,0-3.38-1.71,8.17,8.17,0,0,0-1.95-.16l-2.38,0c-12.67.24-25.35.41-38,.45l-19,.11-19-.12-19-.13-19-.29-38-.55c-25.34-.32-50.69-.32-76,.18a7.48,7.48,0,0,0-6.39,3.85,7.27,7.27,0,0,0-.91,3.65l.13,4.71.55,19,.53,19,0,1.19a10.11,10.11,0,0,0,.05,1,6,6,0,0,0,.33,1.5,5.9,5.9,0,0,0,1.73,2.46,5.75,5.75,0,0,0,2.64,1.31,6.6,6.6,0,0,0,1.58.12l2.38,0c25.34-.36,50.69-.2,76,.09C381.22,543,431.91,544.4,482.6,544.57Z" transform="translate(-175.43 -70.76)"/><rect class="m" x="67.2" y="332.7" width="249.18" height="62.87" rx="9.21" ry="9.21"/><path d="M482.6,467.48c-50.69.18-101.38,1.59-152.07,2.3-25.35.29-50.69.45-76,.09l-2.38,0a13.7,13.7,0,0,1-3.14-.37,12.38,12.38,0,0,1-9.51-11.69c0-.58,0-1,0-1.35l0-1.19.53-19,.55-19,.15-4.79a11,11,0,0,1,11.1-10.5c25.34.51,50.69.51,76,.18l38-.55,19-.29,19-.13,19-.12,19,.11c12.67,0,25.34.21,38,.45l2.38,0a11.94,11.94,0,0,1,2.76.33,10.85,10.85,0,0,1,8.33,10.16c0,1,0,1.63,0,2.46l-.29,19-.16,19v4.78a10.26,10.26,0,0,1-1.46,5.08A10.39,10.39,0,0,1,482.6,467.48Zm0-2.3a8.08,8.08,0,0,0,6.91-3.93,8,8,0,0,0,1.14-3.95v-4.73l-.16-19-.29-19c0-.75,0-1.67-.06-2.29a7.38,7.38,0,0,0-2.51-5.09,7.33,7.33,0,0,0-3.38-1.71,8.17,8.17,0,0,0-1.95-.16l-2.38,0c-12.67.24-25.35.41-38,.45l-19,.11-19-.12-19-.13-19-.29-38-.55c-25.34-.32-50.69-.32-76,.18a7.48,7.48,0,0,0-6.39,3.85,7.27,7.27,0,0,0-.91,3.65l.13,4.71.55,19,.53,19,0,1.19a10.11,10.11,0,0,0,.05,1,6,6,0,0,0,.33,1.5,5.9,5.9,0,0,0,1.73,2.46,5.75,5.75,0,0,0,2.64,1.31,6.6,6.6,0,0,0,1.58.12l2.38,0c25.34-.36,50.69-.2,76,.09C381.22,463.59,431.91,465,482.6,465.18Z" transform="translate(-175.43 -70.76)"/><circle cx="92.16" cy="442.15" r="9.71"/><path d="M278.07,512.9a12.15,12.15,0,0,1-2.62,7.86,11.12,11.12,0,0,1-7.86,4.15,10.39,10.39,0,0,1-8.54-3.46,11,11,0,0,1-2.19-8.54,14.08,14.08,0,0,1,3.24-7.5,10.58,10.58,0,0,1,7.5-3.8,9.48,9.48,0,0,1,7.76,3.55A12.83,12.83,0,0,1,278.07,512.9Zm-1.53,0a7.3,7.3,0,0,0-3-6,11.06,11.06,0,0,0-6-2.14,8.85,8.85,0,0,0-6.23,1.88,6.88,6.88,0,0,0-2.45,6.23,8.2,8.2,0,0,0,3.49,5.19,10.26,10.26,0,0,0,5.19,2.22,8.25,8.25,0,0,0,5.87-1.54A7.59,7.59,0,0,0,276.54,512.9Z" transform="translate(-175.43 -70.76)"/><circle cx="128.22" cy="442.15" r="9.71"/><path d="M314.13,512.9a12.15,12.15,0,0,1-2.62,7.86,11.12,11.12,0,0,1-7.86,4.15,10.39,10.39,0,0,1-8.54-3.46,11,11,0,0,1-2.19-8.54,14.08,14.08,0,0,1,3.24-7.5,10.58,10.58,0,0,1,7.5-3.8,9.48,9.48,0,0,1,7.76,3.55A12.83,12.83,0,0,1,314.13,512.9Zm-1.54,0a7.3,7.3,0,0,0-3-6,11.06,11.06,0,0,0-6-2.14,8.85,8.85,0,0,0-6.23,1.88A6.88,6.88,0,0,0,295,512.9a8.2,8.2,0,0,0,3.49,5.19,10.26,10.26,0,0,0,5.19,2.22,8.25,8.25,0,0,0,5.87-1.54A7.59,7.59,0,0,0,312.59,512.9Z" transform="translate(-175.43 -70.76)"/><circle cx="161.51" cy="442.15" r="9.71"/><path d="M347.42,512.9a12.15,12.15,0,0,1-2.62,7.86,11.12,11.12,0,0,1-7.86,4.15,10.39,10.39,0,0,1-8.54-3.46,11,11,0,0,1-2.19-8.54,14.08,14.08,0,0,1,3.24-7.5,10.58,10.58,0,0,1,7.5-3.8,9.48,9.48,0,0,1,7.76,3.55A12.83,12.83,0,0,1,347.42,512.9Zm-1.54,0a7.3,7.3,0,0,0-3-6,11.06,11.06,0,0,0-6-2.14,8.85,8.85,0,0,0-6.23,1.88,6.88,6.88,0,0,0-2.45,6.23,8.2,8.2,0,0,0,3.49,5.19,10.26,10.26,0,0,0,5.19,2.22,8.25,8.25,0,0,0,5.87-1.54A7.59,7.59,0,0,0,345.88,512.9Z" transform="translate(-175.43 -70.76)"/><circle cx="194.79" cy="442.15" r="9.71"/><path d="M380.7,512.9a12.15,12.15,0,0,1-2.62,7.86,11.12,11.12,0,0,1-7.86,4.15,10.39,10.39,0,0,1-8.54-3.46,11,11,0,0,1-2.19-8.54,14.09,14.09,0,0,1,3.24-7.5,10.58,10.58,0,0,1,7.5-3.8,9.48,9.48,0,0,1,7.76,3.55A12.83,12.83,0,0,1,380.7,512.9Zm-1.54,0a7.3,7.3,0,0,0-3-6,11.06,11.06,0,0,0-6-2.14,8.85,8.85,0,0,0-6.23,1.88,6.88,6.88,0,0,0-2.45,6.23,8.2,8.2,0,0,0,3.49,5.19,10.26,10.26,0,0,0,5.19,2.22,8.25,8.25,0,0,0,5.87-1.54A7.59,7.59,0,0,0,379.17,512.9Z" transform="translate(-175.43 -70.76)"/><circle cx="228.08" cy="442.15" r="9.71"/><path d="M414,512.9a12.15,12.15,0,0,1-2.62,7.86,11.12,11.12,0,0,1-7.86,4.15,10.39,10.39,0,0,1-8.54-3.46,11,11,0,0,1-2.19-8.54,14.08,14.08,0,0,1,3.24-7.5,10.58,10.58,0,0,1,7.5-3.8,9.48,9.48,0,0,1,7.76,3.55A12.83,12.83,0,0,1,414,512.9Zm-1.54,0a7.3,7.3,0,0,0-3-6,11.06,11.06,0,0,0-6-2.14,8.85,8.85,0,0,0-6.23,1.88,6.88,6.88,0,0,0-2.45,6.23,8.2,8.2,0,0,0,3.49,5.19,10.26,10.26,0,0,0,5.19,2.22,8.25,8.25,0,0,0,5.87-1.54A7.59,7.59,0,0,0,412.45,512.9Z" transform="translate(-175.43 -70.76)"/><path class="n" d="M326.66,584.57l71.7-1.21L379.68,568.3l1.2,31.93,17.47-16.87" transform="translate(-175.43 -70.76)"/><path class="n" d="M326.63,582.65a165.32,165.32,0,0,1,17.88-3c6-.76,11.93-1.25,17.9-1.61s11.94-.62,17.92-.51,12,1.55,18,2.61l-2,5.81a69.83,69.83,0,0,0-8.48-8.59,99.38,99.38,0,0,0-9.58-7.23l3.74-1.87c.66,5.3,1.63,10.6,2.14,15.91.31,2.65.45,5.31.55,8s.16,5.32.18,8l-6.71-2.7c3-2.72,6-5.39,9.18-8s6.33-5.09,9.71-7.42a1.95,1.95,0,0,1,2.67,2.76c-2.45,3.29-5.07,6.4-7.76,9.45s-5.47,6-8.29,8.89a3.91,3.91,0,0,1-6.69-2.44l0-.26c-.19-2.66-.28-5.32-.43-8s-.16-5.32-.05-8c.11-5.33.68-10.68.94-16l0-.42a2.19,2.19,0,0,1,3.72-1.46,99.38,99.38,0,0,0,9.09,7.83,69.85,69.85,0,0,0,10.19,6.47,3,3,0,0,1-.75,5.55l-1.25.26c-6,1.26-11.9,2.87-17.88,3.21s-11.95.21-17.93.09-12-.45-17.95-1a165.32,165.32,0,0,1-18-2.44,2,2,0,0,1-.06-3.84Z" transform="translate(-175.43 -70.76)"/></g></svg>