<?xml version="1.0" encoding="UTF-8"?>
<svg width="48px" height="48px" viewBox="0 0 48 48" version="1.1" xmlns="http://www.w3.org/2000/svg" xmlns:xlink="http://www.w3.org/1999/xlink">
    <!-- Generator: Sketch 49.3 (51167) - http://www.bohemiancoding.com/sketch -->
    <title>android-mascot</title>
    <desc>Created with Sketch.</desc>
    <defs></defs>
    <g id="android-mascot" stroke="none" stroke-width="1" fill="none" fill-rule="evenodd">
        <g transform="translate(0.500000, 5.000000)" fill-rule="nonzero">
            <path d="M23.5010054,9.0036 C6.87157603,8.76607478 1,20.3216767 1,32 L46,32 C46,20.3196973 37.6189285,9.20351706 23.5010054,9.0036 Z M34.0115287,25.5373347 C28.0072389,26.4240955 14.060235,27.3187738 12.5400599,24.6505738 C11.795704,23.4014734 11.4976771,21.9429973 11.6935073,20.5077381 C11.6935073,20.4503362 11.67541,20.3949137 11.67541,20.3355323 C11.6766592,19.982414 11.7852055,19.6377389 11.9870861,19.3458439 C12.873855,16.8795404 15.3371017,14.9912149 18.4659279,14.7338959 C23.6518164,14.3103093 34.8198758,16.9250661 37.0458466,19.5358641 C39.2718173,22.1466621 40.0158184,24.6505738 34.0115287,25.5373347 Z" id="Shape" fill="#A5C63A"></path>
            <path d="M23.9989496,12 C14.0583533,12 6,20.4324486 6,30.5142857 L42,30.5142857 C42,20.4324486 33.9416467,12 23.9989496,12 Z M14.0583533,18.3979338 C14.0583533,17.3956858 14.9048243,16.5832032 15.9489992,16.5832032 C16.9931742,16.5832032 17.8396452,17.3956858 17.8396452,18.3979338 C17.8396459,19.399395 17.8396452,21.2571429 15.9511,21.2126645 C14.9048243,21.2126645 14.0583533,19.4001819 14.0583533,18.3979338 Z M27.5533057,18.3979338 C27.5533057,17.3956858 29.3997767,16.5832032 30.4439517,16.5832032 C31.4881266,16.5832032 31.3345977,17.3956858 31.3345977,18.3979338 C31.3345989,18.8799299 32.1348298,19.3421259 31.7793557,19.6825701 C31.4238816,20.0230143 29.9419083,21.2137356 29.4397502,21.2126645 C28.3997767,21.2126645 27.5533057,19.4001819 27.5533057,18.3979338 Z" id="Shape" fill="#B2D342"></path>
            <rect id="Rectangle-path" fill="#A5C63A" transform="translate(12.500000, 7.500000) rotate(-120.240000) translate(-12.500000, -7.500000) " x="7" y="6" width="11" height="3" rx="1.5"></rect>
            <path d="M15.7984274,10.9474734 C15.1213733,9.57373951 14.3464336,8.24394703 13.4788235,6.96704505 C13.0508524,6.3256206 12.6036225,5.69818361 12.1242947,5.10071971 C11.6686745,4.51117661 11.1511117,3.96562048 10.5793188,3.47218101 C10.4499642,3.36629309 10.3102621,3.2719645 10.1620469,3.19043382 C10.060803,3.12943544 9.94581912,3.09113698 9.82608947,3.07853423 C9.80550188,3.07587947 9.78462124,3.07587947 9.76403365,3.07853423 C9.76403365,3.07853423 9.74905466,3.07853423 9.74049523,3.09252168 L9.71267711,3.11250375 L9.65704085,3.15246789 C9.53236576,3.24009729 9.42081563,3.34291922 9.32536318,3.45819356 C9.16016589,3.6767046 9.08425244,3.94324465 9.11137759,4.20951939 C9.13427804,4.54026051 9.20629556,4.86642441 9.32536318,5.17864979 C9.44719111,5.51913878 9.59008867,5.85273473 9.75333437,6.17775329 C9.90740399,6.51545027 10.0914316,6.84315622 10.2668998,7.17685679 C10.6306753,7.84026151 11.0008704,8.51365727 11.362506,9.20104047 L11.362506,9.21702613 C11.4170388,9.32060818 11.3791356,9.44591931 11.2746292,9.5075542 C11.1701228,9.56918909 11.0326623,9.54730242 10.9559334,9.45681097 C10.7012905,9.15508171 10.4466477,8.85734887 10.2005643,8.54363037 C9.95448083,8.22991187 9.72337638,7.91219696 9.49869151,7.58648922 C9.27400664,7.26078148 9.07072033,6.9230845 8.85673473,6.57539648 C8.65383027,6.22336485 8.47514712,5.85962068 8.32177075,5.48637366 C8.15395052,5.08890811 8.04801995,4.67102815 8.00721193,4.24548712 C7.98815994,4.0064394 8.00690642,3.76607475 8.06284818,3.53212722 C8.12402531,3.28049493 8.23823016,3.04275131 8.39880556,2.83275477 C8.55831102,2.64412549 8.74396518,2.47613646 8.95088839,2.33320302 L9.01508407,2.28324785 L9.04718191,2.25926936 L9.10281816,2.22130343 C9.18085612,2.1689247 9.26481283,2.12469954 9.35318131,2.08942177 C9.53108214,2.02269238 9.72233896,1.99269908 9.91382356,2.00150066 C10.2160171,2.02312567 10.5088567,2.10926398 10.7697659,2.25327474 C10.9822992,2.36606836 11.1835425,2.49647675 11.3710655,2.64292511 C12.0296659,3.17824793 12.614733,3.78767692 13.1129082,4.45729706 C13.3654112,4.77501197 13.6029352,5.09872151 13.8212005,5.43242208 C14.0394658,5.76612264 14.2491717,6.09782501 14.4631573,6.43152558 C14.6771429,6.76522614 14.8633103,7.11291416 15.0344988,7.46859501 C15.120093,7.64643543 15.2142467,7.81828123 15.2912815,8.00011807 L15.5052671,8.54562858 C15.6462164,8.91560068 15.7627011,9.29330665 15.8540636,9.67661374 C15.9562475,10.0689706 16.0051351,10.4717783 15.9995738,10.8755379 L15.9995738,10.8975182 C16.0008434,10.9437467 15.9679739,10.9847477 15.9201158,10.9966334 C15.8722576,11.0085191 15.8219188,10.988183 15.7984274,10.9474734 Z" id="Shape" fill="#010101"></path>
            <rect id="Rectangle-path" fill="#A5C63A" transform="translate(35.500000, 6.500000) rotate(-61.630000) translate(-35.500000, -6.500000) " x="30" y="5" width="11" height="3" rx="1.5"></rect>
            <path d="M32.0230707,9.46209182 C32.0230707,9.46209182 32.0230707,9.38799455 32.0588559,9.25064352 C32.094641,9.11329249 32.1304262,8.91630219 32.1925794,8.66509438 C32.2547325,8.41388656 32.3451372,8.12291924 32.4713269,7.78315616 C32.5975167,7.44339307 32.7444242,7.07652123 32.9195832,6.67169713 C33.1138066,6.23976096 33.3306782,5.81752957 33.5693664,5.40662182 C33.8367295,4.94314391 34.1297064,4.4937029 34.4470446,4.06022024 C34.7766448,3.60479313 35.1344965,3.13852251 35.5413173,2.67767365 C35.9674875,2.16504898 36.4761216,1.72091319 37.048061,1.36199532 C37.2260477,1.25590622 37.4154979,1.16864824 37.6130899,1.10175126 C37.8619091,1.01805723 38.1262695,0.985425215 38.3890629,1.00596698 C38.5369867,1.01947664 38.6821853,1.05293916 38.8203683,1.10536576 C38.8855174,1.13070973 38.9484919,1.16092343 39.0087112,1.19572828 L39.0652141,1.21922254 L39.1028827,1.24090954 L39.1141833,1.24090954 L39.1593856,1.2716328 L39.2874588,1.36199532 C39.3383114,1.39814033 39.3797469,1.43428534 39.4230657,1.47043035 C39.5124728,1.5481604 39.5944178,1.63344429 39.6679116,1.72525266 C39.8270751,1.92692373 39.9330483,2.16253962 39.9767941,2.41200783 C40.013134,2.63050783 40.006747,2.85359107 39.9579598,3.06984699 C39.8811077,3.39513096 39.7541505,3.70760477 39.5812738,3.99696647 C39.3007498,4.4624293 38.9860494,4.90813943 38.639559,5.3307173 L37.7825985,6.43494732 L36.4962161,8.09942499 L35.9971072,8.72834814 C35.9971072,8.72834814 36.5169338,7.70363714 37.3625937,6.19819752 C37.5716544,5.82048217 37.8146168,5.41746532 38.0707633,4.99456872 C38.3465788,4.56075901 38.5980607,4.11312867 38.8241351,3.65358889 C38.9364124,3.4242794 39.014402,3.18091292 39.055797,2.93068871 C39.0990846,2.7160718 39.0403923,2.49411082 38.8957054,2.32525981 C38.8108681,2.24340399 38.7129525,2.17507297 38.6056573,2.12284776 L38.5585715,2.095739 L38.547271,2.095739 C38.547271,2.095739 38.5359704,2.095739 38.547271,2.095739 L38.5303201,2.095739 C38.508172,2.08432978 38.4848085,2.07524118 38.4606332,2.06863025 C38.4143305,2.05429247 38.3661292,2.046381 38.3174925,2.04513599 C38.0830951,2.05829887 37.8584264,2.13961472 37.6733596,2.2782713 C37.2329043,2.60821958 36.8440913,2.99713048 36.5188172,3.43310433 C36.176033,3.86684444 35.8652672,4.3204643 35.5771024,4.76866241 C35.2889377,5.21686052 35.0214907,5.65602238 34.7747614,6.07891899 C34.5280321,6.50181559 34.303904,6.90663969 34.0967267,7.28074053 C33.8895495,7.65484138 33.6993231,8.00364071 33.5316978,8.30545154 L33.1060427,9.09883448 L32.738774,9.79281865 C32.654465,9.95502072 32.4611035,10.0358936 32.2798818,9.98474899 C32.0986601,9.93360434 31.9817189,9.76515732 32.002353,9.58498485 L32.0230707,9.46209182 Z" id="Shape" fill="#010101"></path>
            <path d="M0.433235814,31.738835 L0.419141869,31.7235111 C0.389553445,31.6880903 0.36327882,31.6502749 0.340618466,31.6104974 C0.285873844,31.5111837 0.242665924,31.4064913 0.211759547,31.2982731 C0.120852758,30.970379 0.0635383136,30.6348799 0.0406187954,30.2964737 C-0.0441102494,29.0869949 0.00379915062,27.8724095 0.183571658,26.6723736 C0.438776434,24.8084944 0.920522938,22.9790952 1.61914055,21.2208995 C2.05229841,20.1307355 2.57610417,19.0751524 3.18558178,18.064178 C3.86397721,16.9305062 4.65771561,15.8629302 5.55537783,14.8768088 C7.61214115,12.6354511 10.2002792,10.8921788 13.1057051,9.79119255 C13.8840594,9.49382791 14.6792553,9.23803179 15.4875817,9.02499802 C15.8902658,8.91773079 16.3090573,8.82195647 16.7258354,8.73575958 C16.9271774,8.6917034 17.1446268,8.65147819 17.3540226,8.61125297 L17.9721427,8.50015476 C18.801672,8.35840878 19.6513355,8.23007119 20.5191198,8.14195882 C20.9526763,8.09854113 21.3902598,8.06406238 21.83187,8.03852256 L21.9969705,8.03852256 L22.1801918,8.03852256 L22.4983122,8.02702964 L23.13858,8.00595929 C23.5895862,8.00595929 24.0546864,7.99255089 24.4996523,8.00595929 L25.1741482,8.03086061 L25.852671,8.07300131 C26.7697078,8.13335793 27.6825188,8.24206919 28.5868961,8.39863399 C30.4490858,8.70833002 32.2587463,9.25600655 33.966756,10.0267974 C35.712857,10.8128954 37.3291786,11.8369549 38.7647373,13.0666742 C40.1971507,14.3016319 41.4522498,15.7107914 42.4976191,17.2577583 C43.5333014,18.783598 44.3907323,20.4124785 45.0546633,22.1154316 C45.713421,23.7874857 46.2180078,25.510899 46.5627153,27.2661744 C46.7338561,28.1377207 46.8687552,29.0092669 46.9513055,29.8980526 C46.9714397,30.120249 46.9895605,30.3443609 46.9996276,30.5780502 C46.9996276,30.6948949 46.9996276,30.8136551 46.9996276,30.9515701 L46.9996276,31.0109502 C47.0013141,31.0699203 46.9972701,31.1289126 46.9875471,31.1871749 C46.9618665,31.3331905 46.9129852,31.4746394 46.8425808,31.6066664 C46.7854946,31.70667 46.7143727,31.7988199 46.6311716,31.8805809 C46.5414252,31.9688141 46.4398857,32.0454505 46.3291585,32.1085238 C46.2641876,32.144939 46.1969495,32.1775625 46.1278165,32.2062136 C45.9634305,32.2752447 45.7929735,32.3303682 45.618421,32.3709454 C45.4774816,32.4054242 45.3486227,32.4303255 45.2157369,32.4533114 C44.9660728,32.4973675 44.7305026,32.5299308 44.4969458,32.5586631 C43.5707723,32.6697613 42.6848672,32.7291414 41.8090293,32.7751131 C40.9331913,32.8210847 40.0633936,32.853648 39.203663,32.8804648 C35.766754,32.9800701 32.4607174,33.0049714 29.3238081,32.999225 C26.1868988,32.9934785 23.2231436,32.9494223 20.4889185,32.9034506 C17.7546933,32.857479 15.2540249,32.778944 13.0251683,32.711902 C10.7963117,32.64486 8.86745473,32.5548321 7.27081219,32.4801282 C5.67416965,32.4054242 4.42182203,32.3192273 3.56209143,32.2502698 C3.13121943,32.2157911 2.80101845,32.1832278 2.56746166,32.15258 C2.45068326,32.1372561 2.3661196,32.1219322 2.27551567,32.1027774 C2.22869986,32.0924658 2.18289574,32.0783676 2.13860307,32.0606367 C2.10284253,32.0459967 2.06904649,32.0273484 2.03793204,32.0050876 C1.85890302,31.8590982 1.83816992,31.6026781 1.99162336,31.4323571 C2.14507681,31.2620362 2.4146071,31.2423116 2.59363612,31.388301 C2.58070437,31.3755776 2.56654863,31.3640343 2.55135429,31.3538222 C2.52896378,31.3377148 2.50463021,31.3242106 2.47887115,31.313597 C2.45269668,31.3021041 2.45068326,31.3040196 2.46276378,31.313597 C2.47484431,31.3231744 2.56343481,31.3270054 2.66410584,31.3346673 C2.86544791,31.3499912 3.19162204,31.3633996 3.61242695,31.3748926 C4.4580636,31.3959629 5.7083978,31.4017094 7.29900008,31.3997939 C8.88960236,31.3978784 10.8224861,31.388301 13.0412756,31.3672306 C15.2600652,31.3461603 17.7607335,31.3212589 20.4909319,31.2733718 C23.2211302,31.2254846 26.1768317,31.1833439 29.299647,31.1028935 C32.4224624,31.0224431 35.7184319,30.9400772 39.1050054,30.7619369 C39.950642,30.7178807 40.802319,30.6661626 41.6560093,30.6029516 C42.5096996,30.5397405 43.3654034,30.4688675 44.1828522,30.3596848 C44.3841942,30.332868 44.5855363,30.3003047 44.7667441,30.265826 C44.8573481,30.2485866 44.9439251,30.2294317 45.0164083,30.2102769 C45.0568378,30.2007574 45.0965292,30.1885972 45.1352001,30.1738826 C45.1178747,30.1811417 45.1010611,30.1894595 45.0848646,30.1987839 C45.021807,30.2352871 44.9642368,30.2797474 44.9137238,30.3309525 C44.8503098,30.3939704 44.7961292,30.4648451 44.7526502,30.541656 C44.6958851,30.6507445 44.6552324,30.7667704 44.6318449,30.8864435 C44.7075067,30.424468 45.1557682,30.1035987 45.6433174,30.1624229 C46.1308666,30.2212472 46.4807436,30.6384144 46.4327917,31.1037332 C46.3848398,31.5690519 45.9564636,31.913631 45.466189,31.8812532 C44.9759144,31.8488753 44.6016907,31.4512923 44.6217778,30.9841333 L44.6217778,30.9649785 C44.6217778,30.89219 44.6217778,30.8002467 44.6096973,30.7063878 C44.5976168,30.5148392 44.5815094,30.3232906 44.5593618,30.1317419 C44.4747981,29.3387306 44.3378855,28.5284799 44.1687582,27.7258911 C43.4841952,24.511705 42.233861,21.3377442 40.3533262,18.5928523 C39.4233755,17.2279531 38.3084084,15.9855995 37.0372224,14.8978791 C35.7805499,13.8311179 34.3670074,12.9444879 32.8412539,12.2660009 C31.3283543,11.5998912 29.7332336,11.1178589 28.0936081,10.8313016 C27.2808329,10.6845486 26.4601011,10.5809521 25.6352215,10.5209928 L25.0191148,10.4788521 L24.4030081,10.4558663 C23.9882435,10.434796 23.5976399,10.4558663 23.1949558,10.4405424 L22.5567014,10.4577818 L22.238581,10.4577818 L22.1036818,10.4577818 L21.9526752,10.4577818 C21.5499911,10.4782137 21.147307,10.5069459 20.7446229,10.5439787 C19.9392546,10.6142132 19.1432824,10.709349 18.356706,10.8293861 L17.7647604,10.9213295 C17.5734854,10.9538928 17.3822105,10.9845405 17.1949624,11.0209348 C16.8164393,11.0918078 16.441943,11.1703427 16.0755005,11.2584551 C15.3489483,11.4310989 14.6330741,11.6421296 13.9312076,11.8905656 C12.5899179,12.3656524 11.3098602,12.9845107 10.1157755,13.7351789 C9.00040614,14.4435103 7.97363232,15.2706032 7.05537619,16.2004098 C5.43595743,17.8520128 4.12270597,19.7529524 3.17148784,21.8223622 C2.4104248,23.4405039 1.8352786,25.132109 1.45605348,26.8677532 C1.20206814,27.9801675 1.05715154,29.1126067 1.02316805,30.2505021 C1.01617288,30.5304231 1.03368298,30.8104124 1.07551699,31.0875696 C1.08373292,31.1334104 1.09448611,31.1788067 1.10773172,31.2235691 C1.10773172,31.2235691 1.07350357,31.1833439 1.09565119,31.2120762 L1.10773172,31.2293156 C1.25562526,31.4065128 1.22452561,31.6642193 1.03826871,31.8049192 C0.852011805,31.9456191 0.581129352,31.9160322 0.433235814,31.738835 Z" id="Shape" fill="#010101"></path>
            <path d="M14.0535497,19.2031321 C14.0075423,18.8544553 13.9911301,18.5021574 14.0045078,18.1504149 C14.0203896,17.7375352 14.1379543,17.3360923 14.3456688,16.9854677 C14.5732278,16.6155855 14.9094396,16.3341788 15.3030516,16.1841456 C15.6828095,16.0352816 16.0888718,15.9755296 16.4928504,16.0090668 C16.8890626,16.0478763 17.2732301,16.1732506 17.6208138,16.3771812 C17.9574598,16.5858504 18.2481728,16.867398 18.4737161,17.2031938 C18.6820104,17.5233673 18.8310332,17.8820462 18.9129608,18.2604003 C18.9505569,18.4370861 18.9762082,18.6163551 18.989722,18.7968596 C19.003426,18.9798847 19.003426,19.1637613 18.989722,19.3467865 C18.9169878,20.0634177 18.6031146,20.7290157 18.1048358,21.2232718 C17.866402,21.4637059 17.5881787,21.6561713 17.2839173,21.7911555 C16.9788408,21.9318564 16.6489313,22.0029976 16.3158732,21.9999032 C15.9736607,21.9973916 15.6379169,21.9014929 15.3414323,21.7215729 C15.0566947,21.5394732 14.8129652,21.2943905 14.6271265,21.003301 C14.3098595,20.4562413 14.1138089,19.8409371 14.0535497,19.2031321 Z M14.9576262,19.1470171 C14.968545,19.6360052 15.0953444,20.1143737 15.3265065,20.5386689 C15.5302398,20.8991289 15.9026071,21.1161368 16.3009474,21.1065526 C16.7263781,21.0832169 17.1260844,20.8849249 17.413985,20.5543811 C17.7123165,20.2230786 17.8806436,19.7853005 17.8852135,19.3288297 C17.8881776,19.0948832 17.854314,18.8620352 17.7849975,18.6397376 C17.7211549,18.4231127 17.6199621,18.2207164 17.4864817,18.0426741 C17.2255083,17.6981679 16.8381435,17.4861254 16.4203537,17.4590782 C16.0086509,17.4261361 15.6049165,17.5911871 15.322242,17.9079981 C15.052134,18.2509102 14.9211478,18.691989 14.9576262,19.1357941 L14.9576262,19.1470171 Z" id="Shape" fill="#010101"></path>
            <path d="M27.00119,18.9850873 C27.0186384,18.5886192 27.0992712,18.1985582 27.239438,17.8325625 C27.3866324,17.4698074 27.5957763,17.1412574 27.8555966,16.8646217 C28.363133,16.3223453 29.0405536,16.0131252 29.7492575,16.000228 C30.1090441,15.9949295 30.4649637,16.0820436 30.7885118,16.2545939 C31.1112014,16.4273988 31.3846394,16.6936143 31.5792487,17.0244444 C31.755282,17.3253371 31.8759822,17.6610249 31.9345669,18.0126445 C32.034496,18.6549277 32.0198487,19.3123539 31.8914358,19.9485261 C31.8196978,20.2906355 31.6931345,20.6160772 31.5176329,20.9097138 C31.3262667,21.2293853 31.0677944,21.4941445 30.7638654,21.6818154 C30.4491017,21.8743677 30.0971634,21.9823702 29.7369344,21.9969589 C29.0115935,22.0335617 28.3049481,21.7384438 27.7857653,21.1820878 C27.5173315,20.8951145 27.3073454,20.5491314 27.1696067,20.1668755 C27.0479381,19.7875657 26.9908527,19.3869944 27.00119,18.9850873 Z M28.3053924,19.0301078 C28.288929,19.483159 28.4365882,19.9249657 28.7161649,20.2591675 C28.9934436,20.5897617 29.3789578,20.786453 29.7882809,20.8061666 C30.1761988,20.8315206 30.5494897,20.6400871 30.7802963,20.297435 C30.9010062,20.1149306 30.9901151,19.9096858 31.0431907,19.6919092 C31.1543232,19.2138541 31.1655564,18.7144702 31.0760525,18.2309939 C31.0338386,18.0159959 30.9528354,17.8124161 30.8378045,17.6322212 C30.6106097,17.2975383 30.2351554,17.125003 29.8581122,17.1820162 C28.9914797,17.285349 28.3280351,18.0749998 28.3053924,19.0301078 Z" id="Shape" fill="#010101"></path>
        </g>
    </g>
</svg>