<svg xmlns="http://www.w3.org/2000/svg" viewBox="0 0 333.38 419.21"><defs><style>.a{fill:#fff;}</style></defs><title>archive-pillar</title><polygon class="a" points="325.73 410.5 8.98 410.5 8.98 7.57 227.07 7.57 325.73 100.67 325.73 410.5"/><path d="M661.16,704l-78.83,2-39.81.9-40,.81-40.16.72-40.29.55c-26.88.38-53.81.53-80.72.7a8.65,8.65,0,0,1-8.71-8.6h0v-.1l-.15-25.18-.06-25.18q-.07-25.18,0-50.37l0-25.18.13-25.18.27-50.37.71-100.73.28-50.37L334,298v0a7.36,7.36,0,0,1,7.38-7.36l109,0,109-.22a7.51,7.51,0,0,1,5.16,2l0,0L614,339l24.69,23.25,24.63,23.31h0a7.68,7.68,0,0,1,2.39,5.56q0,39.41-.3,78.86l-.29,39.43-.47,39.36q-.56,39.3-1.46,78.21C662.61,652.85,662,678.61,661.16,704ZM655,697.87c-.8-26.26-1.45-52.13-2.07-77.88s-1.09-51.26-1.46-76.7l-.47-38.1-.29-38q-.26-38-.3-76.05l2.4,5.56-24.7-23.24-24.64-23.31-49.27-46.62,5.2,2.06-109-.22-109,0,7.38-7.38.16,50.37.28,50.37.71,100.73.27,50.37.13,25.18,0,25.18q.06,25.18,0,50.37l-.06,25.18-.15,25.18-8.71-8.71c25.89.17,51.74.31,77.66.7l38.9.55,39,.72,39.18.81,39.38.9Z" transform="translate(-332.37 -290.43)"/><path d="M564.17,306.17c.54,3.88,1,7.76,1.36,11.64s.75,7.76,1,11.64q.91,11.64,1.42,23.28c.37,7.76.58,15.52.74,23.28s.14,15.52-.06,23.28l-8.83-8.83c8.19.32,16.38,1.17,24.56,1.37s16.38.17,24.56,0,16.38-.33,24.56-.13c4.09.17,8.19.16,12.28.62a52.07,52.07,0,0,1,12.28,2.66,4.61,4.61,0,0,1,0,8.65,52.08,52.08,0,0,1-12.28,2.66c-4.09.46-8.19.44-12.28.62-8.19.2-16.38,0-24.56-.13s-16.38-.24-24.56,0-16.38,1-24.56,1.37A8.48,8.48,0,0,1,551,400v-.07l0-.61c-.2-7.76-.19-15.52-.06-23.28s.37-15.52.74-23.28.81-15.52,1.42-23.28c.29-3.88.66-7.76,1-11.64s.82-7.76,1.36-11.64a4.37,4.37,0,0,1,8.65,0Z" transform="translate(-332.37 -290.43)"/><circle class="a" cx="72.51" cy="179.89" r="23.96"/><path d="M432.84,470.32l-.2,2.73-.42,2.71c-.18.89-.41,1.78-.61,2.67s-.56,1.74-.85,2.61a28.8,28.8,0,0,1-25.88,18.42,29.24,29.24,0,0,1-30.24-29.14A29.54,29.54,0,0,1,383.55,449a29.08,29.08,0,0,1,41.63,1A28.75,28.75,0,0,1,432.84,470.32Zm-8,0a19.88,19.88,0,0,0-1.83-7.51,19.37,19.37,0,0,0-4.54-6.08A18.91,18.91,0,0,0,404.88,452a18.81,18.81,0,0,0-12.56,5.78,18.49,18.49,0,0,0-5.12,12.56,18.65,18.65,0,0,0,10.65,17,18.88,18.88,0,0,0,20.88-3.13,19.36,19.36,0,0,0,4.54-6.23c.23-.61.51-1.2.73-1.81s.38-1.25.53-1.89.21-1.29.27-1.95Z" transform="translate(-332.37 -290.43)"/><circle cx="81.64" cy="175.94" r="10.36"/><circle class="a" cx="266.1" cy="179.89" r="23.96"/><path d="M626.5,470.32A30,30,0,0,1,624.25,481a28.5,28.5,0,0,1-46.25,9.8,28.73,28.73,0,0,1,20.47-49.46,28.65,28.65,0,0,1,26.1,18.18A28.26,28.26,0,0,1,626.5,470.32Zm-8.13,0a19.66,19.66,0,0,0-6.15-13.75,19.45,19.45,0,0,0-13.75-5.19,19.2,19.2,0,0,0-13.41,32.35A19.48,19.48,0,0,0,617,478,18.43,18.43,0,0,0,618.37,470.32Z" transform="translate(-332.37 -290.43)"/><circle cx="275.23" cy="175.94" r="10.36"/><path d="M479.24,492.78h40.14s-2.26,26.34-21,24.79S479.24,492.78,479.24,492.78Z" transform="translate(-332.37 -290.43)"/></svg>