<svg xmlns="http://www.w3.org/2000/svg" viewBox="0 0 345.19 377.05"><defs><style>.a{fill:#fff;}.b{fill:#fdfefe;}.c{fill:#55c4f7;}.d{fill:#05599b;}.e{fill:#2bb5f3;}</style></defs><title>Asset 1</title><path class="a" d="M337.67,51.32c-6-8.16-16.85-11.39-25.71-15.36L273,18.45c-16.26-7.31-33.79-19.67-52.11-13.53-8,2.66-15.74,6-23.57,9Q140.57,35.51,83.87,57.09c-21,8-42.49,15.29-63.23,24C.19,89.7-.53,107.57,7.34,126.28c3.44,8.17,6.59,16.47,9.61,24.81,5,13.84,7.42,18.91,10.42,26.6,4.13,10.62,7.31,19.21,11.9,31.6,4.51,12.2,3.84,10.75,7.14,19.46,4.87,12.86,9.64,25.78,14.69,38.58,3.19,8.07,6.39,16.13,9.51,24.24,5.17,13.45,8.06,31.89,20.78,40.54,6.7,4.56,15.09,7.29,22.45,10.58,19.93,8.92,40,17.61,59.82,26.73,11.58,5.33,23.62,7.53,33.79-2.46a23.33,23.33,0,0,0,6.81-13.72c.92-7.43-2.48-13.92-5.14-20.66Q197.81,303.89,186.91,275c-1.37-3.65-9.35-18.31-7.79-21.29.35-.67,3.82-1.46,4.45-1.7l23-8.78,54.82-21c8.71-3.32,16.91-6.59,20.55-16,4.21-10.95-.66-22.22-10.18-28.36-8.24-5.32-18-8.67-26.92-12.67q-19.74-8.85-39.48-17.72a7.44,7.44,0,0,1,.41-13.74l83.67-31.88C308.18,94.74,360,81.81,337.67,51.32Z"/><path d="M336.28,52.34A26.17,26.17,0,0,0,329.43,46a53.68,53.68,0,0,0-8.62-4.49c-3-1.33-6.13-2.5-9.24-3.84l-9.19-4c-6.13-2.63-12.25-5.26-18.45-7.74l-9.3-3.7c-3.08-1.21-6.27-2.56-9.3-4-6.09-2.82-11.92-5.92-17.9-8.21a55.11,55.11,0,0,0-9.05-2.72,32.9,32.9,0,0,0-9.08-.7l-1.12.06c-.38,0-.74.11-1.11.16-.74.13-1.48.22-2.22.36-1.45.43-2.83.73-4.42,1.32-3.09,1.07-6.17,2.23-9.25,3.44l-9.3,3.67-9.36,3.6L117.68,47.54,80.23,61.65c-12.53,4.66-25.1,9.09-37.54,13.77-6.23,2.34-12.42,4.74-18.55,7.26l-2.3.95-2.11,1a37.51,37.51,0,0,0-4,2.25,25.74,25.74,0,0,0-6.43,6.18,22.13,22.13,0,0,0-3.36,8.14,28.74,28.74,0,0,0-.22,9.13,46.25,46.25,0,0,0,2.07,9.22l.76,2.27.88,2.24c.55,1.47,1.26,3.08,1.89,4.61,2.56,6.2,5,12.46,7.3,18.73s4.6,12.45,7.15,18.57l3.84,9.27c1.24,3.13,2.4,6.24,3.6,9.36l7.16,18.71c2.41,6.2,4.72,12.53,7,18.75s4.78,12.41,7.17,18.62c4.83,12.41,9.55,24.84,14.56,37.24l3.7,9.3c1.25,3,2.49,6.37,3.53,9.56,2.12,6.41,4,12.68,6.64,18.41s6.11,10.72,10.88,13.88c5.06,3.33,11.15,5.61,17.37,8.17,1.55.63,3.15,1.31,4.7,2l4.58,2,9.14,4.06,18.26,8.19C154,356.24,160.07,359,166,362l9,4.44a45.7,45.7,0,0,0,8.77,3.44,27.09,27.09,0,0,0,8.88.88,18.44,18.44,0,0,0,8.11-2.56l.93-.55c.31-.2.59-.44.88-.65l.88-.65c.29-.23.55-.49.83-.74a18.5,18.5,0,0,0,3-3.17,20.11,20.11,0,0,0,3.56-7.81,18.79,18.79,0,0,0-.15-8.53,58.1,58.1,0,0,0-3.13-8.92c-.63-1.52-1.31-3.15-1.89-4.69l-1.81-4.66-3.61-9.34-14.46-37.33L184,276.46c-.49-1.29-1.25-2.82-1.95-4.31-1.43-3-2.89-6.07-4.2-9.29a41.13,41.13,0,0,1-1.77-5.17,11.09,11.09,0,0,1-.39-3.59,6.21,6.21,0,0,1,.13-.73,4.73,4.73,0,0,1,.3-.9,4.17,4.17,0,0,1,1-1.4,4.28,4.28,0,0,1,.77-.53,9.8,9.8,0,0,1,1.71-.75c.94-.33,1.81-.56,2.57-.78l.23-.06.1,0,.58-.22,1.17-.45,4.67-1.79,74.65-28.6a43.5,43.5,0,0,0,8.27-4.16,18.53,18.53,0,0,0,5.76-6.11A19.63,19.63,0,0,0,280,199.5a18.9,18.9,0,0,0-1.32-8.3A21.68,21.68,0,0,0,274,184a24.51,24.51,0,0,0-3.35-2.82c-1.17-.85-2.61-1.69-4-2.47a186.47,186.47,0,0,0-17.78-8.31c-3.09-1.32-6.18-2.75-9.18-4.14l-9.1-4.15c-6.07-2.77-12.15-5.49-18.24-8.21l-4.57-2-2.28-1-1.14-.51-.3-.13-.38-.2-.76-.41a11.66,11.66,0,0,1-1.43-1,16.4,16.4,0,0,1-1.24-1.26,10.39,10.39,0,0,1-1.72-3.08,10.73,10.73,0,0,1-.11-6.88,10.44,10.44,0,0,1,4.27-5.51,9.19,9.19,0,0,1,1.55-.82l.39-.18.29-.11.59-.23,2.33-.9,9.33-3.61,37.31-14.42,18.66-7.2,9.34-3.57,4.67-1.78c1.54-.6,3.2-1.2,4.78-1.75,6.37-2.18,12.63-4.22,18.72-6.63a112.35,112.35,0,0,0,17.51-8.25,39.84,39.84,0,0,0,7.44-5.65,18.79,18.79,0,0,0,4.79-7.38,14.62,14.62,0,0,0,.06-8.69A29.25,29.25,0,0,0,336.28,52.34Zm2.78-2a34.11,34.11,0,0,1,5.05,9.28,19.46,19.46,0,0,1,.52,11,23.34,23.34,0,0,1-5.3,9.65,44.39,44.39,0,0,1-8,7,93.6,93.6,0,0,1-18.21,9.58c-6.28,2.58-12.68,4.76-18.89,7L219.44,132l-9.37,3.51-2.34.88-.58.22-.3.11-.17.08a3.74,3.74,0,0,0-.66.34,4.29,4.29,0,0,0-1.76,2.21,4.39,4.39,0,0,0,1.8,5.17l.33.18.17.1.27.13,1.14.52,2.28,1,4.56,2c6.07,2.75,12.15,5.49,18.25,8.17s12.22,5.46,18.28,7.94,12.49,4.93,18.58,8.33c1.53.88,3,1.7,4.53,2.79a30.08,30.08,0,0,1,4.32,3.58,28.49,28.49,0,0,1,6.2,9.42A25.76,25.76,0,0,1,286.73,200c-.06,1-.23,1.91-.36,2.85s-.39,1.88-.7,2.79a26.2,26.2,0,0,1-2.25,5.27,25.09,25.09,0,0,1-7.82,8.33,49.54,49.54,0,0,1-9.54,4.84l-74.8,28.57-4.67,1.79-1.17.44-.58.23-.49.17-.37.11c-.85.24-1.59.44-2.22.66a4.6,4.6,0,0,0-.58.23s.07,0,.25-.19c.09,0,.81-1,.67-.9a1.44,1.44,0,0,0,.1-.3.17.17,0,0,0,0-.12,6.81,6.81,0,0,0,.22,1.35,34.05,34.05,0,0,0,1.47,4.28c1.2,3,2.6,5.93,4,8.94.71,1.53,1.44,3,2.15,4.81l1.79,4.66,14.34,37.31,3.59,9.33,1.79,4.66c.6,1.58,1.2,3,1.84,4.6a63.37,63.37,0,0,1,3.44,9.94,27.16,27.16,0,0,1,.7,5.6,24.09,24.09,0,0,1-.57,5.7,26.56,26.56,0,0,1-4.69,10.24,25.09,25.09,0,0,1-3.85,4.11c-.35.31-.68.63-1,.92l-1.13.84c-.38.27-.75.57-1.15.82l-1.21.73A24.91,24.91,0,0,1,193.15,377a34.48,34.48,0,0,1-10.93-1.14,70.23,70.23,0,0,1-10-3.43L163,368.69c-6.22-2.43-12.3-5.16-18.38-7.87l-18.27-8.13-9.11-4.1-4.56-2c-1.49-.68-2.95-1.31-4.48-1.94-6.07-2.55-12.57-5-18.65-9.07a33.8,33.8,0,0,1-8.06-7.85,48.73,48.73,0,0,1-5.38-9.37c-2.86-6.43-4.73-13-6.73-19.26-1-3.16-2-6.09-3.29-9.24l-3.6-9.32C57.6,268.1,53,255.55,48.29,243.06c-2.33-6.26-4.71-12.47-7-18.79s-4.44-12.55-6.79-18.8l-6.93-18.72c-1.17-3.12-2.3-6.27-3.49-9.35l-3.71-9.25c-2.51-6.22-4.82-12.57-7-18.83s-4.6-12.45-7.09-18.59c-.62-1.56-1.27-3-1.9-4.65l-.94-2.41-.82-2.47A51,51,0,0,1,.29,110.94a34.3,34.3,0,0,1,.29-10.78A27.72,27.72,0,0,1,4.75,89.94a31.07,31.07,0,0,1,7.85-7.67,39.36,39.36,0,0,1,4.67-2.65l2.41-1.15,2.32-1c6.18-2.59,12.41-5,18.66-7.43,12.48-4.79,25-9.3,37.48-14l37.33-14.33,74.69-28.66,9.32-3.56,9.31-3.67c3.12-1.21,6.28-2.41,9.49-3.52,1.54-.57,3.41-1,5.17-1.51.9-.18,1.81-.3,2.72-.45.45-.07.9-.16,1.36-.2L228.9.09a39.61,39.61,0,0,1,10.79.83,62.3,62.3,0,0,1,10.09,3,174.69,174.69,0,0,1,18.32,8.71c5.78,3.05,11.8,6,17.76,9s12,5.82,18,8.65L313,34.52c3,1.37,6.07,2.64,9.16,4a66.78,66.78,0,0,1,9.1,4.74A29.36,29.36,0,0,1,339.06,50.31Z"/><path class="b" d="M85.07,264.14a5.47,5.47,0,0,0,1.54,4.35c5.21,14,10.47,28,15.6,42,.81,2.21,2.55,2.92,4.38,3.73q40.46,18.1,80.92,36.17c1,.44,2,1.82,3.89.06-3.24-8.22-6.62-16.66-9.89-25.14q-15.36-39.78-30.65-79.58c-.47-1.77-.93-3.54-1.4-5.31l111-42.4c-1.84-1.12-2.55-1.66-3.34-2q-40.95-18.39-81.88-36.8c-2.64-1.19-4.84-.8-7.31.16-9.35,3.63-18.82,7-28.1,10.8-4.83,2-10.18,2.84-14.41,6.24-21.25,6.44-41.54,15.49-62.39,23-3,1.1-1.91,2.94-1.21,4.79,4.19,11.06,8.3,22.14,12.62,33.15C77.91,246.3,80.69,255.55,85.07,264.14Zm234-199.2a9.7,9.7,0,0,0-1.52-1.2q-41.44-18.63-82.9-37.27c-2.52-1.14-4.55-.43-6.79.42Q128.37,64.83,28.81,102.65c-4,1.51-4.83,3.06-3.24,7.1q10.67,27,20.72,54.21c1.6,4.35,3.17,4.81,7.42,3.18q130.39-49.9,260.91-99.51C316.1,67.06,317.84,66.86,319.1,64.94Z"/><path class="c" d="M319.1,64.94c-1.26,1.92-3,2.12-4.48,2.69Q184.15,117.36,53.71,167.14c-4.25,1.63-5.82,1.17-7.42-3.18q-10-27.24-20.72-54.21c-1.59-4-.75-5.59,3.24-7.1Q128.4,64.9,227.89,26.89c2.24-.85,4.27-1.56,6.79-.42q41.42,18.72,82.9,37.27A9.7,9.7,0,0,1,319.1,64.94Z"/><path d="M322.55,64.38a4.52,4.52,0,0,1-.57,2.46,4.21,4.21,0,0,1-.44.65l-.18.21a10,10,0,0,1-.8.79,9,9,0,0,1-1.84,1.22,22.86,22.86,0,0,1-2.85,1c-1.59.59-3.26,1.26-4.88,1.9q-4.89,2-9.71,4.13c-1.6.73-3.21,1.42-4.8,2.19s-3.15,1.61-4.69,2.48c-3.09,1.77-6.12,3.68-9.28,5.25s-6.48,2.73-9.75,4l-9.82,3.81L243.25,102l-39.54,14.63c-13.2,4.83-26.42,9.6-39.58,14.52s-26.37,9.72-39.46,14.83-26.1,10.41-39.11,15.74l-19.52,8-9.76,4a21.28,21.28,0,0,1-3.72,1.16,12.08,12.08,0,0,1-3.1.24,10.24,10.24,0,0,1-4.3-1.25,10.74,10.74,0,0,1-3.07-2.63l-.49-.64-.37-.57a11.88,11.88,0,0,1-.62-1.07,34.55,34.55,0,0,1-1.41-3.22L23.4,126.77,19.54,117l-2-5.23a14.87,14.87,0,0,1-.93-5.53,11.41,11.41,0,0,1,1.12-4.59,11.73,11.73,0,0,1,2.78-3.6,16,16,0,0,1,4.53-2.67l.87-.34.62-.23,1.24-.43A48.74,48.74,0,0,1,32.91,93,76.68,76.68,0,0,0,43.2,90.44c13.07-5.17,26.21-10.15,39.31-15.23L161.2,45l19.69-7.53c6.54-2.58,13.17-4.9,19.84-7.12s13.31-4.54,19.83-7.14c1.64-.63,3.28-1.26,4.91-1.93a25.9,25.9,0,0,1,3.15-1.11,13.08,13.08,0,0,1,4.86-.42,12.62,12.62,0,0,1,2.57.55c.41.13.77.28,1.16.44l.63.26,2.43,1,4.85,2.06,19.36,8.34c6.47,2.75,12.94,5.48,19.3,8.46s12.67,6.09,18.86,9.45c3.1,1.66,6.16,3.42,9.19,5.24,1.52.9,3,1.84,4.52,2.8.75.47,1.49,1,2.23,1.47l.56.37a4.5,4.5,0,0,0,.39.23,3.13,3.13,0,0,1,.4.28,5.86,5.86,0,0,1,.54.47,4.59,4.59,0,0,1,.52.63l.16.22.07.09A4,4,0,0,1,322.55,64.38Zm-6.9,1.11a3.12,3.12,0,0,0,1.08,2.06l-.19-.11-.34-.21a1.67,1.67,0,0,0-.47-.24s0,0,0,.08l.12.11s.21.12.1.08l-.65-.17c-.86-.23-1.73-.44-2.57-.69-1.72-.48-3.42-1-5.1-1.52q-5.07-1.59-10-3.4-9.93-3.61-19.59-7.84c-6.45-2.78-12.79-5.81-19.14-8.82l-19.09-9L235,33.6l-2.38-1.14-.56-.27-.07,0s0,0,0,0,0-.06-.36,0a13.59,13.59,0,0,0-1.83.58c-1.66.58-3.3,1.2-5,1.81-6.6,2.4-13.11,5.06-19.56,7.85s-13,5.46-19.56,7.88l-19.71,7.46L87.15,87.45C74,92.36,60.86,97.38,47.66,102.2a77.28,77.28,0,0,0-9.41,4.91,48.83,48.83,0,0,1-4.73,2.4l-2.18.9c-.41.15-.63.39,0-.07a4.72,4.72,0,0,0,1.17-1.54,5.28,5.28,0,0,0,.54-2c0-1-.08-.72.06-.39L34.85,111l3.66,9.92,14.3,39.8c.34.95.49,1.37.61,1.65s.08-.14-1.2-.94a4,4,0,0,0-1.8-.52,1.09,1.09,0,0,0-.48,0,7,7,0,0,0,1.31-.37L61.18,157,81.05,150q19.88-7.05,39.66-14.32c13.16-4.9,26.23-10.08,39.31-15.21s26.14-10.34,39.2-15.53l39.23-15.42L258.15,82l9.86-3.7c3.3-1.21,6.54-2.57,9.95-3.49s6.94-1.52,10.42-2.27c1.73-.38,3.46-.79,5.15-1.27s3.36-1,5-1.57c3.36-1.06,6.68-2.19,10-3.38,1.67-.6,3.28-1.19,5-1.85a14.36,14.36,0,0,0,2.08-.79.93.93,0,0,0,.33-.26.64.64,0,0,0,.11-.16l0,0c.08-.1-.06,0-.24.38A2.64,2.64,0,0,0,315.65,65.49Z"/><path class="c" d="M125.38,176.39l47.25-17.91L260.42,198l-111,42.4a5.74,5.74,0,0,1-.91-.31,5.47,5.47,0,0,0,.11-2.11c-4.79-12.36-9.78-24.64-14.43-37C131.19,192.79,127.36,184.92,125.38,176.39Z"/><path class="d" d="M146.83,233.29q16.6,45.6,34.68,92,4.92,12.63,9.89,25.14l-87.83-37.94L81.82,257Z"/><path class="e" d="M125.38,176.39c2,8.53,5.81,16.4,8.85,24.54,4.65,12.41,9.64,24.69,14.43,37a5.47,5.47,0,0,1-.11,2.11l-29.37,11.75-34.11,12.3c-4.38-8.59-7.16-17.84-10.67-26.78-4.32-11-8.43-22.09-12.62-33.15-.2-.52-1.24-2.05-.67-3.34A3.06,3.06,0,0,1,63,199.42Z"/><path d="M146.6,237.8a3.9,3.9,0,0,1,3.81-1.12l-2.32.13c4.71-1.53,9.3-3.4,13.86-5.33,2.27-1,4.54-2,6.79-3a71.56,71.56,0,0,0,6.67-3.34c4.36-2.46,8.52-5.45,13.08-7.38s9.21-3.61,13.82-5.43c9.21-3.61,18.48-7.1,27.74-10.58l27.86-10.29-.37,13c-14.54-6.79-29-13.69-43.61-20.38l-21.85-10.11c-7.31-3.29-14.61-6.62-22-9.76l4.75.14c-13.91,5.51-27.77,11.17-41.63,16.83s-27.85,11.11-41.79,16.62L70.48,206l-2.61,1-1.31.51-.63.25a5.09,5.09,0,0,0,.48-.21,6.2,6.2,0,0,0,2.36-2.19,7.15,7.15,0,0,0,1-2.31,6.81,6.81,0,0,0,.12-2,5.17,5.17,0,0,0-.32-1.47,2.77,2.77,0,0,1,.16.31l.19.39.3.72.13.32q2.09,5.19,4,10.43l1.94,5.25c.62,1.75,1.33,3.48,1.84,5.28,1.09,3.58,1.45,7.44,2.43,11.06a37.38,37.38,0,0,0,1.85,5.43c.72,1.77,1.37,3.54,2,5.29,1.29,3.5,2.57,6.9,3.94,10.17l0,.05a7,7,0,0,1-3.73,9.16l-.31.12h0l4.07-9.2,22,55.35-4-4.09,44,18.84,22,9.48c7.33,3.13,14.44,6.76,21.65,10.19l-9,8.72c-1.63-4.64-3.47-9.2-5.3-13.76l-5.74-13.76c-3.94-9.76-7.69-19.78-11.39-29.94s-6.95-20.53-9.57-30.38S148.27,245.85,146.6,237.8Zm5.67,5.19,14.32,27.79c4.31,8.52,8,16.51,11.23,24.71s6.43,16.54,9.43,25.14c.7,2.09,1.58,4.49,2.42,6.77s1.65,4.61,2.56,6.89c1.76,4.57,3.51,9.15,5.47,13.64a6.68,6.68,0,0,1-8.53,8.9l-.46-.18c-7.43-2.9-15-5.59-22.26-8.78l-22-9.48-43.86-19.1,0,0a7.33,7.33,0,0,1-3.9-4.07L75.22,259.61l-.08-.19a6.93,6.93,0,0,1,4-9l.18-.07h0l-4,9.34c-1.49-3.65-2.79-7.27-4-10.8-.64-1.76-1.26-3.51-1.84-5.24a30,30,0,0,0-2.15-5c-1.68-3.37-4-6.5-5.55-9.91-.82-1.69-1.45-3.46-2.15-5.2l-2.06-5.24c-1.35-3.5-2.68-7-3.94-10.54l-.13-.33v0l0,.15.13.29s.06.12,0,.07l-.45-1a13.24,13.24,0,0,1-1.1-4.15,11.07,11.07,0,0,1,1.67-7,11.53,11.53,0,0,1,4.46-4,11.75,11.75,0,0,1,1.77-.75l.69-.25,1.32-.46,2.65-.9,21.17-7.26,42.36-14.55c14.11-4.94,28.22-9.88,42.28-15l.2-.07a5.91,5.91,0,0,1,4.55.22c7.25,3.44,14.58,6.7,21.9,10l22,9.65c14.68,6.48,29.45,12.75,44.17,19.13a7,7,0,0,1-.19,12.9l-.18.07-27.62,10.91c-9.23,3.58-18.46,7.16-27.74,10.62-4.64,1.72-9.24,3.53-13.92,5.17s-9.77,2.15-14.66,3.22a70.17,70.17,0,0,0-7.2,2c-2.37.71-4.73,1.49-7.07,2.27-4.69,1.61-9.35,3.27-13.89,5.27l-2.32.14a3.85,3.85,0,0,0,2,0A3.79,3.79,0,0,0,152.27,243Z"/></svg>