<?xml version="1.0" encoding="UTF-8"?>
<svg width="48px" height="48px" viewBox="0 0 48 48" version="1.1" xmlns="http://www.w3.org/2000/svg" xmlns:xlink="http://www.w3.org/1999/xlink">
    <!-- Generator: Sketch 49.3 (51167) - http://www.bohemiancoding.com/sketch -->
    <title>ios-mascot</title>
    <desc>Created with Sketch.</desc>
    <defs></defs>
    <g id="ios-mascot" stroke="none" stroke-width="1" fill="none" fill-rule="evenodd">
        <g id="logos" transform="translate(5.000000, 1.000000)" fill-rule="nonzero">
            <g id="Group" transform="translate(0.770492, 13.098361)">
                <path d="M30.6604372,12.7516393 C30.6039344,7.2657377 35.283388,4.63322404 35.4965574,4.49967213 C32.8640437,0.778196721 28.7650273,0.267103825 27.3062295,0.210601093 C23.8184699,-0.130983607 20.5002186,2.19590164 18.7306557,2.19590164 C16.9610929,2.19590164 14.2335519,0.259398907 11.3416393,0.308196721 C7.52082466,0.390499528 4.01568689,2.44731359 2.08032787,5.74273224 C-1.86972678,12.3689617 1.07098361,22.1798907 4.91830601,27.5733333 C6.80087432,30.2032787 9.04300546,33.1593989 11.9888525,33.0515301 C14.8139891,32.9436612 15.8978142,31.2768306 19.3265027,31.2768306 C22.7551913,31.2768306 23.7208743,33.0515301 26.7206557,32.9950273 C29.7718033,32.9410929 31.7057377,30.3162842 33.5728962,27.6760656 C34.9034935,25.7845318 35.9488369,23.7076906 36.6754098,21.5121311 C36.6034973,21.4838798 30.7220765,19.303388 30.6604372,12.7516393 Z" id="Shape" fill="#FFFFFF"></path>
                <path d="M0.0847540984,10.1268306 C0.0847540984,22.0591803 8.12098361,33.2698361 12.8030055,33.2672678 C16.2085792,33.2672678 18.044918,31.9240437 22.3057377,31.9214754 C25.3440437,31.9214754 26.3610929,32.6046448 28.4979235,32.9975956 C29.3531694,33.1542623 33.4521858,29.7974863 31.9908197,29.8051913 C19.0799454,29.861694 8.64234973,22.7140984 5.8968306,15.2762842 C4.5077709,11.5168404 3.94538185,7.50215353 4.24797814,3.5057377" id="Shape" fill="#EDEEF8"></path>
            </g>
            <path d="M30.7708743,25.8217486 L30.7939891,25.1976503 L30.7939891,24.8843169 C30.7939891,24.7815847 30.8196721,24.658306 30.8325137,24.5453005 L30.927541,23.8544262 C30.9686339,23.6284153 31.0251366,23.4152459 31.0739344,23.1943716 L31.1509836,22.8656284 L31.2588525,22.5445902 C31.3333333,22.3314208 31.397541,22.1131148 31.4848634,21.905082 L31.741694,21.2835519 C31.8315847,21.0755191 31.9497268,20.8828962 32.052459,20.6825683 C32.1576797,20.4822598 32.273415,20.2876532 32.3991803,20.0995628 C32.5163099,19.9057817 32.6431754,19.7180551 32.7792896,19.5371038 C32.9154098,19.3573224 33.0361202,19.1672678 33.1927869,18.9977596 C33.3494536,18.8282514 33.4778689,18.6459016 33.6371038,18.4840984 C33.7963388,18.3222951 33.9427322,18.1502186 34.1096721,17.9986885 C34.276612,17.8471585 34.435847,17.6827869 34.6233333,17.5389617 C34.8108197,17.3951366 34.9751913,17.2487432 35.1549727,17.1074863 L35.434918,16.9045902 L35.6917486,16.7248087 L35.4015301,18.1990164 C34.2447219,16.7072002 32.6771529,15.5859777 30.8915847,14.973224 C29.9926781,14.6650239 29.056132,14.4801338 28.107541,14.4236066 L27.3242077,14.3825137 L27.0134426,14.3825137 C26.9043917,14.3824308 26.7954463,14.3892935 26.6872678,14.4030601 C26.4586885,14.4261749 26.227541,14.4467213 25.9938251,14.4955191 C25.7601093,14.5443169 25.5289617,14.5854098 25.2952459,14.6393443 C24.3215568,14.895224 23.365082,15.2126192 22.4315847,15.5896175 C21.9333333,15.7771038 21.427377,15.9697268 20.8572131,16.1366667 C20.7082514,16.1751913 20.5669945,16.2188525 20.4103279,16.2522404 C20.2536612,16.2856284 20.0918579,16.3190164 19.9120765,16.3395628 L19.6321311,16.3601093 L19.4908743,16.3601093 L19.3239344,16.3601093 C19.1724658,16.3538323 19.021516,16.3383942 18.8719126,16.3138798 L18.5919672,16.2676503 C18.4995082,16.2496721 18.4378689,16.231694 18.3582514,16.2137158 C18.2067213,16.1777596 18.0577596,16.139235 17.9216393,16.0930055 C17.6365574,16.0082514 17.3745902,15.913224 17.1151913,15.820765 L15.635847,15.258306 C15.1581421,15.0785246 14.6881421,14.9167213 14.225847,14.7857377 C13.777579,14.6531989 13.318723,14.5595373 12.8543716,14.5057923 C12.3863168,14.460584 11.9149947,14.460584 11.4469399,14.5057923 C11.220929,14.5340437 11.0051913,14.5520219 10.776612,14.5854098 C10.5480328,14.6187978 10.3091803,14.6598907 10.0780328,14.7189617 C8.21228738,15.1521587 6.50986637,16.1112189 5.17256831,17.482459 C5.00819672,17.6545355 4.83868852,17.8240437 4.68972678,18.0115301 L4.45857923,18.2837705 L4.24540984,18.5714208 C4.09901639,18.7589071 3.96803279,18.959235 3.83961749,19.1621311 L3.74202186,19.3136612 L3.7163388,19.3521858 C3.69836066,19.3804372 3.7163388,19.3342077 3.7163388,19.3521858 L3.7163388,19.3727322 L3.66754098,19.4574863 L3.47491803,19.8016393 C3.01329908,20.650015 2.65873239,21.5523916 2.41934426,22.4880874 C2.17506192,23.4444818 2.02538052,24.4225723 1.97245902,25.4082514 C1.87746983,27.4209128 2.07032652,29.4368275 2.54519126,31.3949727 C3.01027812,33.3759336 3.69960733,35.2974388 4.59983607,37.1222951 C5.04574189,38.0328823 5.55107744,38.9131442 6.11256831,39.757377 C6.38737705,40.1657377 6.70327869,40.6074863 7.00120219,41.0184153 C7.29912568,41.4293443 7.61245902,41.8454098 7.93092896,42.2357923 C8.53409114,43.0128472 9.22917344,43.7139662 10.0009836,44.3238251 C10.1859016,44.4753552 10.3836612,44.5806557 10.5762842,44.7193443 C10.6738798,44.775847 10.776612,44.8246448 10.8742077,44.8811475 C10.9710646,44.9366931 11.0724459,44.9839472 11.1772678,45.0224044 C11.5713639,45.1979453 11.9945704,45.2989575 12.4254645,45.3203279 L12.7208197,45.3203279 L13.1137705,45.2946448 C13.2498907,45.2946448 13.3346448,45.2638251 13.4476503,45.2509836 C13.5599215,45.2372893 13.6713755,45.2175706 13.7815301,45.1919126 C14.2524723,45.0890049 14.7138491,44.9463819 15.1607104,44.7655738 C15.6307104,44.583224 16.1238251,44.3700546 16.6528962,44.1825683 C17.7264342,43.7897547 18.8614013,43.5914616 20.0045355,43.5969945 L20.2331148,43.5969945 L20.4308743,43.5969945 C20.5669945,43.5969945 20.6877049,43.5969945 20.839235,43.6201093 L21.2835519,43.6663388 C21.4325137,43.6817486 21.5686339,43.7125683 21.712459,43.7356831 C22.2742137,43.8390668 22.8252885,43.9938149 23.3587432,44.1979781 C23.8724044,44.3957377 24.3680874,44.616612 24.8329508,44.8040984 C25.2761501,44.9914332 25.7362627,45.1359172 26.2069945,45.2355738 L26.5511475,45.2946448 L26.9004372,45.3280328 C27.0160109,45.3408743 27.1367213,45.3280328 27.2522951,45.3280328 L27.4295082,45.3280328 L27.5065574,45.3280328 L27.604153,45.3280328 L27.9971038,45.2997814 L28.3027322,45.2407104 C28.4108425,45.2227076 28.5173389,45.1960835 28.6212022,45.1610929 C28.7312008,45.1339596 28.8393016,45.0996419 28.9448087,45.0583607 C29.3786678,44.8943808 29.7895627,44.6751218 30.1673224,44.4060109 C30.5606346,44.1235358 30.9300076,43.8091392 31.271694,43.4660109 C31.615847,43.1115847 31.9522951,42.7391803 32.270765,42.3410929 C32.589235,41.9430055 32.9,41.5372131 33.2056284,41.1160109 L33.6704918,40.5047541 C33.8117486,40.3121311 33.965847,40.0784153 34.1122404,39.8652459 C34.6767628,39.0174366 35.1855066,38.1337839 35.6352459,37.2198907 C35.8586885,36.7601639 36.0718579,36.2953005 36.2670492,35.8227322 C36.3646448,35.5864481 36.4596721,35.3501639 36.5469945,35.1113115 L36.6754098,34.7543169 L36.8038251,34.376776 L37.1710929,35.2345902 L37.1094536,35.2114754 L37.0195628,35.1729508 C36.9604918,35.1472678 36.8988525,35.1215847 36.8423497,35.0933333 C36.7293443,35.0368306 36.6112022,34.9854645 36.500765,34.9263934 C36.2764663,34.8116758 36.0573042,34.6892532 35.8432787,34.5591257 C35.6249727,34.4384153 35.4246448,34.2894536 35.2140437,34.1533333 C35.0034426,34.0172131 34.813388,33.8554098 34.6130601,33.7064481 C34.4127322,33.5574863 34.2329508,33.3828415 34.0428962,33.2184699 C33.8528415,33.0540984 33.6859016,32.866612 33.5061202,32.6919672 C33.3263388,32.5173224 33.1748087,32.3144262 33.0078689,32.1269399 C32.8436535,31.9365308 32.6918122,31.7357914 32.5532787,31.5259563 C32.4020593,31.3240735 32.2647653,31.1121259 32.1423497,30.8915847 C32.019071,30.6707104 31.8855191,30.4524044 31.7776503,30.2289617 L31.4797268,29.5329508 C31.3817629,29.3000894 31.3002336,29.0606508 31.2357377,28.8163934 L31.1021858,28.4593989 L31.0482514,28.2770492 C31.0328415,28.2154098 31.0251366,28.1537705 31.0122951,28.0921311 L30.8787432,27.3498907 C30.8358359,27.1037629 30.8109428,26.8548325 30.8042623,26.605082 L30.7708743,25.8654098 L30.7708743,25.8294536 L30.7708743,25.8217486 Z M32.0909836,25.8448634 L32.1372131,26.5023497 C32.1432807,26.7212753 32.1664662,26.9393906 32.2065574,27.1546995 L32.3246995,27.7993443 C32.3246995,27.8532787 32.3426776,27.9072131 32.3555191,27.9611475 L32.4043169,28.1178142 L32.4993443,28.4285792 C32.5548784,28.6390878 32.626135,28.8451311 32.7125137,29.0449727 L32.9693443,29.6408197 C33.0695082,29.8334426 33.1825137,30.0183607 33.2878142,30.2084153 C33.3937503,30.3956921 33.5130581,30.575083 33.6448087,30.7451913 C33.7648648,30.9251704 33.8970087,31.0967859 34.0403279,31.2588525 C34.1867213,31.4206557 34.3151366,31.5978689 34.4743716,31.7493989 C34.6336066,31.900929 34.7825683,32.0601639 34.9443716,32.2065574 C35.1061749,32.3529508 35.2756831,32.4942077 35.4580328,32.6303279 C35.6403825,32.7664481 35.8073224,32.8871585 35.9896721,33.0207104 C36.1720219,33.1542623 36.3518033,33.277541 36.5469945,33.3751366 C36.7421858,33.4727322 36.9271038,33.5934426 37.1222951,33.6936066 C37.2198907,33.7449727 37.3174863,33.7860656 37.415082,33.8348634 C37.4638798,33.8579781 37.5126776,33.8785246 37.5614754,33.899071 L37.7361202,33.9709836 C38.0565742,34.1050399 38.2207323,34.4623909 38.1136612,34.7928415 L38.1136612,34.8262295 L37.9903825,35.1960656 L37.8542623,35.5813115 C37.7618033,35.8381421 37.6616393,36.0949727 37.5614754,36.3518033 C37.3560109,36.8654645 37.1351366,37.3457377 36.9014208,37.8337158 C36.4270502,38.8096546 35.8891174,39.7533964 35.2910929,40.6588525 C35.1395628,40.8797268 35.0060109,41.0851913 34.839071,41.3189071 L34.376776,41.9686885 C34.0660109,42.4001639 33.7449727,42.8316393 33.403388,43.2528415 C33.0618033,43.6740437 32.6996721,44.0901093 32.3118579,44.490765 C31.9152602,44.8955133 31.485733,45.2666249 31.0277049,45.6002732 C30.5519469,45.942734 30.0340151,46.2224172 29.4867213,46.4324044 C29.3474428,46.4869315 29.2050853,46.5332406 29.0603825,46.5710929 C28.9142052,46.6183757 28.7648723,46.6552798 28.6134973,46.6815301 L28.140929,46.7637158 L27.7479781,46.7919672 L27.6503825,46.7919672 L27.2497268,46.7919672 C27.1033333,46.7919672 26.9595082,46.7919672 26.8156831,46.7765574 L26.379071,46.7354645 C26.2352459,46.714918 26.0888525,46.689235 25.9450273,46.6635519 C25.3850996,46.5500205 24.8366502,46.3858295 24.3064481,46.1730055 C23.7927869,45.9726776 23.3202186,45.7646448 22.8553552,45.5977049 C22.4038285,45.4308975 21.9378345,45.3062312 21.4633333,45.2253005 C21.2244809,45.1816393 20.9984699,45.1610929 20.772459,45.1405464 C20.6671585,45.1251366 20.5156284,45.1405464 20.3923497,45.1225683 L20.1945902,45.1225683 L20.0713115,45.1225683 C20.0584699,45.1225683 20.1046995,45.1225683 20.0713115,45.1225683 L20.025082,45.1225683 C19.0591242,45.1290961 18.102202,45.3091715 17.1999454,45.6542077 C16.7376503,45.8237158 16.2676503,46.0343169 15.7591257,46.2397814 C15.2325947,46.4563395 14.6887602,46.6281671 14.133388,46.7534426 C13.8402675,46.8188422 13.5435393,46.8668676 13.2447541,46.8972678 L12.8518033,46.9280874 L12.7721858,46.9280874 L12.6103825,46.9280874 L12.3740984,46.9280874 C11.7555815,46.9039493 11.14652,46.7682156 10.5762842,46.5274317 C10.434221,46.4757254 10.2960363,46.4139285 10.1627869,46.3425137 C10.029235,46.2731694 9.90595628,46.2063934 9.76469945,46.1344809 C9.50786885,45.9778142 9.25103825,45.8262842 9.03273224,45.649071 C8.14066774,44.9670315 7.33512074,44.1787339 6.63393443,43.3016393 C6.28464481,42.8830055 5.95333333,42.4540984 5.63229508,42.0174863 C5.31125683,41.5808743 5.00562842,41.1725137 4.68715847,40.7127869 C4.07092904,39.8086673 3.5149696,38.864909 3.02289617,37.8876503 C2.03323065,35.9486313 1.26806237,33.9030125 0.742240437,31.7904918 C0.197463864,29.6736798 -0.0437994387,27.4902037 0.0256830601,25.3055191 C0.0916711824,23.0405862 0.664768625,20.819285 1.70278689,18.8051366 C3.32103275,15.6974927 6.2111994,13.4476062 9.62087432,12.6412022 C9.90081967,12.5667213 10.1884699,12.5281967 10.4709836,12.4742623 C10.7534973,12.4203279 11.0693989,12.3997814 11.3673224,12.3663934 L11.7602732,12.345847 L11.9580328,12.345847 L12.0556284,12.345847 L12.2020219,12.345847 L12.6591803,12.345847 C12.8107104,12.345847 12.9596721,12.3715301 13.1086339,12.3843716 C13.6899719,12.4482639 14.2647923,12.5616814 14.8268306,12.723388 C15.3764481,12.874918 15.9029508,13.0546995 16.4114754,13.2370492 L17.8754098,13.7943716 C18.1091257,13.8765574 18.3428415,13.9613115 18.5637158,14.0229508 C18.6767213,14.0614754 18.7820219,14.0845902 18.8873224,14.1102732 C18.9361202,14.1102732 19.0003279,14.1410929 19.0362842,14.1462295 L19.144153,14.1642077 C19.2533573,14.1853057 19.3642464,14.1964806 19.4754645,14.1975956 L19.5037158,14.1975956 L19.5602186,14.1975956 L19.673224,14.1975956 C19.7554098,14.1975956 19.8607104,14.1616393 19.9531694,14.1462295 C20.0456284,14.1308197 20.1637705,14.0897268 20.269071,14.0614754 C20.7082514,13.9304918 21.1859563,13.7481421 21.6713661,13.563224 C22.688027,13.1460813 23.7303167,12.7943622 24.7918579,12.5102186 C25.069235,12.4434426 25.346612,12.3766667 25.6368306,12.3304372 C25.9270492,12.2842077 26.2146995,12.2405464 26.5074863,12.2122951 C26.6609136,12.1936651 26.8152389,12.1833767 26.9697814,12.1814754 L27.4474863,12.1686339 L28.2385246,12.2071585 C29.3937237,12.2684466 30.5351604,12.4870564 31.6312568,12.8569399 C32.738603,13.2277537 33.782388,13.7665373 34.7260656,14.4544262 C35.6620907,15.1600283 36.4692646,16.0219406 37.1120219,17.0021858 L37.1608197,17.0766667 C37.4593103,17.5293027 37.3352487,18.1381235 36.8834426,18.4378689 L36.8218033,18.4763934 L36.5649727,18.6253552 L36.3261202,18.7691803 C36.1694536,18.8719126 36.0076503,18.9720765 35.8561202,19.085082 C35.7045902,19.1980874 35.5479235,19.3085246 35.3963934,19.4240984 C35.2448634,19.5396721 35.1036066,19.6680874 34.9546448,19.7887978 C34.8056831,19.9095082 34.6772678,20.0456284 34.5334426,20.1791803 C34.3896175,20.3127322 34.276612,20.4565574 34.1379235,20.5952459 C34.0068165,20.734864 33.8833574,20.8814716 33.7680874,21.0344262 C33.6393986,21.1810481 33.5209755,21.3363711 33.4136612,21.4992896 C33.3134973,21.6610929 33.1953552,21.8151913 33.1054645,21.9846995 L32.833224,22.4983607 C32.7484699,22.6704372 32.6868306,22.8527869 32.6123497,23.0274317 L32.5044809,23.2842623 L32.4274317,23.5539344 C32.3760656,23.7388525 32.3118579,23.9237705 32.270765,24.1061202 L32.178306,24.6531694 C32.1581534,24.7455249 32.1435734,24.8390087 32.1346448,24.9331148 L32.1295082,25.254153 L32.0986885,25.8782514 L32.0986885,25.8422951 L32.0909836,25.8448634 Z" id="Shape" fill="#000000"></path>
            <path d="M18.5714208,9.99584699 C18.4995082,5.30612022 22.5497268,1.23278689 26.8619126,0.541912568 C26.9654359,0.525771391 27.0709476,0.554297674 27.1522344,0.620404349 C27.2335211,0.686511025 27.2829538,0.783993734 27.2882514,0.88863388 C27.511694,4.7410929 25.254153,10.2757923 19.4985792,10.8536612 C19.2593167,10.8730676 19.0228691,10.7913331 18.846668,10.6283105 C18.670467,10.4652879 18.570635,10.235894 18.5714208,9.99584699 Z" id="Shape" fill="#FFFFFF"></path>
            <path d="M17.5518033,9.9547541 L17.5774863,9.62344262 C17.5946864,9.28548796 17.6350176,8.94910853 17.6981967,8.61666667 C17.787236,8.07250819 17.9291654,7.53833737 18.1219672,7.02174863 C18.3637927,6.37271634 18.6737202,5.75113959 19.0465574,5.16743169 L19.3598907,4.68459016 L19.7245902,4.21459016 L19.9120765,3.9757377 L20.1201093,3.74715847 L20.5464481,3.28486339 C21.1795784,2.66436158 21.8730301,2.10856776 22.6165027,1.6257377 C23.4162811,1.12429546 24.2711714,0.716671371 25.1642623,0.410928962 L25.8602732,0.202896175 C26.0965574,0.143825137 26.3379781,0.10273224 26.5768306,0.0513661202 L26.756612,0.0154098361 C26.8890578,-0.0072771038 27.0248378,-0.00114510131 27.1546995,0.0333879781 C27.4322357,0.110049402 27.6576415,0.31262931 27.763388,0.580437158 C27.78899,0.645809067 27.8070841,0.713877391 27.8173224,0.783333333 L27.8173224,0.834699454 L27.8173224,0.932295082 L27.8173224,1.10693989 L27.8173224,1.4536612 C27.8244203,1.57426724 27.8244203,1.69518631 27.8173224,1.81579235 L27.796776,2.19076503 C27.796776,2.44759563 27.7505464,2.68131148 27.7222951,2.92273224 L27.6786339,3.28486339 L27.6092896,3.63928962 C27.5604918,3.87557377 27.5245355,4.11442623 27.4551913,4.34300546 C27.2313248,5.26216332 26.8939995,6.14990703 26.4509836,6.98579235 C26.3379781,7.18868852 26.2429508,7.39928962 26.1119672,7.58934426 L25.7369945,8.1595082 C25.6111475,8.34699454 25.4596175,8.51393443 25.3234973,8.68857923 L25.1154645,8.94540984 C25.0461202,9.03016393 24.9639344,9.10464481 24.8894536,9.18169399 L24.4322951,9.63885246 C24.2730601,9.78010929 24.1061202,9.89568306 23.9443169,10.0369399 C23.6323052,10.2888025 23.3008106,10.5155242 22.9529508,10.7149727 C22.7893268,10.8150006 22.6174863,10.9009208 22.4392896,10.9718033 L21.9461749,11.2003825 C21.7910937,11.2736199 21.6305109,11.3345898 21.4659016,11.3827322 L21.0036066,11.531694 C20.7239886,11.6199573 20.4380896,11.6869246 20.1483607,11.7320219 L19.7656831,11.8039344 L19.5859016,11.8373224 L19.4497814,11.8373224 C19.3924705,11.8406381 19.3350158,11.8406381 19.2777049,11.8373224 L19.1698361,11.8373224 L19.085082,11.8373224 C19.0306229,11.8300257 18.9766068,11.8197369 18.9232787,11.8065027 C18.6383128,11.7373214 18.3740935,11.6008081 18.1527869,11.4084153 C17.9320778,11.2177336 17.7610762,10.9762158 17.6545355,10.7046995 C17.5897641,10.5400424 17.5482716,10.3671569 17.5312568,10.1910383 C17.5312568,10.0728962 17.5312568,10.0112568 17.5312568,10.0112568 L17.5312568,9.9573224 L17.5518033,9.9547541 Z M19.5910383,9.97786885 C19.5952858,9.96188021 19.5952858,9.94505968 19.5910383,9.92907104 C19.5850124,9.90570206 19.5703208,9.88550122 19.5499454,9.87256831 C19.5352233,9.86195507 19.5186858,9.85412149 19.5011475,9.84945355 L19.4677596,9.84945355 L19.4061202,9.84945355 C19.3881421,9.84945355 19.3393443,9.84945355 19.3881421,9.84945355 L19.4086885,9.84945355 L19.5525137,9.83147541 L19.8632787,9.79295082 C20.0970806,9.77536175 20.3290222,9.73842289 20.5567213,9.68251366 L20.9342623,9.59262295 C21.0691929,9.56794462 21.201584,9.53097829 21.3297814,9.48218579 L21.7355738,9.33322404 C21.8795816,9.28859524 22.0189223,9.23010658 22.1516393,9.15857923 C22.4451442,9.02521847 22.7276773,8.86892359 22.996612,8.69114754 C23.1353005,8.59612022 23.281694,8.50879781 23.4229508,8.40606557 L23.8313115,8.06448087 C23.8980874,8.00540984 23.9751366,7.95147541 24.0393443,7.88726776 L24.2319672,7.68693989 C24.3578142,7.55081967 24.4887978,7.43010929 24.6223497,7.27344262 L24.9844809,6.81371585 C25.1128962,6.66218579 25.2053552,6.48240437 25.320929,6.31803279 C25.7699322,5.60862028 26.1158317,4.83899385 26.3482514,4.03224044 C26.4201639,3.82934426 26.4586885,3.61360656 26.512623,3.40300546 L26.5871038,3.08453552 L26.6384699,2.76092896 C26.675951,2.54762228 26.7016729,2.33241572 26.7155191,2.11628415 L26.7386339,1.79781421 L26.7386339,1.63857923 L26.7386339,0.922021858 C26.7371821,0.93396332 26.7371821,0.94603668 26.7386339,0.957978142 C26.757664,1.00686332 26.7985658,1.04396029 26.849071,1.05814208 C26.8619126,1.05814208 26.949235,1.05814208 26.9030055,1.05814208 L26.7437705,1.09409836 C26.5331694,1.14289617 26.32,1.18142077 26.1119672,1.23535519 L25.4955738,1.43054645 C24.707597,1.72974502 23.9623913,2.13127529 23.2791257,2.62480874 C22.6520598,3.09493736 22.0799953,3.63426317 21.5737705,4.23256831 L21.242459,4.67174863 L21.083224,4.88491803 L20.9445355,5.10836066 L20.6722951,5.53983607 L20.4488525,5.97387978 C20.1897079,6.48526381 19.9823555,7.02128259 19.8298907,7.57393443 C19.7203742,7.98308071 19.6447812,8.40056073 19.6038798,8.82213115 C19.5689057,9.10922636 19.5560264,9.39858312 19.5653552,9.68765027 L19.5653552,9.96502732 L19.5910383,9.97786885 Z" id="Shape" fill="#010101"></path>
        </g>
    </g>
</svg>