<svg xmlns="http://www.w3.org/2000/svg" viewBox="0 0 156.47 158.5"><defs><style>.a{isolation:isolate;}.b{fill:#999;opacity:0.51;mix-blend-mode:multiply;}.c{fill:#fff;}.d{fill:#f6a02f;}</style></defs><title>newsletter-mascot</title><g class="a"><path class="b" d="M419.58,247.53c-8.5-5.57-20.91-7.3-30.63-10.1-11.13-3.21-22.31-6.28-33.38-9.66-10.64-3.25-21.23-6.67-31.87-9.92s-21.82-7.62-33-7.79c-7.25-.11-9.69,9.83-3.64,13.45,9.19,5.49,20.53,7.63,30.79,10.34,11.2,3,22.45,5.74,33.65,8.7,10.75,2.83,21.42,6,32.13,9,10.16,2.85,22.16,8.16,32.74,7.88C422.83,259.23,424.84,251,419.58,247.53Z" transform="translate(-283.64 -100.92)"/><path class="c" d="M296.94,110.86c-5.19,3.65-8.32,96.59-8.32,96.59s121.83,43.22,124.81,36.37S434.27,134.6,429,132.71C419.85,129.38,302.48,107,296.94,110.86Z" transform="translate(-283.64 -100.92)"/><path d="M298.09,112.25a5.48,5.48,0,0,0-.26.56,12.52,12.52,0,0,0-.39,1.26c-.24.9-.43,1.86-.61,2.82-.35,1.94-.62,3.92-.87,5.91-.49,4-.85,8-1.18,12-.65,8-1.13,16.12-1.54,24.2q-1.23,24.24-1.81,48.52l-1.87-2.74,22.33,7.56q11.18,3.74,22.39,7.39c14.95,4.85,29.93,9.58,45,13.91,7.51,2.19,15,4.4,22.53,6.18,1.87.46,3.73.88,5.56,1.21.91.16,1.82.3,2.66.38.42,0,.83.07,1.18.07s.68,0,.58,0a1.88,1.88,0,0,0-.82.68,2.51,2.51,0,0,0-.16.26,2.1,2.1,0,0,0-.1.22l.07-.16.07-.18c.13-.35.27-.79.4-1.23.27-.89.52-1.81.77-2.74.49-1.87,1-3.76,1.41-5.66,1.84-7.61,3.33-15.33,4.85-23s2.76-15.47,4-23.22,2.46-15.51,3.53-23.29c.54-3.89,1-7.78,1.43-11.67s.77-7.79.91-11.64c0-1,.05-1.92,0-2.85a15.9,15.9,0,0,0-.22-2.61,2.5,2.5,0,0,0-.11-.4s0,0,0,0a1.08,1.08,0,0,0,.43.35c.24.09,0,0,0,0l-.16-.05-.3-.09-.67-.2c-.91-.25-1.85-.49-2.8-.72-3.79-.92-7.63-1.75-11.46-2.57-7.68-1.64-15.39-3.15-23.11-4.63q-23.16-4.43-46.42-8.34c-7.75-1.3-15.51-2.53-23.27-3.62-3.88-.54-7.77-1-11.65-1.45-1.94-.21-3.88-.37-5.8-.45-1,0-1.91-.06-2.83,0-.46,0-.91,0-1.31.08a4.58,4.58,0,0,0-.53.09c-.12,0-.27.11,0,0Zm-2.19-2.87a3.76,3.76,0,0,1,1.33-.56c.35-.09.64-.12.93-.18.57-.11,1.11-.16,1.64-.27,1.06-.18,2.09-.31,3.11-.43a25,25,0,0,1,6,.22c4,.44,7.89,1,11.8,1.56,7.81,1.27,15.56,2.7,23.3,4.21l46.44,8.76c7.74,1.47,15.47,3,23.18,4.59,3.86.81,7.71,1.63,11.58,2.55,1,.23,1.93.47,2.92.74l.75.22.4.13.19.06a2.32,2.32,0,0,1,.36.15,2.45,2.45,0,0,1,1,.85,3.5,3.5,0,0,1,.35.66,5.84,5.84,0,0,1,.3,1,18.93,18.93,0,0,1,.3,3.26c0,1,0,2,0,3-.31,8-1.33,15.82-2.25,23.67s-2.08,15.64-3.25,23.43-2.45,15.57-3.72,23.35S420,226,418.64,233.76c-.35,2-.71,3.9-1.11,5.87-.2,1-.41,2-.65,3-.12.51-.25,1-.43,1.6,0,.13-.1.32-.18.52l-.07.19a4.09,4.09,0,0,1-.18.38,3.52,3.52,0,0,1-.26.42,4.18,4.18,0,0,1-2,1.47,8.28,8.28,0,0,1-2.33.41c-.64,0-1.21,0-1.77,0-1.12-.05-2.16-.16-3.2-.29-2.06-.27-4.05-.62-6-1-3.95-.77-7.8-1.77-11.64-2.76s-7.66-2-11.44-3.18c-15.14-4.56-30.11-9.49-45-14.54s-29.72-10.44-44.52-15.87l-.06,0a2.6,2.6,0,0,1-1.7-2.56q.57-12.18,1.29-24.32c.47-8.1,1-16.2,1.55-24.3s1.17-16.2,2-24.3c.4-4,.84-8.1,1.4-12.15.29-2,.6-4.06,1-6.1.21-1,.43-2,.73-3.1a15.91,15.91,0,0,1,.55-1.63,7.75,7.75,0,0,1,.43-.9,4.78,4.78,0,0,1,.35-.53,3.36,3.36,0,0,1,.35-.39l.12-.11.07-.06Z" transform="translate(-283.64 -100.92)"/><path d="M301,113.05l.23.43c.16.29.37.64.69,1.18.62,1,1.63,2.55,2.93,4.46s3,4.2,4.85,6.82,4.09,5.55,6.51,8.73c4.84,6.35,10.65,13.66,17,21.33,3.16,3.86,6.48,7.8,9.92,11.72,1.7,2,3.44,3.93,5.22,5.84.88,1,1.77,1.9,2.67,2.79a24.87,24.87,0,0,0,2.62,2.33c.15.11.38.23.25.17l-.05,0-.19,0h.06c.18,0-.07,0-.19,0s-.06,0,0,0a7,7,0,0,0,1.32-.3,35,35,0,0,0,3.44-1.29c2.34-1,4.69-2.15,7-3.32,4.62-2.37,9.15-4.81,13.49-7.26,8.69-4.89,16.72-9.64,23.56-13.78s12.5-7.66,16.33-10.27c1.92-1.3,3.41-2.33,4.37-3.07a17.52,17.52,0,0,0,1.4-1.15,1.14,1.14,0,0,1,1.65,1.57l0,0a20.33,20.33,0,0,1-1.45,1.43c-1,.87-2.37,2.1-4.23,3.54-3.73,2.9-9.11,6.92-15.77,11.44-3.32,2.27-6.95,4.7-10.83,7.19s-8,5.1-12.31,7.69-8.81,5.24-13.53,7.73c-2.36,1.25-4.76,2.48-7.3,3.61a40.52,40.52,0,0,1-4,1.58,12.39,12.39,0,0,1-2.58.58,6,6,0,0,1-1,0,5.47,5.47,0,0,1-.69-.11h-.06a2,2,0,0,1-.31-.09l-.29-.11a7.49,7.49,0,0,1-1.48-.83,29.56,29.56,0,0,1-3.39-3c-1-1-1.95-2-2.87-3-1.84-2-3.6-4-5.31-6.06-3.4-4.08-6.62-8.18-9.69-12.16-6.09-8-11.55-15.66-16.13-22.28-2.29-3.31-4.35-6.38-6.12-9.14s-3.27-5.2-4.44-7.26-2-3.73-2.56-4.91c-.27-.57-.48-1.09-.59-1.38l-.17-.46a1.14,1.14,0,0,1,2.07-.95Z" transform="translate(-283.64 -100.92)"/><path class="d" d="M416.31,102.37c-8.72-1.78-18,2.62-23.37,9.74s-7.09,16.49-6.2,25.34a20.61,20.61,0,0,0,1.86,7.29,18.57,18.57,0,0,0,3.73,4.83c6.94,6.74,17.26,10,26.69,7.89s17.49-10,19.2-19.54c1.24-6.89-.71-14-3.86-20.28-4-7.9-11.12-15.41-20-15.32" transform="translate(-283.64 -100.92)"/><path d="M416.46,101.85c-11.39-3.86-23.28,4.9-28,14.87-4.82,10.23-5.83,25.46,2.77,33.94,8.34,8.21,21.58,11.48,32.51,6.88a26.45,26.45,0,0,0,16.07-28.28c-1.75-12.23-11.29-28.76-25.42-28.32a1.38,1.38,0,0,0,0,2.77c14.29,1.51,23.87,18.9,22.48,32.28-1.41,13.54-15,22.35-28,20.25a28.78,28.78,0,0,1-16.51-8.84c-4.85-5.36-4.95-13.74-3.86-20.54,2.34-14.58,13.14-23.92,27.81-23.93a.54.54,0,0,0,.14-1.06Z" transform="translate(-283.64 -100.92)"/><path d="M417.6,115.34l-.06-1a.82.82,0,0,0-1-.78c-9.07,2-15.46,10-16.27,19.2-.34,3.84,0,9.22,3,12s7.89,2,11.33.64c6.69-2.59,10.29-13.41,3.39-18.08-5.91-4-15,2.53-14.92,9a.77.77,0,0,0,1.42.38c2.44-3.74,9.69-11.86,13.25-4.85,4.31,8.48-10,17-13.9,8.06-2-4.55-.31-11.31,2.06-15.33.76-1.29,8.86-11,11-8.94a.39.39,0,0,0,.66-.27Z" transform="translate(-283.64 -100.92)"/></g></svg>