<?xml version="1.0" encoding="UTF-8"?>
<svg width="300px" height="300px" viewBox="0 0 300 300" version="1.1" xmlns="http://www.w3.org/2000/svg" xmlns:xlink="http://www.w3.org/1999/xlink">
    <!-- Generator: Sketch 49.3 (51167) - http://www.bohemiancoding.com/sketch -->
    <title>server-side-swift-mascot</title>
    <desc>Created with Sketch.</desc>
    <defs></defs>
    <g id="server-side-swift-mascot" stroke="none" stroke-width="1" fill="none" fill-rule="evenodd">
        <g id="server-side-swift" transform="translate(3.000000, 31.000000)" fill-rule="nonzero">
            <path d="M269.930005,110.055882 C271.8362,105.390412 272.814869,100.399206 272.811452,95.3605215 C272.811452,72.6807124 254.265244,54.4718333 231.195571,54.4718333 C227.066151,54.4580301 222.961158,55.1044883 219.036496,56.3866559 C206.877421,25.0811129 175.841925,4 141.603816,4 C95.8489641,4 58.4127648,40.7384005 58.4127648,85.7773763 C58.3601995,87.6992767 58.4676241,89.6222155 58.7339308,91.5263602 C26.7349369,99.8314516 4,128.580887 4,161.485126 C4,201.416403 36.9579686,234 77.5922579,234 L218.407734,234 C259.042024,234 291.999992,201.416403 291.999992,161.485126 C292.009039,142.00271 283.997982,123.793831 269.930005,110.055882 Z" id="Shape" fill="#FFFFFF"></path>
            <path d="M267.798143,109.401804 C268.124185,108.452607 268.359659,107.670649 268.613247,106.784731 C268.866836,105.898813 269.066083,105.040015 269.233633,104.167657 C269.588705,102.422329 269.814227,100.65322 269.908358,98.8747507 C269.95817,97.970753 269.962699,97.0983952 269.949114,96.2079575 L269.949114,95.602279 C269.950012,95.6203478 269.950012,95.63845 269.949114,95.6565188 L269.949114,95.611319 L269.908358,94.8926408 C269.881188,94.4406419 269.858546,93.9208432 269.822319,93.4643244 C269.656514,91.7248686 269.379722,89.9977401 268.99363,88.2934574 C268.595309,86.5762427 268.080918,84.8879296 267.453987,83.2401102 C266.833743,81.5971572 266.090502,80.0031264 265.230563,78.4715222 C264.827539,77.6940841 264.324891,76.966366 263.872055,76.2115279 C263.419219,75.4566898 262.898457,74.7560915 262.355054,74.0690533 C261.811651,73.382015 261.272776,72.7130567 260.715788,72.0214984 C260.430501,71.6915393 260.127101,71.3751401 259.837286,71.0497009 L259.38445,70.5660621 L258.931614,70.1140632 C257.703795,68.8721549 256.387096,67.7210404 254.991941,66.6698319 C253.602832,65.6180108 252.144429,64.6606264 250.626602,63.8041591 C249.110074,62.9478063 247.538301,62.1928172 245.921636,61.5441648 C244.295256,60.9142841 242.631741,60.3844529 240.940441,59.9576488 C240.519303,59.8491691 240.093637,59.7723293 239.667971,59.6728896 C239.242306,59.5734498 238.821168,59.48757 238.390974,59.4242902 L237.10492,59.2118507 L235.809809,59.0626911 C235.356973,59.0039313 234.944892,58.9677713 234.51017,58.9451714 L233.21053,58.8592916 L231.906363,58.8366917 L231.285977,58.8366917 L230.570497,58.8366917 L229.959168,58.8366917 L229.311613,58.8728516 C228.858777,58.8999715 228.451224,58.9316114 228.02103,58.9768113 C227.163661,59.0611844 226.310819,59.1756908 225.462507,59.3203305 C223.772554,59.5999826 222.107084,60.0110466 220.481311,60.5497674 C218.359983,61.259294 216.053094,60.1893676 215.228414,58.1134935 L215.228414,58.0773336 C213.52887,53.7789212 211.454461,49.6377737 209.029089,45.7016048 C206.597347,41.7511662 203.805062,38.0334882 200.68785,34.5959928 C197.582737,31.1411485 194.172742,27.9719342 190.499041,25.1266167 C183.145581,19.401543 174.838805,15.0148478 165.959859,12.1678093 C161.533467,10.7329879 156.986808,9.698266 152.374779,9.07613712 L150.644946,8.8456177 L148.910584,8.67837812 C147.755852,8.54729845 146.592064,8.50209857 145.432804,8.42977875 C144.853174,8.38457886 144.273544,8.37553889 143.689385,8.36649891 L141.945967,8.330339 L141.60634,8.330339 L141.153504,8.330339 L140.247832,8.330339 L138.413846,8.37553889 L137.508174,8.39813883 L136.661371,8.46593866 L134.967764,8.59701833 C134.401719,8.6467382 133.844731,8.66029817 133.265101,8.74165796 L131.535267,8.95861742 L129.805434,9.17557687 C129.230332,9.26145665 128.659759,9.37445637 128.089186,9.47389612 C126.948039,9.68181559 125.793307,9.84905517 124.665746,10.1338145 C120.115393,11.1041871 115.662433,12.4838986 111.361425,14.2560441 C102.741616,17.8100652 94.8072754,22.834423 87.9135774,29.1042066 C77.5363651,38.5242878 69.8933575,50.5609282 65.7880114,63.9487988 C64.4243973,68.3840324 63.4828586,72.9377404 62.9758999,77.5494445 C62.7494819,79.8546387 62.5547625,82.1688729 62.5230639,84.492147 C62.5230639,85.0797455 62.4823087,85.6402241 62.4823087,86.2459026 C62.4823087,86.851581 62.4823087,87.4301396 62.4823087,87.9860982 C62.4912229,89.0135975 62.5729373,90.0391806 62.7268401,91.0551704 C63.0601065,93.1309079 61.7645995,95.1213629 59.7290659,95.6610388 C39.4099475,100.903639 22.5552561,115.035673 13.8748945,134.108062 C11.7556293,138.806068 10.1801434,143.730027 9.17898534,148.784465 C8.67408077,151.307789 8.31724232,153.858391 8.11029242,156.423246 C8.02878195,157.706922 7.92462967,158.990599 7.92010131,160.278796 L7.92010131,161.246073 L7.92010131,161.729712 L7.92010131,162.136511 L7.96538491,164.179546 L7.98802671,165.201064 C7.98802671,165.540063 8.03331031,165.833862 8.05142375,166.150261 L8.1918029,168.021536 C8.22350142,168.640775 8.31406862,169.282613 8.39557909,169.919932 L8.63558216,171.836407 C8.83030163,173.106524 9.08841814,174.37212 9.30577942,175.642237 L9.7586154,177.522552 C9.91257963,178.146311 10.030317,178.783629 10.2114514,179.398348 C11.5585254,184.380407 13.4617939,189.195736 15.8854862,193.753832 C18.3128765,198.319412 21.2574846,202.591665 24.6614475,206.486639 C28.0534744,210.411448 31.8716353,213.948164 36.0457441,217.031773 C40.2296155,220.091566 44.7346877,222.687765 49.4813877,224.774513 L50.3870596,225.172272 L51.2927316,225.529351 L53.1040755,226.23899 C54.3131476,226.690989 55.5539182,227.079708 56.7811037,227.504586 C58.0264026,227.852626 59.2717016,228.232305 60.5260573,228.548704 L62.4189117,229.000703 C63.0483537,229.149862 63.682324,229.299022 64.3208228,229.398462 C65.5978202,229.615421 66.8702894,229.89114 68.1608719,230.02674 L70.0899532,230.275339 C70.7329803,230.365739 71.3850641,230.388339 72.0280912,230.447099 L73.9707575,230.600779 L75.9179523,230.659539 C76.5700361,230.659539 77.2040064,230.700218 77.8787321,230.709258 L79.9255507,230.709258 L96.2729296,230.740898 L129.035613,230.822258 L194.538338,230.989498 L210.921943,231.052778 L214.997467,231.052778 L217.044286,231.052778 L218.538645,231.052778 L219.050349,231.052778 L221.097168,231.012098 L222.120577,231.012098 C222.460204,231.012098 222.763604,230.966898 223.085118,230.948818 C224.362115,230.840338 225.616471,230.808698 226.925167,230.618859 C237.354657,229.45654 247.39156,225.980156 256.300637,220.444364 C265.2416,214.925329 272.824938,207.470323 278.4896,198.630899 L279.028475,197.812781 L279.526595,196.967543 L280.522834,195.277068 C281.165861,194.138031 281.754548,192.971874 282.361348,191.810236 L283.185509,190.029361 C283.457211,189.432722 283.751554,188.849644 283.982501,188.221365 C284.457978,187.005489 285.001382,185.812212 285.404406,184.564695 C287.164032,179.631696 288.358077,174.51559 288.963696,169.314253 C289.117661,168.012496 289.190114,166.70622 289.307852,165.399943 L289.371249,163.438268 L289.402947,162.45743 L289.402947,161.964752 L289.402947,161.865312 C289.402947,161.761352 289.402947,161.865312 289.402947,161.811072 L289.402947,161.548913 L289.357664,159.505878 C289.357664,158.82788 289.357664,158.149881 289.276153,157.508043 C289.162944,156.224366 289.131246,154.963289 288.931998,153.652493 C288.328303,148.441729 287.127996,143.317246 285.354594,138.379451 C281.700681,128.467894 275.897307,119.484895 268.359659,112.073117 C267.67777,111.396697 267.442208,110.391268 267.752859,109.483164 L267.798143,109.401804 Z M273.037455,109.731763 C280.641653,117.357309 286.551171,126.496278 290.381073,136.553376 C292.357395,141.864757 293.715754,147.385214 294.429427,153.006134 C294.646788,154.393771 294.714713,155.858247 294.841507,157.291083 C294.913961,158.027842 294.91849,158.69228 294.941131,159.374798 L295,161.417833 L295,161.675472 C295,161.702592 295,161.896952 295,161.878872 L295,162.009952 L295,162.53879 L294.977358,163.600988 L294.927546,165.725382 C294.814337,167.135619 294.746412,168.550375 294.592448,169.960612 C293.984355,175.602077 292.737121,181.156489 290.874664,186.51733 C290.448998,187.873326 289.873897,189.170563 289.36672,190.49492 C289.117661,191.159358 288.809732,191.796676 288.519917,192.447555 L287.636887,194.38663 C286.989331,195.647707 286.359889,196.922344 285.671579,198.16082 L284.607414,200.004976 L284.073068,200.908974 L283.497966,201.812971 C277.421785,211.461961 269.250482,219.624337 259.588226,225.696591 C249.93019,231.807176 239.025557,235.685001 227.672346,237.046282 C226.277611,237.258722 224.801366,237.326522 223.356819,237.448561 C222.999079,237.471161 222.623225,237.511841 222.27907,237.525401 L221.25566,237.557041 L219.208842,237.615801 L218.697137,237.615801 L217.080513,237.615801 L215.033694,237.615801 L210.95817,237.615801 L194.538338,237.710721 L129.012971,237.87796 L96.2502878,237.95932 L79.866682,238 L77.8198634,238 C77.1270243,238 76.39343,237.97288 75.6824776,237.95932 L73.536035,237.90508 L71.3941208,237.751401 C70.67864,237.688121 69.9631591,237.670041 69.2522066,237.570601 L67.1193491,237.308442 C65.6929158,237.163802 64.2891243,236.856443 62.876276,236.634963 C62.1698519,236.526484 61.4679561,236.363764 60.7705887,236.182965 L58.6739581,235.730966 C57.2837516,235.382927 55.9071302,234.980648 54.5259805,234.596449 C53.1674726,234.14445 51.8089646,233.719571 50.4504567,233.217852 L48.4443933,232.440414 L47.4436258,232.051695 L46.4609717,231.599696 C41.1926735,229.316919 36.1894568,226.467554 31.5400261,223.102118 C26.8973708,219.718726 22.644915,215.83189 18.8606186,211.512867 C15.0576797,207.202001 11.7621785,202.470348 9.03860619,197.410502 C6.31136752,192.345406 4.16350125,186.990216 2.63550541,181.445903 C2.41814414,180.758864 2.27776499,180.053746 2.10568731,179.357668 L1.63020953,177.278473 C1.3630363,175.868237 1.08680636,174.45348 0.860388364,173.034204 L0.575101696,170.905289 C0.48000614,170.191131 0.380382224,169.486013 0.335098626,168.740215 L0.163020953,166.53446 C0.140379154,166.172861 0.0996239159,165.788662 0.0860388364,165.445143 L0.0588686776,164.423625 L0,162.380591 L0,161.765872 L0,161.227994 L0,160.147716 C0,158.71036 0.113208995,157.273004 0.203776192,155.840167 C0.427888649,152.970728 0.819502186,150.116782 1.37662138,147.292869 C2.48973725,141.63814 4.24603888,136.128756 6.61140533,130.87175 C16.2467986,109.55023 35.0266843,93.7226752 57.7003607,87.8143386 L54.7025865,92.424727 C54.4812617,91.026393 54.360198,89.6140757 54.3403178,88.1985377 C54.3403178,87.5340993 54.3403178,86.8922609 54.3403178,86.2775425 C54.3403178,85.662824 54.3674879,85.0029057 54.381073,84.3655873 C54.381073,81.7982338 54.607491,79.2354002 54.833909,76.6816067 C55.3844761,71.5701371 56.4154439,66.5216804 57.9131936,61.6029247 C62.4015604,46.7738427 70.8316986,33.4358294 82.307468,23.006742 C89.9162733,16.0740919 98.6767488,10.5173363 108.196101,6.5856234 C112.949454,4.62360056 117.870643,3.09415033 122.899685,2.01591492 C124.149513,1.7040357 125.417453,1.51419618 126.685394,1.28367676 C127.319364,1.17519704 127.948807,1.05315734 128.582777,0.958237584 L130.493745,0.7141582 L132.404713,0.474598804 C133.038683,0.38871902 133.70888,0.361599088 134.360964,0.307359225 L136.326272,0.16271959 L137.308926,0.0903997721 L138.214598,0.0677998291 L140.048584,0.022599943 L140.954256,0 L141.407092,0 L142.009364,0 L143.938445,0.0361599088 C144.581472,0.0361599088 145.224499,0.0361599088 145.862998,0.103959738 C147.144524,0.180799544 148.430578,0.230519419 149.707575,0.375159054 L151.6276,0.560478587 L153.538568,0.813597949 C158.637299,1.49759642 163.664294,2.6366768 168.559137,4.21714937 C178.374544,7.35569375 187.559476,12.1951852 195.693069,18.5138733 C199.758901,21.6582454 203.534066,25.1601927 206.973214,28.9776469 C210.434121,32.7888341 213.535591,36.9104306 216.238238,41.2900959 C218.948678,45.6696224 221.252621,50.2871457 223.121345,55.0851011 L217.854862,52.6126674 C219.89336,51.9418605 221.981249,51.4310541 224.09947,51.0849112 C225.153069,50.916165 226.209686,50.7850853 227.269322,50.6916722 C227.79914,50.6464723 228.328958,50.6103124 228.858777,50.5786725 L229.655768,50.5425126 L230.488986,50.5425126 L231.643718,50.5425126 L232.037685,50.5425126 L233.618083,50.5877125 L235.203009,50.6735923 L235.990943,50.7368721 L236.778878,50.8363118 L238.350219,51.0442313 L239.907975,51.3289906 C240.428736,51.4148704 240.944969,51.5323901 241.456674,51.6544298 C241.968378,51.7764695 242.48914,51.8849492 242.996316,52.0250688 C247.08795,53.1036668 251.006087,54.754764 254.634201,56.9292565 C256.444106,58.0069843 258.172523,59.2155458 259.805588,60.5452474 C261.442512,61.8670226 262.981632,63.3051086 264.410929,64.8482765 L264.949804,65.4223151 L265.466037,66.0189536 C265.805664,66.4212326 266.154348,66.8144716 266.48039,67.2212705 C267.123417,68.0529484 267.780029,68.8710664 268.364188,69.7434242 C268.948346,70.615782 269.514391,71.4971798 270.071379,72.3830975 C270.628367,73.2690153 271.112902,74.191093 271.556681,75.1493305 C272.494695,77.0233747 273.290891,78.9648577 273.938599,80.9575159 C274.596537,82.9350559 275.102166,84.9598752 275.451071,87.0143006 C275.791852,89.0881802 275.991557,91.1827122 276.048814,93.2835248 C276.048814,93.7852436 276.048814,94.2508024 276.048814,94.7389612 L276.048814,95.7288387 L276.048814,95.9231982 L276.048814,96.3119172 C275.994474,97.3424746 275.917492,98.377552 275.786169,99.4035894 C275.534776,101.455275 275.126024,103.484681 274.563512,105.473934 C274.261622,106.462305 273.941617,107.437116 273.6035,108.398367 C273.422365,108.832286 273.218589,109.279765 273.037455,109.731763 Z" id="Shape" fill="#010101"></path>
            <path d="M221.265507,191.114581 C225.264066,178.287632 222.676498,162.705903 210.067735,150.989022 C216.924342,117.487624 208.850586,95.5490562 178.259574,70.1262344 C175.744133,68.0193707 170.068612,64.0774967 171.362396,67.0996001 C179.742693,86.5099314 182.447468,102.671615 177.001853,121.923365 C169.153496,118.973756 129.573613,96.8041127 105.613809,70.8466458 C103.747514,75.2506706 112.583114,92.3638408 130.948541,113.459663 C114.269091,104.157747 104.243389,96.99441 91.8645329,86.3875973 C90.2642073,85.0283305 85.1025938,81.7524972 86.301711,83.5557913 C98.9645689,102.821134 114.066233,130.713291 150.864705,149.684126 C154.444025,151.523667 154.52066,153.857075 152.009727,155.121193 C130.335458,165.882056 108.543983,167.68082 76.7268053,148.918405 C74.9236215,147.885363 74.4728256,148.383761 75.6584189,150.105499 C98.058469,182.610101 133.811095,205.740293 179.999646,187.666574 C196.038966,178.822277 209.066968,177.245528 219.692229,191.381903 C220.273755,192.106846 220.995029,192.034351 221.265507,191.114581 Z" id="Shape" fill="#EE813E"></path>
            <path d="M224.366435,190.974763 C224.175717,191.552306 223.830234,192.067287 223.367111,192.464364 C222.993011,192.762578 222.540441,192.947487 222.063447,192.997009 C221.619593,193.058221 221.167376,192.992458 220.759784,192.807423 C220.466755,192.670356 220.195807,192.490855 219.955783,192.274778 L219.801342,192.121304 L219.687782,191.96783 L219.610562,191.891093 L219.574223,191.850468 L219.497002,191.737619 L219.042764,191.204974 C218.437113,190.479734 217.822378,189.793615 217.198558,189.146617 C215.922385,187.855563 214.52108,186.692852 213.015025,185.675395 C211.544706,184.69337 209.942036,183.922886 208.25461,183.386827 C206.589351,182.871233 204.856791,182.602025 203.112634,182.587859 C201.332205,182.557296 199.554386,182.736086 197.816218,183.120504 C196.934996,183.31009 196.049232,183.540301 195.16801,183.770512 C194.286788,184.000723 193.401024,184.303157 192.556141,184.610105 C190.80526,185.259628 189.089019,185.997873 187.414166,186.821937 C185.7244,187.620904 184.075516,188.537235 182.38575,189.453565 C182.272191,189.489676 182.19497,189.566413 182.076868,189.607039 L182.040529,189.607039 C180.223577,190.293158 178.433879,190.961221 176.589672,191.588659 C174.745466,192.216097 172.86492,192.7352 170.984374,193.22722 C169.103829,193.71924 167.223283,194.179662 165.265517,194.522721 C164.307074,194.712307 163.34409,194.865781 162.385647,195.019255 C161.427205,195.172729 160.468763,195.326203 159.469439,195.40294 C155.587044,195.879999 151.674508,196.07161 147.763723,195.976211 C145.805957,195.899474 143.848191,195.786625 141.931306,195.592526 C140.014421,195.398426 138.056655,195.095992 136.135228,194.752932 C128.485184,193.279834 121.09852,190.682923 114.21824,187.047634 C107.416259,183.431049 101.086803,178.998304 95.3719021,173.848868 C92.532914,171.293977 89.8074855,168.621723 87.2319555,165.80051 C84.6564256,162.979296 82.1899127,160.117457 79.8369594,157.102144 C78.6831947,155.612543 77.5339723,154.086831 76.4574281,152.525007 L74.8403405,150.195813 C74.6858995,149.965602 74.5314586,149.744419 74.3861024,149.469069 C74.1865975,149.156514 74.0550811,148.805949 74,148.43989 C74.0416442,148.304063 74.0555437,148.161335 74.0408814,148.020093 C74.0535797,147.745304 74.1467228,147.480175 74.3088819,147.257237 C74.4038679,147.124527 74.5205567,147.008569 74.6541028,146.914178 C74.9349656,146.722115 75.2721697,146.628416 75.6125452,146.647855 C75.8464759,146.657218 76.0783617,146.695118 76.3029871,146.760703 C76.4653526,146.793985 76.6196388,146.858379 76.7572252,146.950289 C76.8881008,147.00587 77.0155148,147.069178 77.1387852,147.139875 C77.2501138,147.209582 77.365377,147.272881 77.4840061,147.32946 L78.0972276,147.67252 L79.3236704,148.358639 L80.5501132,149.044758 L81.7765561,149.730877 C83.4254403,150.633666 85.078867,151.486801 86.7277513,152.326394 C90.073795,153.963156 93.5085607,155.414357 97.016244,156.67332 L99.664452,157.576108 L102.31266,158.375076 C103.193882,158.605287 104.129612,158.871609 105.00175,159.061195 C105.873887,159.25078 106.818702,159.480991 107.727178,159.634465 C111.342234,160.375523 115.016231,160.796966 118.706113,160.893855 C122.36538,160.94037 126.02148,160.660893 129.630539,160.058776 C136.848382,158.799386 143.711919,156.167758 150.243863,152.809385 L151.511187,152.159378 C151.624327,152.114253 151.728811,152.050123 151.820069,151.969792 C151.867986,151.943719 151.907391,151.90456 151.933629,151.856944 L151.89729,151.893055 C151.839556,151.986985 151.800971,152.09128 151.78373,152.200003 C151.745315,152.31117 151.745315,152.431896 151.78373,152.543063 C151.781558,152.583828 151.794485,152.623973 151.820069,152.655911 L151.511187,152.348963 C151.287774,152.168132 151.042006,152.016437 150.779864,151.897569 L148.322436,150.678805 C147.441214,150.259008 146.596331,149.839212 145.751449,149.383304 C144.906566,148.927396 144.025344,148.507599 143.2168,148.029121 L140.704863,146.575632 C139.859981,146.124238 139.055979,145.582565 138.247435,145.086031 C131.653284,141.064987 125.477153,136.403297 119.809911,131.169549 C114.159556,125.931301 108.936101,120.256039 104.188663,114.197128 C99.3510277,108.247752 95.1674949,101.874067 91.0975217,95.5048947 C89.062535,92.3451354 87.1047689,89.0950974 85.1470027,85.9669357 L84.3793403,84.779769 C84.2936676,84.657105 84.2162772,84.5289286 84.1476789,84.396084 L83.993238,84.089136 C83.9308313,83.9271779 83.8792391,83.7613069 83.838797,83.5926024 C83.7621851,83.2410567 83.7498759,82.8786775 83.802458,82.5227982 C83.9042049,81.7760749 84.305617,81.102017 84.9153413,80.6540263 C85.3130756,80.3578636 85.7838631,80.1738466 86.2780555,80.1213811 C86.4942945,80.0820596 86.7159194,80.0820596 86.9321584,80.1213811 C87.2733805,80.157844 87.6089197,80.2351411 87.9314822,80.3515922 C88.1222622,80.4283292 88.3175846,80.5050662 88.4674831,80.5818032 C89.0443655,80.8481258 89.503146,81.1144483 89.9664688,81.3807709 C90.4151996,81.6382741 90.8503271,81.9185075 91.2701321,82.2203641 C91.6943321,82.4903761 92.1037286,82.7826934 92.496575,83.0960688 C92.9190164,83.4030168 93.3005764,83.7054509 93.7638992,84.089136 L95.9124454,85.9579078 C98.7150944,88.4360619 101.554082,90.8781044 104.433952,93.2072983 C105.892056,94.3899511 107.35016,95.5319783 108.808265,96.6785195 C110.266369,97.8250608 111.765355,98.9354904 113.300679,100.036892 C114.836004,101.138294 116.33499,102.212612 117.870315,103.277902 C119.405639,104.343193 120.940964,105.412997 122.512628,106.437662 C125.660498,108.496019 128.808368,110.55889 131.992577,112.540511 L131.111355,113.610315 C130.307353,112.924196 129.49881,112.197451 128.731147,111.475221 C127.963485,110.75299 127.195823,109.98562 126.459957,109.263389 C125.724091,108.541159 124.960971,107.737677 124.23419,106.974821 C123.507409,106.211965 122.776086,105.412997 122.085644,104.609515 L120.014318,102.208098 C119.323877,101.409131 118.651604,100.569537 118.020213,99.7299442 L116.062447,97.2111647 C115.449226,96.33546 114.795123,95.4958668 114.181901,94.6156482 C113.56868,93.7354295 112.991798,92.8597248 112.364949,91.9433946 C111.7381,91.0270645 111.211184,90.1378179 110.675183,89.2350296 C109.598639,87.4023692 108.562976,85.4974858 107.640873,83.5113514 C107.186635,82.5182842 106.759651,81.529731 106.373549,80.4960383 C105.987446,79.4623456 105.683107,78.4376809 105.374225,77.3678767 C105.064264,76.2853777 104.870885,75.1732233 104.797342,74.0501295 C104.751999,73.4650391 104.764169,72.8769492 104.833681,72.2942061 C104.883156,71.6476592 105.080459,71.0208591 105.410564,70.4615457 C105.417766,70.1479495 105.671874,69.8954322 105.987446,69.8882751 C106.147685,69.8945878 106.299173,69.9625737 106.409888,70.0778607 L106.600668,70.2674463 L108.481213,72.2490667 C109.094435,72.8990743 109.784877,73.544568 110.40264,74.1945756 C111.020404,74.8445832 111.706304,75.4900769 112.360407,76.103973 C113.014509,76.717869 113.66407,77.3633627 114.354512,78.0088564 L116.389498,79.8776283 L118.460824,81.7102886 C119.823538,82.9290529 121.222592,84.1117057 122.644357,85.2943584 C124.066122,86.4770111 125.483345,87.6235524 126.941449,88.7655796 C128.399554,89.9076069 129.821319,91.0225505 131.315762,92.1600638 C132.047085,92.7333344 132.773866,93.2659796 133.541529,93.7986247 C134.309191,94.3312698 134.999633,94.9045404 135.767295,95.4371856 L140.25971,98.6420842 C141.758696,99.7118884 143.29402,100.741067 144.829345,101.770246 C145.597008,102.302891 146.36467,102.799425 147.132332,103.295958 C147.899995,103.792492 148.667657,104.325137 149.435319,104.821671 C152.54685,106.843916 155.653839,108.789425 158.801709,110.658197 C160.373373,111.610639 161.981375,112.526969 163.562124,113.443299 C165.142873,114.359629 166.741791,115.27596 168.39976,116.151664 C170.057729,117.027369 171.62485,117.907588 173.273734,118.706555 C174.922619,119.505523 176.576045,120.345116 178.224929,120.995124 L177.316453,121.446518 C177.90609,118.253453 178.329097,115.032212 178.583778,111.795711 C178.738219,110.193261 178.774558,108.590812 178.815439,106.988363 C178.85632,105.385913 178.815439,103.783464 178.738219,102.22164 C178.559846,99.0424799 178.188207,95.8769451 177.625335,92.7423623 C177.357335,91.1805385 176.971232,89.6503122 176.589672,88.0884884 C176.208112,86.5266645 175.785671,84.9964382 175.322348,83.4707259 C174.859025,81.9450136 174.363906,80.4193013 173.823362,78.9297005 C173.282819,77.4400997 172.746818,75.9143874 172.133597,74.4157587 C171.520375,72.9171301 170.943493,71.4410711 170.28939,69.9514703 L169.821525,68.8771522 L169.589863,68.3038816 C169.553524,68.2271446 169.476304,68.0736705 169.399083,67.884085 C169.303335,67.6513179 169.239178,67.4069251 169.208303,67.1573404 C169.109602,66.6925272 169.097286,66.2136935 169.171964,65.7444766 C169.183644,65.6391659 169.209621,65.5359118 169.249185,65.4375286 C169.285524,65.32468 169.326405,65.247943 169.362744,65.1305805 C169.399083,65.013218 169.476304,64.9003695 169.517185,64.7875209 C169.558067,64.6746724 169.630745,64.5573099 169.707965,64.4444614 C169.867959,64.2014694 170.062236,63.9825664 170.284848,63.7944538 C170.496781,63.6181312 170.728457,63.4666673 170.97529,63.3430596 C171.323295,63.1715073 171.700975,63.0673381 172.088173,63.0361115 L172.319834,63 L172.855835,63 C173.142944,63.0147461 173.426927,63.066332 173.700718,63.153474 C174.041696,63.2437935 174.375671,63.3584444 174.700042,63.4965336 C174.968042,63.6093821 175.199704,63.7267446 175.431365,63.8395932 C176.339841,64.3361268 177.08025,64.7920349 177.847912,65.2885685 C178.615574,65.7851021 179.306016,66.3177472 179.996458,66.8503923 C180.341679,67.1167149 180.6869,67.3830375 181.032121,67.6899855 L181.990563,68.4889532 L183.907448,70.1275141 C186.442097,72.303234 188.935864,74.5918025 191.35241,76.8984267 C193.768957,79.205051 196.071944,81.7418862 198.261372,84.2967773 C200.470749,86.8902172 202.534605,89.6026959 204.443552,92.4218725 C206.362746,95.2493752 208.057627,98.220995 209.512849,101.309824 C210.979963,104.39635 212.186334,107.598735 213.119499,110.883894 C214.033826,114.16916 214.66298,117.526288 215.000045,120.918387 C215.35774,124.274978 215.447354,127.654449 215.268046,131.025102 C215.190825,132.704289 215.077266,134.383475 214.881943,136.022036 C214.686621,137.660597 214.459502,139.339783 214.191501,140.987372 C213.6555,144.269008 212.887838,147.510018 212.042955,150.714916 L211.811294,150.064909 C212.265532,150.254494 212.692516,150.484705 213.174008,150.714916 C213.6555,150.945128 214.018891,151.21145 214.441332,151.441661 C215.285529,151.944303 216.093044,152.50542 216.857879,153.120847 C217.625541,153.73023 218.356865,154.380237 219.083646,155.066356 C219.810427,155.752475 220.44636,156.47922 221.118632,157.242076 C221.427514,157.625761 221.731854,158.004932 222.027108,158.424729 C222.322363,158.844526 222.603991,159.223697 222.90833,159.643493 C223.485213,160.483086 223.984875,161.358791 224.479994,162.23901 C224.711656,162.690404 224.934232,163.141798 225.170436,163.593192 C225.40664,164.044587 225.592877,164.495981 225.783657,164.947375 L226.319658,166.360239 C226.474099,166.856772 226.664879,167.31268 226.81932,167.809214 C226.973761,168.305748 227.087321,168.761656 227.241762,169.258189 C227.396203,169.754723 227.473423,170.251256 227.550644,170.74779 L227.782305,172.237391 C227.823186,172.733924 227.895865,173.230458 227.936746,173.763103 C228.006411,174.766709 228.018544,175.773441 227.973085,176.778416 C227.895865,177.771483 227.818644,178.800662 227.664203,179.793729 C227.586983,180.290263 227.509762,180.786797 227.396203,181.28333 C227.282643,181.779864 227.205423,182.276397 227.087321,182.732305 C226.896541,183.684747 226.587659,184.637189 226.319658,185.594145 C226.051658,186.5511 225.742776,187.462916 225.411182,188.379247 C225.256741,188.830641 225.065961,189.282035 224.91152,189.79211 C224.73891,190.13517 224.561757,190.518855 224.366435,190.974763 Z M220.837005,189.904959 L221.259446,188.609458 C221.373006,188.189661 221.491107,187.81049 221.604667,187.390693 C221.836328,186.5511 222.027108,185.711507 222.181549,184.835802 C222.25877,184.416006 222.33599,183.996209 222.413211,183.540301 C222.490431,183.084393 222.52677,182.664596 222.603991,182.2448 C222.681211,181.825003 222.681211,181.369095 222.71755,180.949298 C222.753889,180.529502 222.794771,180.073594 222.794771,179.653797 C222.834138,178.775083 222.834138,177.897874 222.794771,177.022169 C222.758432,176.146464 222.71755,175.266246 222.603991,174.390541 C222.490431,173.514836 222.372329,172.634618 222.222431,171.758913 C222.140668,171.34363 222.013481,170.892236 221.949888,170.440842 L221.641006,169.145341 L221.295785,167.885951 L220.909683,166.626561 L220.455445,165.367171 L219.955783,164.148407 L219.419782,162.929643 L218.833815,161.756018 C218.411373,160.95705 217.988932,160.194194 217.530151,159.431338 C217.071371,158.668482 216.571709,157.905626 216.072047,157.174367 C215.840386,156.790682 215.536046,156.447623 215.268046,156.068451 C215.000045,155.68928 214.732045,155.341707 214.464044,154.998647 C214.196044,154.655588 213.887162,154.312528 213.619161,153.969468 C213.351161,153.626409 213.042279,153.283349 212.737939,152.94029 C212.4336,152.59723 212.124718,152.290282 211.829463,151.947223 L210.871021,150.994781 L210.834682,150.954155 C210.681721,150.790095 210.611598,150.56611 210.643902,150.344773 C211.143564,147.103763 211.488785,143.858239 211.720446,140.617229 C211.834006,138.978668 211.911226,137.376219 211.952108,135.773769 C211.992989,134.17132 211.988447,132.532759 211.952108,130.93031 C211.879817,127.721485 211.576214,124.521933 211.043631,121.356239 C210.52583,118.222942 209.755693,115.136019 208.740644,112.125228 C207.747265,109.115266 206.501304,106.193509 205.015892,103.390751 C203.53228,100.580824 201.852012,97.8778535 199.987476,95.3017673 C198.122145,92.7028646 196.111239,90.210244 193.964279,87.8357076 C191.815733,85.4342906 189.549085,83.1457221 187.246098,80.9293767 C184.943111,78.7130313 182.494768,76.5508532 180.032797,74.4428424 L178.152251,72.8810185 L177.243775,72.1181624 C176.975775,71.8879513 176.666893,71.6667682 176.362553,71.4320432 C175.749332,70.9806491 175.13611,70.5292549 174.482008,70.0778607 C173.888111,69.6759471 173.272448,69.3067525 172.637801,68.971945 C172.505406,68.9164685 172.376474,68.8531599 172.251699,68.7823594 C172.138139,68.7462479 172.060919,68.7056224 172.097258,68.7056224 C172.183177,68.7357 172.274381,68.7479892 172.365258,68.7417339 L172.7877,68.7417339 C173.065377,68.7034947 173.336121,68.6259722 173.591701,68.5115229 C173.800966,68.4108259 173.995121,68.2816937 174.168583,68.1278379 C174.354402,67.9691519 174.521976,67.7905161 174.668245,67.5951927 C174.73499,67.5011911 174.787058,67.397707 174.822686,67.2882447 C174.866972,67.1883936 174.9049,67.0858756 174.936246,66.9812966 C174.972585,66.9045596 174.972585,66.8278226 175.013466,66.7510856 C175.044305,66.678446 175.056781,66.5994088 175.049805,66.5208746 C175.093615,66.2563312 175.093615,65.9864503 175.049805,65.7219069 C175.051978,65.6811416 175.03905,65.6409972 175.013466,65.6090583 L175.049805,65.7219069 L175.281467,66.2951775 L175.781129,67.4417187 C176.435231,69.0035426 177.084792,70.5698803 177.661674,72.1317042 C178.238557,73.6935281 178.815439,75.2914634 179.310559,76.8984267 C179.805678,78.50539 180.269001,80.1394369 180.732324,81.7825117 C181.591291,85.0787173 182.219641,88.4300522 182.612869,91.8124903 C183.015142,95.1913457 183.130623,98.5978448 182.95809,101.995943 C182.88087,103.675129 182.726429,105.390427 182.503852,107.069614 C182.281276,108.7488 181.967851,110.427986 181.62263,112.066547 C180.884217,115.345943 179.891,118.563497 178.651913,121.690271 C178.67423,121.760922 178.666463,121.837572 178.630421,121.902383 C178.594379,121.967195 178.533204,122.014514 178.461133,122.03333 L178.406625,122.03333 L177.675301,122.146179 C176.623788,122.308269 175.558006,122.359711 174.495635,122.299653 C173.995973,122.263542 173.496311,122.222916 172.996649,122.146179 L172.265326,122.03333 C172.018002,122.000591 171.773529,121.949286 171.534002,121.879856 C169.640831,121.499762 167.789403,120.937379 166.005925,120.20067 C164.269465,119.471754 162.588861,118.617855 160.977509,117.645779 L156.148958,114.797482 C154.536413,113.84504 152.969292,112.815861 151.388543,111.822794 C149.807795,110.829727 148.240673,109.800548 146.705349,108.735258 L142.099374,105.530359 C140.56405,104.460555 139.065064,103.318528 137.556993,102.212612 L135.331227,100.533426 L133.141799,98.8181279 C131.683695,97.6354752 130.225591,96.488934 128.803825,95.2701697 C127.38206,94.0514054 125.964837,92.8687527 124.543072,91.6093629 C123.121307,90.3499732 121.740423,89.1312089 120.454929,87.7950821 C119.169436,86.4589554 117.76584,85.1995656 116.462177,83.8679528 L114.50441,81.8457069 L112.623865,79.7873494 C111.969762,79.1012303 111.397422,78.3744857 110.779658,77.6883665 C110.161894,77.0022474 109.553215,76.2755027 108.962706,75.5532721 C107.772602,74.1042968 106.659719,72.614696 105.546835,71.1296091 L106.736939,70.9400236 C106.707258,71.3613701 106.733219,71.7847649 106.81416,72.1994133 C106.899369,72.6614615 107.027092,73.1147586 107.19572,73.5535959 C107.524263,74.4789614 107.909574,75.3834456 108.349484,76.2619609 C108.771926,77.1647493 109.25796,78.0675376 109.771249,78.9342144 C110.284539,79.8008913 110.770573,80.6901378 111.306574,81.5658425 C112.342237,83.3217659 113.418781,85.0731753 114.531665,86.7929871 C115.067666,87.6686918 115.644548,88.5489104 116.22143,89.3885036 C116.798313,90.2280968 117.334314,91.1038015 117.947535,91.9840201 C118.560757,92.8642388 119.1013,93.699318 119.67364,94.5795366 C120.24598,95.4597553 120.827405,96.2948345 121.440626,97.1344277 L123.207612,99.6893187 C123.784495,100.528912 124.397716,101.404617 125.024565,102.24421 C125.651413,103.083803 126.214668,103.959508 126.841517,104.799101 C127.468365,105.638694 128.06796,106.514399 128.658469,107.353992 C129.248979,108.193585 129.884912,109.06929 130.475422,109.949508 C131.065931,110.829727 131.665525,111.664806 132.242408,112.581136 C132.370808,112.720276 132.435386,112.906103 132.42075,113.09433 C132.406113,113.282556 132.313574,113.456319 132.165187,113.574204 C131.940618,113.766482 131.618478,113.797229 131.361186,113.650941 C124.761106,109.990134 118.270044,106.135228 111.974304,101.914692 C108.826434,99.8157091 105.755785,97.6038776 102.762356,95.3153091 C99.7689268,93.0267407 96.8118368,90.6614352 93.8956283,88.2600181 L91.7470821,86.4544414 C91.027587,85.8818502 90.2686717,85.3599688 89.4758917,84.8926176 C88.7220492,84.375784 87.925847,83.9227969 87.0956841,83.5384351 C87.0035638,83.5077221 86.9139646,83.469994 86.8276836,83.4255865 C86.7669822,83.4015947 86.70223,83.3893382 86.6369036,83.389475 L86.6505308,83.389475 C86.7409227,83.3884902 86.8260417,83.3470264 86.8821922,83.2766264 C87.009649,83.1775569 87.0902062,83.030521 87.1047689,82.8703717 L87.1047689,82.7168977 C87.1047689,82.6807861 87.1411079,82.7530092 87.1819893,82.8297462 L87.9496517,84.0123989 L94.1318321,93.4329954 C98.2199749,99.6893187 102.498898,105.868905 107.182092,111.705432 C111.841434,117.568711 116.963261,123.053938 122.499001,128.109096 C128.036786,133.157351 134.008578,137.71426 140.346015,141.727658 C141.150017,142.224192 141.917679,142.756837 142.726223,143.217259 L145.142769,144.666235 C145.946771,145.117629 146.791654,145.569023 147.600198,146.020417 C148.408741,146.471811 149.249082,146.923205 150.057626,147.3746 L151.284068,148.024607 C151.70651,148.254818 152.128951,148.444404 152.551393,148.710726 C153.516226,149.207367 154.335988,149.94271 154.9316,150.845821 C155.275461,151.391665 155.412347,152.041406 155.317703,152.678481 C155.223545,153.321148 154.912894,153.913101 154.436481,154.357667 C154.043767,154.741509 153.581358,155.047852 153.073767,155.260456 L151.806442,155.869838 C144.992871,159.151474 137.679638,161.665739 130.080234,162.81228 C126.280317,163.358576 122.438497,163.562532 118.601638,163.421663 C114.766486,163.263427 110.952053,162.77866 107.200262,161.972687 C99.7144182,160.410863 92.496575,157.661873 85.6648341,154.380237 C83.9387294,153.540644 82.2489637,152.741676 80.559198,151.825346 L79.2918737,151.175339 L78.0200071,150.502761 L76.7526828,149.816642 L76.1394614,149.473582 C76.0455705,149.43072 75.9558572,149.379344 75.8714609,149.320108 L75.6397995,149.20726 C75.5737073,149.188305 75.5097719,149.162588 75.4490195,149.130523 C75.5529902,149.129603 75.6565547,149.117495 75.7579014,149.094411 C75.8550422,149.058083 75.9455655,149.006244 76.0259019,148.940937 C76.1330837,148.871874 76.2244043,148.781126 76.2939023,148.674615 C76.4009156,148.528971 76.4667846,148.357537 76.4846823,148.178081 L76.4846823,147.988496 C76.4846823,147.911759 76.5210214,148.065233 76.5982419,148.218707 C76.6879065,148.377744 76.7912526,148.528772 76.9071238,148.670101 C77.4431247,149.396845 78.0200071,150.195813 78.556008,150.927072 C79.6688913,152.416673 80.8271985,153.865648 81.9718785,155.314623 C83.1165584,156.763598 84.352086,158.176462 85.5785289,159.548701 C86.8049717,160.920939 88.072296,162.293177 89.3805017,163.611248 C91.9923707,166.242876 94.7177992,168.761656 97.5567873,171.126961 C103.213692,175.837722 109.426385,179.846976 116.057905,183.066337 C122.627914,186.239986 129.641159,188.412958 136.862009,189.512246 C144.056543,190.631407 151.3784,190.683129 158.588217,189.66572 C162.197633,189.163721 165.774144,188.450788 169.299151,187.530626 C171.066137,187.034092 172.828581,186.578184 174.559228,185.968802 C176.326214,185.436157 178.052319,184.822261 179.742085,184.163225 L179.396864,184.316699 C181.16385,183.364257 183.003514,182.484039 184.847721,181.685071 C186.729649,180.864176 188.651999,180.138015 190.60746,179.509351 C192.600355,178.865518 194.64184,178.380984 196.71242,178.060376 C198.831111,177.72372 200.982142,177.634339 203.121719,177.794053 C205.295745,177.940996 207.437326,178.397033 209.481052,179.148236 C211.505552,179.904935 213.417208,180.931465 215.163571,182.19966 C216.852716,183.449458 218.408306,184.868252 219.805884,186.433738 C220.499893,187.199968 221.153363,188.001522 221.76365,188.835155 L222.217888,189.444537 L222.217888,189.480648 C222.217888,189.480648 222.140668,189.3678 222.181549,189.444537 L222.217888,189.480648 L222.295109,189.557385 L222.25877,189.521274 C222.206722,189.467072 222.140749,189.428049 222.06799,189.408425 C221.884678,189.337218 221.686812,189.310897 221.491107,189.331688 C221.254392,189.365804 221.029757,189.457266 220.837005,189.598011 C220.808697,189.698393 220.808697,189.804576 220.837005,189.904959 Z" id="Shape" fill="#010101"></path>
        </g>
    </g>
</svg>