<svg xmlns="http://www.w3.org/2000/svg" xmlns:xlink="http://www.w3.org/1999/xlink" viewBox="0 0 726.76 545.55"><defs><style>.a,.aa,.t{fill:none;}.b,.i{fill:#8ab379;}.aa,.b,.t{stroke:#000;}.b,.t{stroke-linecap:round;stroke-linejoin:round;stroke-width:3px;}.c{isolation:isolate;}.d{opacity:0.2;}.e{fill:#464e69;}.f{fill:#343a4c;}.ag,.g{fill:#fff;}.h{clip-path:url(#a);}.j{clip-path:url(#b);}.k{fill:#dfe7f0;}.l{clip-path:url(#c);}.m{fill:#bef5f6;}.n{fill:#138d85;}.o,.s{fill:#3bbd8f;}.p{fill:#95e6e0;}.q{clip-path:url(#d);}.r{fill:#98e687;}.s{opacity:0.6;}.u{clip-path:url(#e);}.v{fill:#1fc3c2;}.w{fill:#6ae6e3;}.x{fill:#0a5c4f;}.y{fill:#35a46d;}.z{fill:#0f796b;}.aa{stroke-miterlimit:10;stroke-width:4px;}.ab{fill:#f64e1a;}.ac{fill:#cb95ad;}.ad{fill:#f7c45e;}.ae{fill:#7ec699;}.af{fill:#f08d49;}.ag{opacity:0.3;mix-blend-mode:screen;}.ah{fill:#6c738b;}.ai{fill:#8b94b3;}.aj{clip-path:url(#f);}.ak{fill:#e5bb8c;}.al{fill:#fdcf98;}</style><clipPath id="a" transform="translate(-136.57 -223.11)"><path class="a" d="M365.17,300.16c-3.26,0-3.85,5.13-3.85,5.13-.36,4.28-4.2,6-6.88,6H289.92c-2.68,0-6.51-1.71-6.88-6,0,0-.59-5.13-3.85-5.13l-14.14-.05a13.85,13.85,0,0,0-13.81,13.81V593.36a13.85,13.85,0,0,0,13.81,13.81H379.32a13.86,13.86,0,0,0,13.81-13.79V313.91a13.85,13.85,0,0,0-13.81-13.81h-.92Z"/></clipPath><clipPath id="b" transform="translate(-136.57 -223.11)"><path class="b" d="M257.15,298.59l127,1.73c7.41.1,13.41,7.91,13.38,17.44L396.9,596c0,9.53-6,17.18-13.46,17.08l-127-1.73c-7.41-.1-13.41-7.91-13.38-17.44l.61-278.25C243.71,306.13,249.73,298.49,257.15,298.59Z"/></clipPath><clipPath id="c" transform="translate(-136.57 -223.11)"><rect class="a" x="262.79" y="325.24" width="119.03" height="91.1" rx="7.29" ry="7.29"/></clipPath><clipPath id="d" transform="translate(-136.57 -223.11)"><path class="a" d="M322.43,455.47a206.8,206.8,0,0,0,12.75-24.24c3.44-7.77,10.06-18.11,16.15-28.39a13.88,13.88,0,0,1,7.19-5.94c17.58-6.43,18.15-4.07,19.34-2.51q6,7.86,12.1,16.59,6.57,9.44,12.23,18.47a5.35,5.35,0,0,0,5.3,2.41l.33,0a8,8,0,0,1,4,.66,5.19,5.19,0,0,1,2.28,2c4.25,6.62,6.54,10.17,6.54,10.17a51.32,51.32,0,0,0,7.72,12,28.33,28.33,0,0,1-3.85,11c8.91-14.47-63.31,15-48.23,16.08C347.31,481.54,328.28,462,322.43,455.47Z"/></clipPath><clipPath id="e" transform="translate(-136.57 -223.11)"><path class="a" d="M232.43,452.47a206.8,206.8,0,0,0,12.75-24.24c3.44-7.77,10.06-18.11,16.15-28.39a13.88,13.88,0,0,1,7.19-5.94c4.26-1.56,13.67-4.41,14.26-4.51a5.28,5.28,0,0,1,5.08,2q6,7.86,12.1,16.59,6.57,9.44,12.23,18.47a5.35,5.35,0,0,0,5.3,2.41l.33,0a8,8,0,0,1,4,.66,5.19,5.19,0,0,1,2.28,2c4.25,6.62,6.54,10.17,6.54,10.17a51.32,51.32,0,0,0,7.72,12,28.33,28.33,0,0,1-3.85,11C323,483.27,291.62,481,286.26,480.63,257.31,478.54,238.28,459,232.43,452.47Z"/></clipPath><clipPath id="f" transform="translate(-136.57 -223.11)"><ellipse class="a" cx="304.64" cy="353.34" rx="21.98" ry="22.29"/></clipPath></defs><title>subscription-computer</title><g class="c"><g class="d"><path d="M298.4,739.17c-32.95-.54-78.22,26.32-15.15,28.56s360.31-.36,393.95,0c93.07,1,85.22-20.56,33.64-28.56S334.48,739.77,298.4,739.17Z" transform="translate(-136.57 -223.11)"/></g><rect class="e" x="9.87" y="8.24" width="707.12" height="445.56" rx="35.05" ry="35.05"/><path class="f" d="M503.1,676.91H189.77a43.33,43.33,0,0,1-43.33-43.33V274.68a43.33,43.33,0,0,1,43.33-43.33H503.1" transform="translate(-136.57 -223.11)"/><rect class="g" x="104.37" y="66.32" width="162.49" height="326.97" rx="24.08" ry="24.08"/><path d="M379.34,617.12l-58.6.11-29.3.06-14.65,0h-7.32a74.14,74.14,0,0,1-7.43-.18A24.93,24.93,0,0,1,248.38,611a23.15,23.15,0,0,1-4.85-5.83,23.87,23.87,0,0,1-2.88-7,12.85,12.85,0,0,1-.37-1.87,16.19,16.19,0,0,1-.24-1.89l-.1-1.9c0-.62,0-1.22,0-1.84v-7.32l0-14.65-.08-58.6c.37-19.53,0-39.06,0-58.6l-.19-29.3q-.06-14.65.09-29.3c.2-19.53.14-39.06-.36-58.6-.09-4.88-.22-9.77-.26-14.65l0-3.66c0-1.23-.06-2.4,0-3.76a24.42,24.42,0,0,1,.45-3.93,26.8,26.8,0,0,1,1.14-3.79A26.24,26.24,0,0,1,265,288c1.22,0,2.44.13,3.66.12h11l14.65,0,29.3,0c9.77,0,19.53-.06,29.3-.14l14.65-.1h11c.59,0,1.24,0,1.9.06a19.15,19.15,0,0,1,1.95.15,25.58,25.58,0,0,1,14,6.4,28.4,28.4,0,0,1,2.71,2.8,28.09,28.09,0,0,1,2.21,3.2,24.38,24.38,0,0,1,2.89,7.19,13.22,13.22,0,0,1,.36,1.91,16.6,16.6,0,0,1,.23,1.93l.09,1.94c0,.63,0,1.23,0,1.84l0,7.32-.08,14.65q-.21,29.3-.22,58.6c.06,4.88.25,9.77.37,14.65s.09,9.77,0,14.65c0,9.77-.34,19.53-.44,29.3,0,4.88-.13,9.77,0,14.65s.29,9.77.34,14.65c.09,9.77,0,19.53,0,29.3-.16,19.53-.16,39.06.14,58.6,0,4.88.12,9.77.1,14.65v3.66c0,1.23,0,2.4-.06,3.74a25,25,0,0,1-.48,3.87,24.55,24.55,0,0,1-1.18,3.71A26.07,26.07,0,0,1,379.34,617.12Zm0-1.44a26.11,26.11,0,0,0,7-1.14,24.59,24.59,0,0,0,6.25-3.23,22.31,22.31,0,0,0,7.94-11.17,30.36,30.36,0,0,0,.88-3.31,29.51,29.51,0,0,0,.38-3.4c.09-1.1.05-2.37.06-3.58v-3.66c0-4.88.06-9.77.1-14.65.3-19.53.3-39.06.14-58.6-.05-9.77-.1-19.53,0-29.3.05-4.88.27-9.77.34-14.65s0-9.77,0-14.65c-.1-9.77-.39-19.53-.44-29.3,0-4.88-.09-9.77,0-14.65s.31-9.77.37-14.65q0-29.3-.22-58.6L402,322.51l0-7.32c0-.61,0-1.23,0-1.82l-.1-1.72a14.06,14.06,0,0,0-.23-1.7,11,11,0,0,0-.34-1.68,21.39,21.39,0,0,0-2.62-6.31,25.07,25.07,0,0,0-2-2.8,25.34,25.34,0,0,0-2.41-2.43A22.38,22.38,0,0,0,382,291.24a16.13,16.13,0,0,0-1.7-.11c-.56,0-1.13-.06-1.76,0h-11l-14.65-.1c-9.77-.08-19.53-.15-29.3-.14l-29.3,0-14.65,0h-11c-1.22,0-2.44.11-3.66.12a25.4,25.4,0,0,0-6.76,1.12,24.11,24.11,0,0,0-6.08,3.1,22.07,22.07,0,0,0-7.88,10.78,27,27,0,0,0-.92,3.23,31.13,31.13,0,0,0-.4,3.33c-.1,1.07-.08,2.36-.1,3.56l0,3.66c0,4.88-.16,9.77-.26,14.65-.5,19.53-.56,39.06-.36,58.6q.13,14.65.09,29.3l-.19,29.3c-.09,19.53-.41,39.06,0,58.6l-.08,58.6,0,14.65v7.32c0,.61,0,1.23,0,1.82l.09,1.75a14.46,14.46,0,0,0,.22,1.74,11.35,11.35,0,0,0,.33,1.72,21.9,21.9,0,0,0,2.63,6.48,25.61,25.61,0,0,0,2,2.88,25.91,25.91,0,0,0,2.45,2.52,23,23,0,0,0,12.61,5.72c2.3.25,4.76.18,7.21.19h7.32l14.65,0,29.3.06Z" transform="translate(-136.57 -223.11)"/><g class="h"><path class="a" d="M365.17,300.16c-3.26,0-3.85,5.13-3.85,5.13-.36,4.28-4.2,6-6.88,6H289.92c-2.68,0-6.51-1.71-6.88-6,0,0-.59-5.13-3.85-5.13l-14.14-.05a13.85,13.85,0,0,0-13.81,13.81V593.36a13.85,13.85,0,0,0,13.81,13.81H379.32a13.86,13.86,0,0,0,13.81-13.79V313.91a13.85,13.85,0,0,0-13.81-13.81h-.92Z" transform="translate(-136.57 -223.11)"/><path class="a" d="M365.17,300.16c-3.26,0-3.85,5.13-3.85,5.13-.36,4.28-4.2,6-6.88,6H289.92c-2.68,0-6.51-1.71-6.88-6,0,0-.59-5.13-3.85-5.13l-14.14-.05a13.85,13.85,0,0,0-13.81,13.81V593.36a13.85,13.85,0,0,0,13.81,13.81H379.32a13.86,13.86,0,0,0,13.81-13.79V313.91a13.85,13.85,0,0,0-13.81-13.81h-.92Z" transform="translate(-136.57 -223.11)"/><path class="i" d="M257.15,298.59l127,1.73c7.41.1,13.41,7.91,13.38,17.44L396.9,596c0,9.53-6,17.18-13.46,17.08l-127-1.73c-7.41-.1-13.41-7.91-13.38-17.44l.61-278.25C243.71,306.13,249.73,298.49,257.15,298.59Z" transform="translate(-136.57 -223.11)"/><g class="j"><polygon class="k" points="267.18 396.37 90.53 393.97 91.26 56.97 267.92 59.37 267.18 396.37"/><path d="M403.75,615l-59.42-.81L249,612.87l-21.88-.3,4.5,4.5.25-114.42.4-181,.09-41.54-4.5,4.5,59.42.81,95.36,1.3,21.88.3-4.5-4.5-.25,114.42-.4,181-.09,41.54c0,5.79,9,5.8,9,0l.25-114.42.4-181,.09-41.54a4.57,4.57,0,0,0-4.5-4.5l-59.42-.81-95.36-1.3-21.88-.3a4.56,4.56,0,0,0-4.5,4.5l-.25,114.42-.4,181-.09,41.54a4.57,4.57,0,0,0,4.5,4.5l59.42.81,95.36,1.3,21.88.3C409.54,624.06,409.54,615.06,403.75,615Z" transform="translate(-136.57 -223.11)"/><g class="l"><rect class="k" x="126.22" y="102.14" width="119.03" height="91.1" rx="7.29" ry="7.29"/></g><rect class="m" x="106.22" y="75.14" width="169.64" height="129.83" rx="7.29" ry="7.29"/><path class="g" d="M235.34,424.15S265.11,392,268.46,392,295,425.1,300.3,424.15,326.07,392,332.9,392s22.68,33.55,29.38,32.2c15.91-3.21,18.88-31.05,33.77-32.2,5.28-.41,21.78,32.74,25.9,32.2s19.72-25.3,21.78-25.7V359.63c-2.06.41-17.66,25.3-21.78,25.7s-20.62-32.74-25.9-32.19-27.19,31-33.77,32.19C346.43,388.26,348.66,353,332.9,353c-7,0-27.32,31.38-32.61,32.19S271.68,353,268.46,353s-33.12,32.33-33.12,32.33Z" transform="translate(-136.57 -223.11)"/><path class="n" d="M235.34,434.17s29.77-20.08,33.12-20.08S295,434.76,300.3,434.17s25.78-20.08,32.61-20.08,22.68,20.92,29.38,20.08,28.48-19.83,33.77-20.08,21.78,20.42,25.9,20.08,19.72-15.78,21.78-16V393.92c-2.06.25-17.66,15.78-21.78,16s-20.62-20.42-25.9-20.08S368.86,409.19,362.29,410c-15.85,1.83-13.62-20.16-29.38-20.16-7,0-27.32,19.57-32.61,20.08s-28.61-20.08-31.83-20.08S235.34,410,235.34,410Z" transform="translate(-136.57 -223.11)"/><path class="o" d="M235.34,467s29.77-25.88,33.12-25.88S295,467.73,300.3,467s25.78-25.88,32.61-25.88,22.68,27,29.38,25.88,28.48-25.55,33.77-25.88S417.83,467.4,422,467s19.72-20.33,21.78-20.66V415.1c-2.06.33-17.66,20.33-21.78,20.66s-20.62-26.31-25.9-25.88-27.19,24.9-33.77,25.88-22.42-26-29.38-26S305.58,435,300.3,435.65s-28.61-25.88-31.83-25.88-33.12,25.88-33.12,25.88Z" transform="translate(-136.57 -223.11)"/><path class="p" d="M235.34,514.3s29.77-20.08,33.12-20.08S295,514.89,300.3,514.3s25.78-20.08,32.61-20.08,22.68,20.92,29.38,20.08,28.48-19.83,33.77-20.08,21.78,20.42,25.9,20.08,19.72-15.78,21.78-16V474.06c-2.06.25-17.66,15.78-21.78,16s-20.62-20.42-25.9-20.08-27.19,19.32-33.77,20.08S339.86,470,332.9,470s-27.32,19.57-32.61,20.08S271.68,470,268.46,470s-33.12,20.08-33.12,20.08Z" transform="translate(-136.57 -223.11)"/><path d="M235,489.84c8.51-5.91,17.14-11.81,26.29-17.38,1.16-.67,2.32-1.35,3.61-2a13.12,13.12,0,0,1,2.06-.93,5.4,5.4,0,0,1,.77-.25,3.16,3.16,0,0,1,1.29-.08.65.65,0,0,1,.39.08.32.32,0,0,1,.26.08l.39.17c.26.08.39.17.64.25a28.87,28.87,0,0,1,3.61,2.19c1.16.76,2.19,1.52,3.22,2.28,4.25,3,8.25,6.07,12.5,9a72.33,72.33,0,0,0,6.57,4.22,17.77,17.77,0,0,0,3.35,1.52c.26.08.52.08.39.08a1.41,1.41,0,0,0,.39-.08,6.56,6.56,0,0,0,1.55-.76,69.09,69.09,0,0,0,6.32-4.3l6.06-4.64c2.06-1.52,4.12-3.12,6.19-4.64a64.68,64.68,0,0,1,7-4.39,14.77,14.77,0,0,1,2.19-.93,10.29,10.29,0,0,1,3.09-.59,9.42,9.42,0,0,1,3.22.67,9.3,9.3,0,0,1,2.06,1.1,47.1,47.1,0,0,1,6.32,4.81c3.87,3.29,7.35,6.67,11.08,9.79a31.46,31.46,0,0,0,3,2.19,14.25,14.25,0,0,0,3,1.52c.39.08.13.08.64,0a11.59,11.59,0,0,0,1.55-.59,23.33,23.33,0,0,0,3.35-1.86c4.38-2.7,8.63-5.74,12.76-8.69,2.06-1.52,4.25-3,6.44-4.47,1.16-.76,2.19-1.43,3.48-2.19l1.93-1a23.6,23.6,0,0,1,2.45-1l.39-.08c.13,0,.39-.08.52-.08s.39-.08.64-.08h.64a4.48,4.48,0,0,1,1.16.17,1.23,1.23,0,0,1,.52.17l.39.17a8,8,0,0,1,2.19,1.18,18.15,18.15,0,0,1,3.22,2.45c1.93,1.69,3.74,3.37,5.54,5.06,3.48,3.37,6.83,6.92,10.44,10a14.73,14.73,0,0,0,1.42,1l.26.17c.13,0,.26.17.26.08h-.13a.55.55,0,0,1,.26-.08l.39-.17a3.5,3.5,0,0,0,.77-.42,15,15,0,0,0,1.55-.93c2.19-1.35,4.12-3,6.19-4.47l5.93-4.64c1-.76,2.06-1.52,3.09-2.36a9.48,9.48,0,0,1,1.68-1.1l.9-.59a1.89,1.89,0,0,1,.52-.25l.26-.17c.13-.08.39-.08.52-.17l.26.76-.13.08-.39.25a4.71,4.71,0,0,0-.77.59l-1.42,1.18-2.71,2.45c-1.8,1.69-3.61,3.29-5.41,5s-3.74,3.29-5.93,4.81c-.52.42-1.16.76-1.8,1.18-.26.17-.64.34-1,.59-.26.08-.39.17-.64.25a8.27,8.27,0,0,1-.9.25c-.26,0-.39.08-.64.08h-.77a8.35,8.35,0,0,1-1.16-.25,1.86,1.86,0,0,1-.77-.34.92.92,0,0,1-.52-.34,10.94,10.94,0,0,1-1.8-1.18,61.68,61.68,0,0,1-5.8-5l-5.41-5q-2.71-2.53-5.41-4.81a30.7,30.7,0,0,0-2.84-2.11c-.52-.25-1-.59-1.42-.76l-.13-.08h0l-.13.08a13.7,13.7,0,0,0-1.55.59,16.61,16.61,0,0,0-1.68.93c-1.16.67-2.19,1.35-3.22,2-2.19,1.43-4.25,2.87-6.44,4.39-4.25,3-8.38,6-13.15,8.86a32.7,32.7,0,0,1-3.87,2,10.31,10.31,0,0,1-1.16.51,5.11,5.11,0,0,1-1.29.42,2.55,2.55,0,0,1-.77.17c-.13,0-.26.08-.39.08H362a3.77,3.77,0,0,1-1-.08c-.26-.08-.64-.08-.9-.17a17.14,17.14,0,0,1-4.51-2.11c-1.16-.76-2.19-1.6-3.22-2.36-4-3.29-7.48-6.67-11.08-9.87a42.19,42.19,0,0,0-5.8-4.47,14,14,0,0,0-1.55-.84,8.94,8.94,0,0,0-1-.34,3.81,3.81,0,0,0-1.29.34l-.77.34-.9.42a47.07,47.07,0,0,0-6.57,4c-2.06,1.43-4.12,3-6.19,4.47L311,485.36c-2.19,1.52-4.25,3-6.7,4.47a17.87,17.87,0,0,1-2.19,1,4.69,4.69,0,0,1-1.8.34,10.74,10.74,0,0,1-1.93-.25,25,25,0,0,1-4.25-1.94c-2.45-1.43-4.51-3-6.7-4.39-4.25-3-8.25-6.16-12.24-9.2l-3.09-2.28a17.13,17.13,0,0,0-3.22-2,.78.78,0,0,0-.39-.17l-.13-.08h.13l-.39.08c-.52.25-1.16.51-1.8.76l-3.61,1.86c-4.64,2.62-9.15,5.48-13.66,8.27s-8.89,5.65-13.4,8.52Z" transform="translate(-136.57 -223.11)"/><g class="q"><path class="r" d="M322.43,455.47a206.8,206.8,0,0,0,12.75-24.24c3.44-7.77,10.06-18.11,16.15-28.39a13.88,13.88,0,0,1,7.19-5.94c17.58-6.43,18.15-4.07,19.34-2.51q6,7.86,12.1,16.59,6.57,9.44,12.23,18.47a5.35,5.35,0,0,0,5.3,2.41l.33,0a8,8,0,0,1,4,.66,5.19,5.19,0,0,1,2.28,2c4.25,6.62,6.54,10.17,6.54,10.17a51.32,51.32,0,0,0,7.72,12,28.33,28.33,0,0,1-3.85,11c8.91-14.47-63.31,15-48.23,16.08C347.31,481.54,328.28,462,322.43,455.47Z" transform="translate(-136.57 -223.11)"/><path class="s" d="M323.43,466.47a206.8,206.8,0,0,0,12.75-24.24c3.44-7.77,10.06-18.11,16.15-28.39a13.88,13.88,0,0,1,7.19-5.94c17.58-6.43,18.15-4.07,19.34-2.51q6,7.86,12.1,16.59,6.57,9.44,12.23,18.47a5.35,5.35,0,0,0,5.3,2.41l.33,0a8,8,0,0,1,4,.66,5.19,5.19,0,0,1,2.28,2c4.25,6.62,6.54,10.17,6.54,10.17a51.32,51.32,0,0,0,7.72,12,28.33,28.33,0,0,1-3.85,11c8.91-14.47-63.31,15-48.23,16.08C348.31,492.54,329.28,473,323.43,466.47Z" transform="translate(-136.57 -223.11)"/></g><path class="t" d="M322.43,455.47a206.8,206.8,0,0,0,12.75-24.24c3.44-7.77,10.06-18.11,16.15-28.39a13.88,13.88,0,0,1,7.19-5.94c17.58-6.43,18.15-4.07,19.34-2.51q6,7.86,12.1,16.59,6.57,9.44,12.23,18.47a5.35,5.35,0,0,0,5.3,2.41l.33,0a8,8,0,0,1,4,.66,5.19,5.19,0,0,1,2.28,2c4.25,6.62,6.54,10.17,6.54,10.17a51.32,51.32,0,0,0,7.72,12,28.33,28.33,0,0,1-3.85,11c8.91-14.47-63.31,15-48.23,16.08C347.31,481.54,328.28,462,322.43,455.47Z" transform="translate(-136.57 -223.11)"/><g class="u"><path class="r" d="M232.43,452.47a206.8,206.8,0,0,0,12.75-24.24c3.44-7.77,10.06-18.11,16.15-28.39a13.88,13.88,0,0,1,7.19-5.94c4.26-1.56,13.67-4.41,14.26-4.51a5.28,5.28,0,0,1,5.08,2q6,7.86,12.1,16.59,6.57,9.44,12.23,18.47a5.35,5.35,0,0,0,5.3,2.41l.33,0a8,8,0,0,1,4,.66,5.19,5.19,0,0,1,2.28,2c4.25,6.62,6.54,10.17,6.54,10.17a51.32,51.32,0,0,0,7.72,12,28.33,28.33,0,0,1-3.85,11C323,483.27,291.62,481,286.26,480.63,257.31,478.54,238.28,459,232.43,452.47Z" transform="translate(-136.57 -223.11)"/><path class="s" d="M232.43,462.47a206.8,206.8,0,0,0,12.75-24.24c3.44-7.77,10.06-18.11,16.15-28.39a13.88,13.88,0,0,1,7.19-5.94c4.26-1.56,13.67-4.41,14.26-4.51a5.28,5.28,0,0,1,5.08,2q6,7.86,12.1,16.59,6.57,9.44,12.23,18.47a5.35,5.35,0,0,0,5.3,2.41l.33,0a8,8,0,0,1,4,.66,5.19,5.19,0,0,1,2.28,2c4.25,6.62,6.54,10.17,6.54,10.17a51.32,51.32,0,0,0,7.72,12,28.33,28.33,0,0,1-3.85,11C323,493.27,291.62,491,286.26,490.63,257.31,488.54,238.28,469,232.43,462.47Z" transform="translate(-136.57 -223.11)"/></g><path class="t" d="M232.43,452.47a206.8,206.8,0,0,0,12.75-24.24c3.44-7.77,10.06-18.11,16.15-28.39a13.88,13.88,0,0,1,7.19-5.94c4.26-1.56,13.67-4.41,14.26-4.51a5.28,5.28,0,0,1,5.08,2q6,7.86,12.1,16.59,6.57,9.44,12.23,18.47a5.35,5.35,0,0,0,5.3,2.41l.33,0a8,8,0,0,1,4,.66,5.19,5.19,0,0,1,2.28,2c4.25,6.62,6.54,10.17,6.54,10.17a51.32,51.32,0,0,0,7.72,12,28.33,28.33,0,0,1-3.85,11C323,483.27,291.62,481,286.26,480.63,257.31,478.54,238.28,459,232.43,452.47Z" transform="translate(-136.57 -223.11)"/><rect class="v" x="55.4" y="234.01" width="346.32" height="146.73"/><path d="M539.31,604.87q-21.37.36-43,.59l-21.6.23-21.7.12c-28.91.21-58,.21-87,.27l-174.09,0a2.28,2.28,0,0,1-2.29-2.28h0l.12-146.73a2.17,2.17,0,0,1,2.17-2.17l173.16.14,173.16.25h0a1.78,1.78,0,0,1,1.78,1.78h0C540,506.46,539.64,555.82,539.31,604.87Zm-2.05-2.05c-.33-48.76-.66-97.22-.76-145.7l1.78,1.78-173.16.25L192,459.29l2.17-2.17.12,146.73L192,601.56l172.23,0c28.71.06,57.36.06,86.17.27L472,602l21.69.23Q515.34,602.44,537.26,602.82Z" transform="translate(-136.57 -223.11)"/><path class="w" d="M304.54,459.45C277,559,306,545,393.75,563c6.5,1.33,4.57-13,4.57-13S313.87,529.92,342,514c20.89-11.82-33-18-31.87-54.55" transform="translate(-136.57 -223.11)"/><path class="x" d="M301.95,398.25" transform="translate(-136.57 -223.11)"/><path class="x" d="M286.27,364.3" transform="translate(-136.57 -223.11)"/><polygon class="y" points="121.01 227.89 141.48 276.26 100.55 276.26 121.01 227.89"/><path d="M257.58,449.72c1.81,3.47,3.74,7.31,5.68,11.31s3.84,8.2,5.75,12.36c3.8,8.35,7.46,16.81,11,25.17h0a2.09,2.09,0,0,1-1.12,2.73,2.13,2.13,0,0,1-.81.16l-20.46-.05-20.46-.16h0a1.87,1.87,0,0,1-1.85-1.88,1.91,1.91,0,0,1,.15-.73c3.59-8.29,7.25-16.67,11.05-24.82Zm0,2.56c-3.22,8.23-6.28,16.32-9.32,24.27s-6.17,15.71-9.41,23.54l-1.73-2.61,20.46-.16,20.46-.05-1.92,2.9c-3.31-7.76-6.48-15.42-9.5-23.2-1.51-3.9-3-7.78-4.49-11.82S259.19,456.87,257.58,452.28Z" transform="translate(-136.57 -223.11)"/><path class="y" d="M314.81,349.69" transform="translate(-136.57 -223.11)"/><polygon class="x" points="240.43 193.34 271.9 244.94 208.96 244.94 240.43 193.34"/><path d="M377,414.77c2.74,3.63,5.63,7.68,8.52,11.89s5.76,8.68,8.6,13.12c5.7,8.88,11.28,17.89,16.7,26.84h0a2.74,2.74,0,0,1-2.35,4.16L377,470.71l-31.47-.25h0a2.4,2.4,0,0,1-2-3.67l8.31-13.27c2.78-4.42,5.63-8.78,8.45-13.12Zm0,3.35-14.7,26c-2.42,4.25-4.82,8.5-7.28,12.68l-7.43,12.54-2.06-3.67,31.47-.25,31.47-.09-2.35,4.18c-5.07-8.26-10-16.45-14.77-24.77-2.4-4.17-4.78-8.31-7.13-12.68S379.5,423.1,377,418.12Z" transform="translate(-136.57 -223.11)"/><polygon class="x" points="196.43 336.29 227.9 387.89 164.96 387.89 196.43 336.29"/><path d="M333,557.72c2.74,3.63,5.63,7.68,8.52,11.89s5.76,8.68,8.6,13.12c5.7,8.88,11.28,17.89,16.7,26.84h0a2.74,2.74,0,0,1-2.35,4.16L333,613.66l-31.47-.25h0a2.4,2.4,0,0,1-2-3.67l8.31-13.27c2.78-4.42,5.63-8.78,8.45-13.12Zm0,3.35-14.7,26c-2.42,4.25-4.82,8.5-7.28,12.68l-7.43,12.54-2.06-3.67,31.47-.25,31.47-.09-2.35,4.18c-5.07-8.26-10-16.45-14.77-24.77-2.4-4.17-4.78-8.31-7.13-12.68S335.5,566,333,561.07Z" transform="translate(-136.57 -223.11)"/><polygon class="x" points="136.43 336.29 167.9 387.89 104.96 387.89 136.43 336.29"/><path d="M273,557.72c2.74,3.63,5.63,7.68,8.52,11.89s5.76,8.68,8.6,13.12c5.7,8.88,11.28,17.89,16.7,26.84h0a2.74,2.74,0,0,1-2.35,4.16L273,613.66l-31.47-.25h0a2.4,2.4,0,0,1-2-3.67l8.31-13.27c2.78-4.42,5.63-8.78,8.45-13.12Zm0,3.35-14.7,26c-2.42,4.25-4.82,8.5-7.28,12.68l-7.43,12.54-2.06-3.67,31.47-.25,31.47-.09-2.35,4.18c-5.07-8.26-10-16.45-14.77-24.77-2.4-4.17-4.78-8.31-7.13-12.68S275.5,566,273,561.07Z" transform="translate(-136.57 -223.11)"/><polygon class="x" points="250.43 333.34 281.9 384.94 218.96 384.94 250.43 333.34"/><path d="M387,554.77c2.74,3.63,5.63,7.68,8.52,11.89s5.76,8.68,8.6,13.12c5.7,8.88,11.28,17.89,16.7,26.84h0a2.74,2.74,0,0,1-2.35,4.16L387,610.71l-31.47-.25h0a2.4,2.4,0,0,1-2-3.67l8.31-13.27c2.78-4.42,5.63-8.78,8.45-13.12Zm0,3.35-14.7,26c-2.42,4.25-4.82,8.5-7.28,12.68l-7.43,12.54-2.06-3.67,31.47-.25,31.47-.09-2.35,4.18c-5.07-8.26-10-16.45-14.77-24.77-2.4-4.17-4.78-8.31-7.13-12.68S389.5,563.1,387,558.12Z" transform="translate(-136.57 -223.11)"/><polygon class="z" points="317.54 103.71 349.01 155.32 286.07 155.32 317.54 103.71"/><polygon class="y" points="230.37 328.74 263.61 388.21 197.13 388.21 230.37 328.74"/><path d="M366.94,549.72c2.93,4.08,6,8.72,9.16,13.58s6.2,10.06,9.28,15.17c6.14,10.29,12.14,20.74,17.88,31.11v0a3.53,3.53,0,0,1-1.38,4.79,3.57,3.57,0,0,1-1.73.44l-33.24-.16-33.24-.3h-.05a3.06,3.06,0,0,1-3-3.09,3.1,3.1,0,0,1,.4-1.49q4.39-7.69,8.87-15.37c3-5.12,6-10.17,9.07-15.19Zm0,4.25L351.69,583.9c-2.5,4.89-5,9.76-7.55,14.54S339,608,336.39,612.81l-2.68-4.57,33.24-.3,33.24-.16L397.09,613c-5.33-9.45-10.42-18.82-15.35-28.35-2.47-4.8-4.93-9.51-7.34-14.56S369.55,559.8,366.94,554Z" transform="translate(-136.57 -223.11)"/><polygon class="y" points="164.71 353.39 185.29 403.21 144.13 390.21 164.71 353.39"/><path d="M301.36,575.19c1.85,3.57,3.81,7.54,5.75,11.67s3.84,8.47,5.74,12.75c3.8,8.59,7.46,17.29,11,25.89h0a2.14,2.14,0,0,1-2.63,2.85l-20.55-6.57-20.53-6.66h0a1.89,1.89,0,0,1-1.21-2.38,2,2,0,0,1,.16-.35c3.62-6.35,7.34-12.74,11.15-18.94Zm-.16,2.63-9.41,18.56c-3.05,6.07-6.19,11.95-9.43,17.87l-1.09-2.74,20.63,6.34,20.6,6.43-2.63,2.86c-3.33-8-6.53-15.91-9.59-23.92-1.53-4-3.05-8-4.54-12.16S302.78,582.55,301.2,577.81Z" transform="translate(-136.57 -223.11)"/><polygon class="y" points="104.71 356.39 125.29 393.21 84.14 393.21 104.71 356.39"/><path d="M241.28,578.18c1.81,2.53,3.74,5.4,5.67,8.41s3.84,6.22,5.74,9.4c3.8,6.37,7.49,12.85,11,19.27h0a2.15,2.15,0,0,1-.84,2.93,2.18,2.18,0,0,1-1.05.27l-20.58-.07-20.58-.19h0a1.89,1.89,0,0,1-1.88-1.91,1.92,1.92,0,0,1,.25-.92c3.62-6.34,7.32-12.72,11.11-18.92Zm0,2.63-9.44,18.53c-3.08,6.08-6.23,12-9.47,17.9l-1.66-2.83,20.58-.19,20.58-.07L260,617.37c-3.3-5.85-6.47-11.65-9.53-17.54-1.53-3-3.05-5.89-4.55-9S242.9,584.42,241.28,580.82Z" transform="translate(-136.57 -223.11)"/><polygon class="y" points="260.48 233.25 285.61 278.21 235.36 278.21 260.48 233.25"/><path d="M397.05,454.75c2.21,3.09,4.57,6.59,6.93,10.27s4.69,7.6,7,11.48c4.64,7.78,9.14,15.69,13.49,23.53h0a2.63,2.63,0,0,1-1,3.57,2.66,2.66,0,0,1-1.28.33l-25.13-.08-25.13-.23h-.05a2.31,2.31,0,0,1-2.28-2.33,2.33,2.33,0,0,1,.31-1.13l6.7-11.62c2.25-3.87,4.56-7.69,6.86-11.48Zm0,3.22-11.53,22.63c-1.89,3.7-3.77,7.37-5.71,11s-3.88,7.24-5.86,10.86l-2-3.46,25.13-.23,25.13-.08-2.3,3.92c-4-7.15-7.9-14.22-11.64-21.42-1.87-3.61-3.73-7.2-5.56-11S399,462.37,397.05,458Z" transform="translate(-136.57 -223.11)"/><polygon class="y" points="208.79 209.39 231.08 251.44 186.5 251.44 208.79 209.39"/><path d="M345.36,431.46c1.94,3.07,4,6.42,6,9.88s4,7.09,6.05,10.68c4,7.21,7.93,14.5,11.75,21.73h0a1.71,1.71,0,0,1-.71,2.3,1.73,1.73,0,0,1-.8.2l-22.29-.05-22.29-.14h0a1.51,1.51,0,0,1-1.5-1.52,1.53,1.53,0,0,1,.18-.7c3.86-7.18,7.8-14.39,11.8-21.45Zm0,2.09L334.9,454.66c-3.43,7-6.92,13.76-10.49,20.6L323.07,473l22.29-.14,22.29-.05-1.51,2.51c-3.62-6.78-7.13-13.51-10.54-20.32-1.71-3.41-3.41-6.81-5.09-10.34S347.14,437.48,345.36,433.54Z" transform="translate(-136.57 -223.11)"/></g><path class="t" d="M257.15,298.59l127,1.73c7.41.1,13.41,7.91,13.38,17.44L396.9,596c0,9.53-6,17.18-13.46,17.08l-127-1.73c-7.41-.1-13.41-7.91-13.38-17.44l.61-278.25C243.71,306.13,249.73,298.49,257.15,298.59Z" transform="translate(-136.57 -223.11)"/></g><path class="aa" d="M365.17,300.16c-3.26,0-3.85,5.13-3.85,5.13-.36,4.28-4.2,6-6.88,6H289.92c-2.68,0-6.51-1.71-6.88-6,0,0-.59-5.13-3.85-5.13l-14.14-.05a13.85,13.85,0,0,0-13.81,13.81V593.36a13.85,13.85,0,0,0,13.81,13.81H379.32a13.86,13.86,0,0,0,13.81-13.79V313.91a13.85,13.85,0,0,0-13.81-13.81h-.92Z" transform="translate(-136.57 -223.11)"/><rect class="ab" x="396.43" y="58.38" width="39.14" height="12.99"/><path d="M572.93,295.27l-9.77.39c-3.27.16-6.63.22-10,.33s-6.7.22-10.08.24l-10.12.09a1.83,1.83,0,0,1-1.84-1.81h0v0l0-6.49c0-2.16,0-4.33,0-6.49h0a1.86,1.86,0,0,1,1.86-1.85h0l19.57.1,9.79.15c3.26.06,6.52.08,9.79.16h.07a1.42,1.42,0,0,1,1.39,1.46C573.5,286.17,573.21,290.85,572.93,295.27Zm-1.58-1.58-.59-6.28c-.18-2-.33-4-.43-5.92l1.81,1.81c-3.26.16-6.52.21-9.79.32l-9.79.29-19.57.19,2.62-2.62c0,2.16.07,4.33,0,6.49l0,6.49L533,291.86c3.11,0,6.21.11,9.32.19s6.26.28,9.42.43,6.34.29,9.63.55Z" transform="translate(-136.57 -223.11)"/><rect class="ab" x="427.34" y="99.95" width="28.84" height="12.99"/><path d="M593.54,336.83l-7.21.37c-2.42.15-4.9.23-7.38.33l-7.49.25-7.54.08a1.8,1.8,0,0,1-1.82-1.78h0v0l0-6.49c0-2.16,0-4.33,0-6.49v0a1.85,1.85,0,0,1,1.87-1.84l14.42.09c2.4,0,4.81.08,7.21.12l7.21.13h.05a1.5,1.5,0,0,1,1.48,1.53c0,2.35-.17,4.7-.3,7ZM592,335.25l-.67-6.31c-.19-2-.41-4-.49-5.89l1.94,1.94-7.21.27c-2.4.08-4.81.2-7.21.24l-7.21.14-7.21.05,2.65-2.65c0,2.16,0,4.33,0,6.49L566.5,336l-2.6-2.6,6.76.21,6.86.44c2.31.16,4.63.3,7.06.53Z" transform="translate(-136.57 -223.11)"/><rect class="ac" x="427.34" y="141.51" width="63.87" height="12.99"/><path d="M628.56,378.39l-15.93.42c-5.35.13-10.77.19-16.17.28-10.82.16-21.69.28-32.55.36a1.83,1.83,0,0,1-1.85-1.82h0v0c0-2.16,0-4.33,0-6.49l0-6.49v0a1.83,1.83,0,0,1,1.84-1.82l31.93.2,16,.1,8,.06,8,.14h0a1.33,1.33,0,0,1,1.31,1.35C629.05,369.27,628.81,373.95,628.56,378.39ZM627,376.82l-.5-6.24c-.14-2-.25-4-.32-6l1.61,1.61-8,.27-8,.17-16,.32c-5.32.12-10.64.09-16,.15l-16,.11,2.62-2.62,0,6.49c0,2.16,0,4.33,0,6.49L563.9,375l15.5.17,7.76.12,7.82.26,15.8.57Z" transform="translate(-136.57 -223.11)"/><rect class="ad" x="534.47" y="141.51" width="22.66" height="12.99"/><path d="M694.49,378.39l-5.67.36c-1.91.13-3.87.23-5.84.31l-5.95.24c-2,.09-4,.08-6,.1a1.78,1.78,0,0,1-1.81-1.76h0v0l-.06-6.49c0-2.16,0-4.33,0-6.49v0a1.84,1.84,0,0,1,1.86-1.83l11.33.08c3.78,0,7.55.15,11.33.22h.05a1.54,1.54,0,0,1,1.52,1.57c0,2.35-.15,4.71-.3,7Zm-1.58-1.58-.73-6.33-.32-3c-.08-1-.13-1.93-.18-2.9l2,2c-3.78.15-7.55.37-11.33.45l-5.67.13-5.67,0,2.65-2.65c0,2.16,0,4.33,0,6.49s0,4.33-.1,6.49L671,375.06c1.74.06,3.47.09,5.22.22s3.51.22,5.31.4,3.63.34,5.53.55Z" transform="translate(-136.57 -223.11)"/><rect class="ac" x="567.43" y="141.51" width="74.17" height="12.99"/><path d="M779,378.39l-18.5.43-18.75.27q-18.8.24-37.7.37a1.85,1.85,0,0,1-1.86-1.84h0v0c0-2.16,0-4.33,0-6.49l0-6.49v0a1.83,1.83,0,0,1,1.84-1.82l37.08.2,18.54.1c6.18,0,12.36.12,18.54.22h0a1.3,1.3,0,0,1,1.28,1.32C779.43,369.26,779.2,373.94,779,378.39Zm-1.58-1.58-.47-6.23c-.13-2-.23-4-.29-6l1.56,1.56c-6.18.18-12.36.38-18.54.46l-18.54.33c-6.18.14-12.36.1-18.54.16l-18.54.11,2.62-2.62,0,6.49c0,2.16,0,4.33,0,6.49L704,375l18.07.18,9,.12c3,0,6.06.17,9.1.25l18.37.57Z" transform="translate(-136.57 -223.11)"/><rect class="g" x="427.34" y="245.42" width="63.87" height="12.99"/><path d="M628.56,482.3l-15.93.42c-5.35.13-10.77.19-16.17.28-10.82.16-21.69.28-32.55.36a1.83,1.83,0,0,1-1.85-1.82h0v0c0-2.16,0-4.33,0-6.49l0-6.49v0a1.83,1.83,0,0,1,1.84-1.82l31.93.2,16,.1,8,.06,8,.14h0a1.33,1.33,0,0,1,1.31,1.35C629.05,473.18,628.81,477.85,628.56,482.3ZM627,480.72l-.5-6.24c-.14-2-.25-4-.32-6l1.61,1.61-8,.26-8,.17-16,.32c-5.32.12-10.64.09-16,.15l-16,.11,2.62-2.62,0,6.49c0,2.16,0,4.33,0,6.49l-2.63-2.63,15.5.17,7.76.12,7.82.26,15.8.57Z" transform="translate(-136.57 -223.11)"/><rect class="ae" x="499.44" y="245.42" width="22.66" height="12.99"/><path d="M659.46,482.3l-5.67.36c-1.91.13-3.87.23-5.84.31l-5.95.24c-2,.09-4,.08-6,.1a1.78,1.78,0,0,1-1.81-1.76h0v0l-.06-6.49c0-2.16,0-4.33,0-6.49v0a1.84,1.84,0,0,1,1.86-1.83l11.33.08c3.78,0,7.55.15,11.33.22h.05a1.54,1.54,0,0,1,1.52,1.57c0,2.35-.15,4.71-.3,7Zm-1.58-1.58-.73-6.33-.32-3c-.08-1-.13-1.93-.18-2.9l2,2c-3.78.15-7.55.37-11.33.45l-5.67.13-5.67,0,2.65-2.65c0,2.16,0,4.33,0,6.49s0,4.33-.1,6.49L636,479c1.74.06,3.47.09,5.22.22s3.51.22,5.31.4,3.63.34,5.53.55Z" transform="translate(-136.57 -223.11)"/><rect class="af" x="534.47" y="245.42" width="22.66" height="12.99"/><path d="M694.49,482.3l-5.67.36c-1.91.13-3.87.23-5.84.31l-5.95.24c-2,.09-4,.08-6,.1a1.78,1.78,0,0,1-1.81-1.76h0v0l-.06-6.49c0-2.16,0-4.33,0-6.49v0a1.84,1.84,0,0,1,1.86-1.83l11.33.08c3.78,0,7.55.15,11.33.22h.05a1.54,1.54,0,0,1,1.52,1.57c0,2.35-.15,4.71-.3,7Zm-1.58-1.58-.73-6.33-.32-3c-.08-1-.13-1.93-.18-2.9l2,2c-3.78.15-7.55.37-11.33.45l-5.67.13-5.67,0,2.65-2.65c0,2.16,0,4.33,0,6.49s0,4.33-.1,6.49L671,479c1.74.06,3.47.09,5.22.22s3.51.22,5.31.4,3.63.34,5.53.55Z" transform="translate(-136.57 -223.11)"/><rect class="g" x="567.43" y="245.42" width="74.17" height="12.99"/><path d="M779,482.3l-18.5.43L741.7,483q-18.8.24-37.7.37a1.85,1.85,0,0,1-1.86-1.84h0v0c0-2.16,0-4.33,0-6.49l0-6.49v0a1.83,1.83,0,0,1,1.84-1.82l37.08.2,18.54.1c6.18,0,12.36.12,18.54.22h0a1.3,1.3,0,0,1,1.28,1.32C779.43,473.17,779.2,477.85,779,482.3Zm-1.58-1.58-.47-6.23c-.13-2-.23-4-.29-6l1.56,1.56c-6.18.18-12.36.38-18.54.46l-18.54.33c-6.18.14-12.36.1-18.54.16l-18.54.11,2.62-2.62,0,6.49c0,2.16,0,4.33,0,6.49L704,478.87l18.07.18,9,.12c3,0,6.06.17,9.1.25l18.37.57Z" transform="translate(-136.57 -223.11)"/><rect class="g" x="427.34" y="203.85" width="63.87" height="12.99"/><path d="M628.56,440.74l-15.93.42c-5.35.13-10.77.19-16.17.28-10.82.16-21.69.28-32.55.36a1.83,1.83,0,0,1-1.85-1.82h0v0c0-2.16,0-4.33,0-6.49l0-6.49v0a1.83,1.83,0,0,1,1.84-1.82l31.93.2,16,.1,8,.06,8,.14h0a1.33,1.33,0,0,1,1.31,1.35C629.05,431.61,628.81,436.29,628.56,440.74ZM627,439.16l-.5-6.24c-.14-2-.25-4-.32-6l1.61,1.61-8,.26-8,.17-16,.32c-5.32.12-10.64.09-16,.15l-16,.11,2.62-2.62,0,6.49c0,2.16,0,4.33,0,6.49l-2.63-2.63,15.5.17,7.76.12,7.82.26,15.8.57Z" transform="translate(-136.57 -223.11)"/><rect class="g" x="534.47" y="203.85" width="22.66" height="12.99"/><path d="M694.49,440.74l-5.67.36c-1.91.13-3.87.23-5.84.31l-5.95.24c-2,.09-4,.08-6,.1a1.78,1.78,0,0,1-1.81-1.76h0v0l-.06-6.49c0-2.16,0-4.33,0-6.49v0A1.84,1.84,0,0,1,671,425.1l11.33.08c3.78,0,7.55.15,11.33.22h.05a1.54,1.54,0,0,1,1.52,1.57c0,2.35-.15,4.71-.3,7Zm-1.58-1.58-.73-6.33-.32-3c-.08-1-.13-1.93-.18-2.9l2,2c-3.78.15-7.55.37-11.33.45l-5.67.13-5.67,0,2.65-2.65c0,2.16,0,4.33,0,6.49s0,4.33-.1,6.49L671,437.4c1.74.06,3.47.09,5.22.22s3.51.22,5.31.4,3.63.34,5.53.55Z" transform="translate(-136.57 -223.11)"/><rect class="ac" x="567.43" y="203.85" width="74.17" height="12.99"/><path d="M779,440.74l-18.5.43-18.75.27q-18.8.24-37.7.37a1.85,1.85,0,0,1-1.86-1.84h0v0c0-2.16,0-4.33,0-6.49l0-6.49v0a1.83,1.83,0,0,1,1.84-1.82l37.08.2,18.54.1c6.18,0,12.36.12,18.54.22h0a1.3,1.3,0,0,1,1.28,1.32C779.43,431.61,779.2,436.28,779,440.74Zm-1.58-1.58-.47-6.23c-.13-2-.23-4-.29-6l1.56,1.56c-6.18.18-12.36.38-18.54.46l-18.54.33c-6.18.14-12.36.1-18.54.16l-18.54.11,2.62-2.62,0,6.49c0,2.16,0,4.33,0,6.49L704,437.31l18.07.18,9,.12c3,0,6.06.17,9.1.25l18.37.57Z" transform="translate(-136.57 -223.11)"/><rect class="ac" x="427.34" y="162.29" width="63.87" height="12.99"/><path d="M628.56,399.18l-15.93.42c-5.35.13-10.77.19-16.17.28-10.82.16-21.69.28-32.55.36a1.83,1.83,0,0,1-1.85-1.82h0v0c0-2.16,0-4.33,0-6.49l0-6.49v0a1.83,1.83,0,0,1,1.84-1.82l31.93.2,16,.1,8,.06,8,.14h0a1.33,1.33,0,0,1,1.31,1.35C629.05,390.05,628.81,394.73,628.56,399.18ZM627,397.6l-.5-6.24c-.14-2-.25-4-.32-6l1.61,1.61-8,.26-8,.17-16,.32c-5.32.12-10.64.09-16,.15l-16,.11,2.62-2.62,0,6.49c0,2.16,0,4.33,0,6.49l-2.63-2.63,15.5.17,7.76.12,7.82.26,15.8.57Z" transform="translate(-136.57 -223.11)"/><rect class="ae" x="499.44" y="162.29" width="22.66" height="12.99"/><path d="M659.46,399.18l-5.67.36c-1.91.13-3.87.23-5.84.31l-5.95.24c-2,.09-4,.08-6,.1a1.78,1.78,0,0,1-1.81-1.76h0v0l-.06-6.49c0-2.16,0-4.33,0-6.49v0a1.84,1.84,0,0,1,1.86-1.83l11.33.08c3.78,0,7.55.15,11.33.22h.05a1.54,1.54,0,0,1,1.52,1.57c0,2.35-.15,4.71-.3,7Zm-1.58-1.58-.73-6.33-.32-3c-.08-1-.13-1.93-.18-2.9l2,2c-3.78.15-7.55.37-11.33.45l-5.67.13L636,388l2.65-2.65c0,2.16,0,4.33,0,6.49s0,4.33-.1,6.49L636,395.84c1.74.06,3.47.09,5.22.22s3.51.22,5.31.4,3.63.34,5.53.55Z" transform="translate(-136.57 -223.11)"/><rect class="g" x="567.43" y="162.29" width="117.43" height="12.99"/><path d="M822.22,399.18l-29.31.44-29.57.27-59.34.38a1.88,1.88,0,0,1-1.89-1.86v0h0l0-13h0a1.84,1.84,0,0,1,1.84-1.83h0l58.72.21,29.36.11c9.79,0,19.57.18,29.36.27h0a1.24,1.24,0,0,1,1.23,1.25C822.65,390,822.44,394.7,822.22,399.18Zm-1.58-1.58c-.26-4.22-.52-8.2-.6-12.2l1.39,1.39c-9.79.18-19.57.47-29.36.57l-29.36.35c-9.79.15-19.57.15-29.36.19L704,388l2.62-2.62,0,13L704,395.72l28.88.19c9.64.1,19.24.12,28.95.35l29.19.58Z" transform="translate(-136.57 -223.11)"/><rect class="g" x="427.34" y="224.64" width="63.87" height="12.99"/><path d="M628.56,461.52l-15.93.42c-5.35.13-10.77.19-16.17.28-10.82.16-21.69.28-32.55.36a1.83,1.83,0,0,1-1.85-1.82h0v0c0-2.16,0-4.33,0-6.49l0-6.49v0a1.83,1.83,0,0,1,1.84-1.82l31.93.2,16,.1,8,.06,8,.14h0a1.33,1.33,0,0,1,1.31,1.35C629.05,452.39,628.81,457.07,628.56,461.52ZM627,459.94l-.5-6.24c-.14-2-.25-4-.32-6l1.61,1.61-8,.27-8,.17-16,.32c-5.32.12-10.64.09-16,.15l-16,.11,2.62-2.62,0,6.49c0,2.16,0,4.33,0,6.49l-2.63-2.63,15.5.17,7.76.12,7.82.26,15.8.57Z" transform="translate(-136.57 -223.11)"/><rect class="g" x="534.47" y="224.64" width="22.66" height="12.99"/><path d="M694.49,461.52l-5.67.36c-1.91.13-3.87.23-5.84.31l-5.95.24c-2,.09-4,.08-6,.1a1.78,1.78,0,0,1-1.81-1.76h0v0l-.06-6.49c0-2.16,0-4.33,0-6.49v0a1.84,1.84,0,0,1,1.86-1.83l11.33.08c3.78,0,7.55.15,11.33.22h.05a1.54,1.54,0,0,1,1.52,1.57c0,2.35-.15,4.71-.3,7Zm-1.58-1.58-.73-6.33-.32-3c-.08-1-.13-1.93-.18-2.9l2,2c-3.78.15-7.55.37-11.33.45l-5.67.13-5.67,0,2.65-2.65c0,2.16,0,4.33,0,6.49s0,4.33-.1,6.49L671,458.18c1.74.06,3.47.09,5.22.22s3.51.22,5.31.4,3.63.34,5.53.55Z" transform="translate(-136.57 -223.11)"/><rect class="g" x="567.43" y="224.64" width="117.43" height="12.99"/><path d="M822.22,461.52l-29.31.44-29.57.27-59.34.38a1.88,1.88,0,0,1-1.89-1.86v0h0l0-13h0A1.84,1.84,0,0,1,704,445.9h0l58.72.21,29.36.11c9.79,0,19.57.18,29.36.27h0a1.24,1.24,0,0,1,1.23,1.25C822.65,452.37,822.44,457,822.22,461.52Zm-1.58-1.58c-.26-4.22-.52-8.2-.6-12.2l1.39,1.39c-9.79.18-19.57.47-29.36.57l-29.36.35c-9.79.15-19.57.15-29.36.19l-29.36.12,2.62-2.62,0,13L704,458.06l28.88.19c9.64.1,19.24.12,28.95.35l29.19.58Z" transform="translate(-136.57 -223.11)"/><rect class="ae" x="499.44" y="286.98" width="22.66" height="12.99"/><path d="M659.46,523.86l-5.67.36c-1.91.13-3.87.23-5.84.31l-5.95.24c-2,.09-4,.08-6,.1a1.78,1.78,0,0,1-1.81-1.76h0v0l-.06-6.49c0-2.16,0-4.33,0-6.49v0a1.84,1.84,0,0,1,1.86-1.83l11.33.08c3.78,0,7.55.15,11.33.22h.05a1.54,1.54,0,0,1,1.52,1.57c0,2.35-.15,4.71-.3,7Zm-1.58-1.58-.73-6.33-.32-3c-.08-1-.13-1.93-.18-2.9l2,2c-3.78.15-7.55.37-11.33.45l-5.67.13-5.67,0,2.65-2.65c0,2.16,0,4.33,0,6.49s0,4.33-.1,6.49L636,520.53c1.74.06,3.47.09,5.22.22s3.51.22,5.31.4,3.63.34,5.53.55Z" transform="translate(-136.57 -223.11)"/><rect class="af" x="534.47" y="286.98" width="22.66" height="12.99"/><path d="M694.49,523.86l-5.67.36c-1.91.13-3.87.23-5.84.31l-5.95.24c-2,.09-4,.08-6,.1a1.78,1.78,0,0,1-1.81-1.76h0v0l-.06-6.49c0-2.16,0-4.33,0-6.49v0a1.84,1.84,0,0,1,1.86-1.83l11.33.08c3.78,0,7.55.15,11.33.22h.05a1.54,1.54,0,0,1,1.52,1.57c0,2.35-.15,4.71-.3,7Zm-1.58-1.58-.73-6.33-.32-3c-.08-1-.13-1.93-.18-2.9l2,2c-3.78.15-7.55.37-11.33.45l-5.67.13-5.67,0,2.65-2.65c0,2.16,0,4.33,0,6.49s0,4.33-.1,6.49L671,520.53c1.74.06,3.47.09,5.22.22s3.51.22,5.31.4,3.63.34,5.53.55Z" transform="translate(-136.57 -223.11)"/><rect class="g" x="462.36" y="364.91" width="96.83" height="12.99"/><path d="M696.55,601.79l-24.16.44-24.42.27-49,.38a1.86,1.86,0,0,1-1.88-1.85h0v0c0-4.33,0-8.66,0-13h0a1.84,1.84,0,0,1,1.84-1.83h0l48.41.21,24.21.1c8.07,0,16.14.17,24.21.25h0A1.27,1.27,0,0,1,697,588C697,592.65,696.78,597.33,696.55,601.79ZM695,600.22l-.43-6.21c-.14-2-.21-4-.26-6l1.48,1.48c-8.07.17-16.14.43-24.21.5l-24.21.34c-8.07.15-16.14.13-24.21.18l-24.21.11,2.62-2.62c0,4.33.07,8.66,0,13l-2.66-2.66,23.74.18c7.92.08,15.82.13,23.8.36l24,.58Z" transform="translate(-136.57 -223.11)"/><rect class="g" x="569.49" y="364.91" width="39.14" height="12.99"/><path d="M746,601.79l-9.77.39c-3.27.16-6.63.22-10,.33s-6.7.22-10.08.24l-10.12.09a1.83,1.83,0,0,1-1.84-1.81h0v0l0-6.49c0-2.16,0-4.33,0-6.49h0a1.86,1.86,0,0,1,1.86-1.85h0l19.57.1,9.79.15c3.26.06,6.52.08,9.79.16h.07a1.42,1.42,0,0,1,1.39,1.46C746.56,592.7,746.26,597.37,746,601.79Zm-1.58-1.58-.59-6.28c-.18-2-.33-4-.43-5.92l1.81,1.81c-3.26.16-6.52.21-9.79.32l-9.79.29-19.57.19,2.62-2.62c0,2.16.07,4.33,0,6.49l0,6.49-2.62-2.62c3.11,0,6.21.11,9.32.19s6.26.28,9.42.43,6.34.29,9.63.55Z" transform="translate(-136.57 -223.11)"/><rect class="af" x="614.81" y="364.91" width="39.14" height="12.99"/><path d="M791.32,601.79l-9.77.39c-3.27.16-6.63.22-10,.33s-6.7.22-10.08.24l-10.12.09a1.83,1.83,0,0,1-1.84-1.81h0v0l0-6.49c0-2.16,0-4.33,0-6.49h0a1.86,1.86,0,0,1,1.86-1.85h0l19.57.1,9.79.15c3.26.06,6.52.08,9.79.16h.07A1.42,1.42,0,0,1,792,588C791.88,592.7,791.59,597.37,791.32,601.79Zm-1.58-1.58-.59-6.28c-.18-2-.33-4-.43-5.92l1.81,1.81c-3.26.16-6.52.21-9.79.32l-9.79.29-19.57.19L754,588c0,2.16.07,4.33,0,6.49l0,6.49-2.62-2.62c3.11,0,6.21.11,9.32.19s6.26.28,9.42.43,6.34.29,9.63.55Z" transform="translate(-136.57 -223.11)"/><rect class="g" x="427.34" y="266.2" width="63.87" height="12.99"/><path d="M628.56,503.08l-15.93.42c-5.35.13-10.77.19-16.17.28-10.82.16-21.69.28-32.55.36a1.83,1.83,0,0,1-1.85-1.82h0v0c0-2.16,0-4.33,0-6.49l0-6.49v0a1.83,1.83,0,0,1,1.84-1.82l31.93.2,16,.1,8,.06,8,.14h0a1.33,1.33,0,0,1,1.31,1.35C629.05,494,628.81,498.63,628.56,503.08ZM627,501.5l-.5-6.24c-.14-2-.25-4-.32-6l1.61,1.61-8,.26-8,.17-16,.32c-5.32.12-10.64.09-16,.15l-16,.11,2.62-2.62,0,6.49c0,2.16,0,4.33,0,6.49l-2.63-2.63,15.5.17,7.76.12,7.82.26,15.8.57Z" transform="translate(-136.57 -223.11)"/><rect class="g" x="534.47" y="266.2" width="22.66" height="12.99"/><path d="M694.49,503.08l-5.67.36c-1.91.13-3.87.23-5.84.31L677,504c-2,.09-4,.08-6,.1a1.78,1.78,0,0,1-1.81-1.76h0v0l-.06-6.49c0-2.16,0-4.33,0-6.49v0a1.84,1.84,0,0,1,1.86-1.83l11.33.08c3.78,0,7.55.15,11.33.22h.05a1.54,1.54,0,0,1,1.52,1.57c0,2.35-.15,4.71-.3,7Zm-1.58-1.58-.73-6.33-.32-3c-.08-1-.13-1.93-.18-2.9l2,2c-3.78.15-7.55.37-11.33.45l-5.67.13L671,492l2.65-2.65c0,2.16,0,4.33,0,6.49s0,4.33-.1,6.49L671,499.75c1.74.06,3.47.09,5.22.22s3.51.22,5.31.4,3.63.34,5.53.55Z" transform="translate(-136.57 -223.11)"/><rect class="ac" x="567.43" y="266.2" width="117.43" height="12.99"/><path d="M822.22,503.08l-29.31.44-29.57.27-59.34.38a1.88,1.88,0,0,1-1.89-1.86v0h0l0-13h0a1.84,1.84,0,0,1,1.84-1.83h0l58.72.21,29.36.11c9.79,0,19.57.18,29.36.27h0a1.24,1.24,0,0,1,1.23,1.25C822.65,493.93,822.44,498.61,822.22,503.08Zm-1.58-1.58c-.26-4.22-.52-8.2-.6-12.2l1.39,1.39c-9.79.18-19.57.47-29.36.57l-29.36.35c-9.79.15-19.57.15-29.36.19l-29.36.12,2.62-2.62,0,13L704,499.62l28.88.19c9.64.1,19.24.12,28.95.35l29.19.58Z" transform="translate(-136.57 -223.11)"/><rect class="ac" x="427.34" y="183.07" width="63.87" height="12.99"/><path d="M628.56,420l-15.93.42c-5.35.13-10.77.19-16.17.28-10.82.16-21.69.28-32.55.36a1.83,1.83,0,0,1-1.85-1.82h0v0c0-2.16,0-4.33,0-6.49l0-6.49v0a1.83,1.83,0,0,1,1.84-1.82l31.93.2,16,.1,8,.06,8,.14h0a1.33,1.33,0,0,1,1.31,1.35C629.05,410.83,628.81,415.51,628.56,420ZM627,418.38l-.5-6.24c-.14-2-.25-4-.32-6l1.61,1.61-8,.26-8,.17-16,.32c-5.32.12-10.64.09-16,.15l-16,.11,2.62-2.62,0,6.49c0,2.16,0,4.33,0,6.49l-2.63-2.63,15.5.17,7.76.12,7.82.26,15.8.57Z" transform="translate(-136.57 -223.11)"/><rect class="ae" x="499.44" y="183.07" width="22.66" height="12.99"/><path d="M659.46,420l-5.67.36c-1.91.13-3.87.23-5.84.31l-5.95.24c-2,.09-4,.08-6,.1a1.78,1.78,0,0,1-1.81-1.76h0v0l-.06-6.49c0-2.16,0-4.33,0-6.49v0a1.84,1.84,0,0,1,1.86-1.83l11.33.08c3.78,0,7.55.15,11.33.22h.05a1.54,1.54,0,0,1,1.52,1.57c0,2.35-.15,4.71-.3,7Zm-1.58-1.58-.73-6.33-.32-3c-.08-1-.13-1.93-.18-2.9l2,2c-3.78.15-7.55.37-11.33.45l-5.67.13-5.67,0,2.65-2.65c0,2.16,0,4.33,0,6.49s0,4.33-.1,6.49L636,416.62c1.74.06,3.47.09,5.22.22s3.51.22,5.31.4,3.63.34,5.53.55Z" transform="translate(-136.57 -223.11)"/><rect class="ad" x="534.47" y="183.07" width="22.66" height="12.99"/><path d="M694.49,420l-5.67.36c-1.91.13-3.87.23-5.84.31l-5.95.24c-2,.09-4,.08-6,.1a1.78,1.78,0,0,1-1.81-1.76h0v0l-.06-6.49c0-2.16,0-4.33,0-6.49v0a1.84,1.84,0,0,1,1.86-1.83l11.33.08c3.78,0,7.55.15,11.33.22h.05a1.54,1.54,0,0,1,1.52,1.57c0,2.35-.15,4.71-.3,7Zm-1.58-1.58-.73-6.33-.32-3c-.08-1-.13-1.93-.18-2.9l2,2c-3.78.15-7.55.37-11.33.45l-5.67.13-5.67,0,2.65-2.65c0,2.16,0,4.33,0,6.49s0,4.33-.1,6.49L671,416.62c1.74.06,3.47.09,5.22.22s3.51.22,5.31.4,3.63.34,5.53.55Z" transform="translate(-136.57 -223.11)"/><rect class="ad" x="462.36" y="99.95" width="28.84" height="12.99"/><path d="M628.56,336.83l-7.21.37c-2.42.15-4.9.23-7.38.33l-7.49.25-7.54.08a1.8,1.8,0,0,1-1.82-1.78h0v0l0-6.49c0-2.16,0-4.33,0-6.49v0a1.85,1.85,0,0,1,1.87-1.84l14.42.09c2.4,0,4.81.08,7.21.12l7.21.13h.05a1.5,1.5,0,0,1,1.48,1.53c0,2.35-.17,4.7-.3,7ZM627,335.25l-.67-6.31c-.19-2-.41-4-.49-5.89l1.94,1.94-7.21.27c-2.4.08-4.81.2-7.21.24l-7.21.14-7.21.05,2.65-2.65c0,2.16,0,4.33,0,6.49l-.05,6.49-2.6-2.6,6.76.21,6.86.44c2.31.16,4.63.3,7.06.53Z" transform="translate(-136.57 -223.11)"/><rect class="ab" x="427.34" y="325.94" width="28.84" height="12.99"/><path d="M593.54,562.83l-7.21.37c-2.42.15-4.9.23-7.38.33l-7.49.25-7.54.08a1.8,1.8,0,0,1-1.82-1.78h0v0l0-6.49c0-2.16,0-4.33,0-6.49v0a1.85,1.85,0,0,1,1.87-1.84l14.42.09c2.4,0,4.81.08,7.21.12l7.21.13h.05a1.5,1.5,0,0,1,1.48,1.53c0,2.35-.17,4.7-.3,7ZM592,561.25l-.67-6.31c-.19-2-.41-4-.49-5.89l1.94,1.94-7.21.27c-2.4.08-4.81.2-7.21.24l-7.21.14-7.21.05,2.65-2.65c0,2.16,0,4.33,0,6.49L566.5,562l-2.6-2.6,6.76.21,6.86.44c2.31.16,4.63.3,7.06.53Z" transform="translate(-136.57 -223.11)"/><rect class="ab" x="427.34" y="364.91" width="28.84" height="12.99"/><path d="M593.54,601.79l-7.21.37c-2.42.15-4.9.23-7.38.33l-7.49.25-7.54.08a1.8,1.8,0,0,1-1.82-1.78h0v0l0-6.49c0-2.16,0-4.33,0-6.49v0a1.85,1.85,0,0,1,1.87-1.84l14.42.09c2.4,0,4.81.08,7.21.12l7.21.13h.05a1.5,1.5,0,0,1,1.48,1.53c0,2.35-.17,4.7-.3,7ZM592,600.22l-.67-6.31c-.19-2-.41-4-.49-5.89l1.94,1.94-7.21.27c-2.4.08-4.81.2-7.21.24l-7.21.14-7.21.05,2.65-2.65c0,2.16,0,4.33,0,6.49L566.5,601l-2.6-2.6,6.76.21,6.86.44c2.31.16,4.63.3,7.06.53Z" transform="translate(-136.57 -223.11)"/><rect class="g" x="462.36" y="325.94" width="127.73" height="12.99"/><path d="M727.45,562.83l-31.88.45-32.15.27-64.49.38a1.88,1.88,0,0,1-1.89-1.87v0l0-13h0a1.84,1.84,0,0,1,1.84-1.83l63.87.22,31.93.11c10.64,0,21.29.19,31.93.28h0a1.23,1.23,0,0,1,1.22,1.24C727.87,553.68,727.67,558.35,727.45,562.83Zm-1.58-1.58c-.25-4.22-.51-8.2-.58-12.2l1.37,1.37c-10.64.19-21.29.47-31.93.58l-31.93.35c-10.64.15-21.29.15-31.93.2l-31.93.12,2.62-2.62,0,13-2.67-2.67,31.46.18c10.5.1,21,.11,31.52.35l31.76.58Z" transform="translate(-136.57 -223.11)"/><rect class="g" x="497.38" y="99.95" width="55.63" height="12.99"/><path d="M690.36,336.83l-13.88.41-14.09.34c-4.71.11-9.45.2-14.21.23L634,337.9a1.85,1.85,0,0,1-1.86-1.84v0q0-6.49,0-13v0a1.85,1.85,0,0,1,1.87-1.85l27.81.12c9.27.13,18.54.15,27.81.37h.05a1.36,1.36,0,0,1,1.32,1.38C690.88,327.71,690.62,332.39,690.36,336.83Zm-1.58-1.58c-.16-2.15-.38-4.24-.52-6.25s-.27-4-.35-6l1.66,1.66-7,.25-7,.16-13.91.32c-4.64.1-9.27.09-13.91.14l-13.91.1,2.62-2.62,0,6.49,0,6.49L634,333.4c4.48,0,8.95.06,13.43.17l6.74.16,6.79.26c4.55.19,9.1.33,13.74.56Z" transform="translate(-136.57 -223.11)"/><rect class="g" x="443.82" y="58.38" width="197.78" height="12.99"/><path d="M779,295.27l-49.39.46L679.9,296l-49.74.23c-16.59.05-33.18.16-49.78.13h0a1.87,1.87,0,0,1-1.87-1.87h0l0-13h0a1.84,1.84,0,0,1,1.84-1.84l98.89.22,49.44.11,49.44.31h0a1.19,1.19,0,0,1,1.19,1.2C779.35,286.11,779.17,290.78,779,295.27Zm-1.58-1.58c-.23-4.19-.45-8.18-.5-12.2l1.29,1.29-49.44.63-49.44.37c-16.48.15-33,.18-49.44.22l-49.44.12,2.62-2.62,0,13-2.65-2.65c16.32,0,32.64.09,49,.15s32.63.12,49,.34l49.27.59Z" transform="translate(-136.57 -223.11)"/><path class="g" d="M477.32,432.95c5.87-10.19,52.64,22.6,57,29.94s-51.52,35.7-55.82,33.24S477.32,432.95,477.32,432.95Z" transform="translate(-136.57 -223.11)"/><path class="ag" d="M476.64,397.12c47.85-22.68,112,28.22,101.11,84.79s-91.74,72.18-127,37S433.37,417.62,476.64,397.12Z" transform="translate(-136.57 -223.11)"/><path class="g" d="M475.17,394a66.75,66.75,0,0,1,14.48-4.69,70.07,70.07,0,0,1,15.13-1,79,79,0,0,1,14.89,2.39,86.23,86.23,0,0,1,14,5.28,92,92,0,0,1,12.8,7.69c1,.69,2,1.51,3,2.26s2,1.52,2.88,2.36l2.8,2.46,2.65,2.62a85.37,85.37,0,0,1,9.54,11.43c1.49,2,2.71,4.17,4,6.27,1.14,2.21,2.41,4.36,3.37,6.66a73.17,73.17,0,0,1,6.76,28.91A70.61,70.61,0,0,1,576,495.75l-.73,1.72c-.24.57-.56,1.11-.84,1.67l-1.74,3.31c-1.36,2.08-2.54,4.3-4.08,6.26A75.14,75.14,0,0,1,558.76,520a72.26,72.26,0,0,1-25.39,15.69,98.38,98.38,0,0,1-14.46,3.87A101.82,101.82,0,0,1,504,541a95,95,0,0,1-14.86-1.12c-1.23-.15-2.44-.46-3.67-.68s-2.44-.48-3.63-.82-2.41-.62-3.6-1l-3.54-1.18a70.94,70.94,0,0,1-13.43-6.42c-1.08-.61-2.06-1.39-3.1-2.07l-1.53-1.06-1.45-1.17c-1-.8-2-1.51-2.87-2.38l-2.7-2.56a72.35,72.35,0,0,1-9.12-11.64l-1.84-3.21c-.6-1.07-1.08-2.21-1.65-3.31s-1-2.24-1.49-3.38-.95-2.27-1.31-3.45-.81-2.33-1.14-3.51l-1-3.56c-.52-2.4-1-4.81-1.37-7.25a78,78,0,0,1-.81-14.73,93.46,93.46,0,0,1,1.73-14.69,91.86,91.86,0,0,1,4.22-14.22,83.88,83.88,0,0,1,6.61-13.33c.67-1,1.27-2.14,2-3.15l2.13-3.07c1.52-2,3-4,4.7-5.83A74.94,74.94,0,0,1,475.17,394Zm2.95,6.22a69.81,69.81,0,0,0-11.64,7.12,74.6,74.6,0,0,0-10.09,9.3c-1.58,1.67-3,3.49-4.44,5.28l-2,2.8c-.69.92-1.27,1.93-1.91,2.89a88.42,88.42,0,0,0-6.52,12.23A96.56,96.56,0,0,0,436.87,453a87.35,87.35,0,0,0-2.43,13.75,73.93,73.93,0,0,0,.11,14,60.75,60.75,0,0,0,9,26.26,60.58,60.58,0,0,0,8.84,10.76,55.36,55.36,0,0,0,11.19,8.13,66.07,66.07,0,0,0,12.79,5.29l3.34.92c1.13.26,2.27.48,3.39.72s2.27.43,3.42.58,2.28.38,3.44.45a88.64,88.64,0,0,0,13.85.3,97.88,97.88,0,0,0,13.71-1.78,91,91,0,0,0,13.25-3.8c1.1-.34,2.14-.83,3.21-1.24s2.14-.84,3.16-1.35l3.13-1.42,3-1.58a72.21,72.21,0,0,0,11.55-7.46l1.36-1.06c.44-.37.86-.77,1.29-1.15.84-.78,1.74-1.52,2.55-2.34a55.9,55.9,0,0,0,4.54-5.21,57.38,57.38,0,0,0,3.9-5.71l1.6-3.06c.26-.52.56-1,.78-1.54l.67-1.59a56.63,56.63,0,0,0,3.94-13.23l.48-3.43.12-.86.05-.87.11-1.73a64.1,64.1,0,0,0,.08-6.92c0-1.15-.2-2.3-.3-3.45l-.16-1.72c-.06-.57-.19-1.14-.28-1.71l-.59-3.41-.83-3.36c-.24-1.13-.62-2.22-1-3.32s-.65-2.21-1.09-3.28l-1.27-3.22c-.41-1.08-1-2.09-1.44-3.14a80.76,80.76,0,0,0-51.45-43.09,72.41,72.41,0,0,0-13.49-2.1,63.36,63.36,0,0,0-13.52,1A60,60,0,0,0,478.12,400.23Z" transform="translate(-136.57 -223.11)"/><path d="M818.51,682l-17.54.53-17.54.67-35.08,1.59q-35.08,1.61-70.16,1.61c-46.77-.07-93.55-.34-140.32-1.21L397.55,683c-23.39-.19-46.77-.52-70.16-.51l-35.08-.09-35.08.15c-11.69,0-23.39.19-35.08.31s-23.39.25-35.08.5l-4.39.08-1.1,0-1.28,0-2.6-.09c-.87,0-1.72-.2-2.59-.3s-1.73-.19-2.58-.41a40.8,40.8,0,0,1-5-1.38c-.82-.29-1.66-.56-2.47-.88l-2.38-1.1-1.19-.56-1.13-.66-2.26-1.33a43.27,43.27,0,0,1-8-6.8,41.89,41.89,0,0,1-9.94-18.45,20,20,0,0,1-.55-2.6l-.43-2.63-.19-2.65c-.06-.88-.12-1.83-.12-2.49l-.16-8.77-1.32-70.16-.44-35.08c-.17-11.69-.2-23.39-.25-35.08q-.39-70.16.67-140.32l1.07-70.16.15-8.77.07-4.39c0-.75,0-1.41,0-2.24l.17-2.67a42.11,42.11,0,0,1,6.89-20,21.41,21.41,0,0,1,1.54-2.16c.54-.7,1.07-1.41,1.64-2.08l1.81-1.94c.31-.32.6-.65.92-1l1-.88,2-1.74,2.13-1.56,1.07-.77,1.13-.68,2.28-1.33a43.52,43.52,0,0,1,20.24-4.92l35.08.44,35.08.31q17.54.16,35.08,0l35.08-.48c11.69-.19,23.39-.38,35.08-.45l17.54,0,17.54.09,70.16.38L602.45,226c46.77.47,93.55.5,140.32.4,5.85,0,11.69-1.11,17.54-2.11a82.74,82.74,0,0,1,8.77-1c2.92-.19,5.85-.11,8.77-.11,11.69.08,23.39,0,35.08.25l4.39.06,1.1,0,1.32.07,2.67.17c.89.06,1.77.25,2.65.38s1.77.25,2.63.5a39.7,39.7,0,0,1,5.13,1.56c.83.33,1.67.63,2.49,1l2.39,1.2,1.19.61,1.13.71,2.24,1.43a43.63,43.63,0,0,1,7.82,7.14,41.72,41.72,0,0,1,9.26,18.7,19.53,19.53,0,0,1,.45,2.58l.34,2.6.09,2.61c0,.86.06,1.79,0,2.46l-.22,8.77q-1,35.08-1.3,70.16l0,17.54c0,5.85-.06,11.69,0,17.54l.19,17.54c0,5.85.25,11.69.36,17.54.53,23.39,1.59,46.77,2.48,70.16.25,5.85.4,11.69.6,17.54s.38,11.69.48,17.54l.35,17.54c.05,5.85.14,11.69.14,17.54.09,11.69,0,23.39-.83,35.08s-1.81,23.39-2.73,35.08l-.59,8.77c-.1,1.46-.2,2.92-.26,4.39,0,.75-.06,1.43-.12,2.23l-.23,2.51a41.38,41.38,0,0,1-6.68,18.6,22.38,22.38,0,0,1-1.43,2c-.5.65-1,1.33-1.51,2L847.24,669c-.28.3-.55.62-.84.91l-.91.84-1.83,1.67-2,1.51-1,.76-1,.67-2.1,1.32A41.63,41.63,0,0,1,818.51,682Zm0-10.2a25.36,25.36,0,0,0,14.05-4.25l1.46-1.11.72-.55.67-.63,1.33-1.23,1.19-1.36.59-.67c.19-.23.35-.49.53-.73l1-1.44c.32-.5.59-1,.89-1.52a15.13,15.13,0,0,0,.84-1.53l.76-1.56c.26-.51.41-1.08.62-1.61a28.21,28.21,0,0,0,1.07-3.23,12.26,12.26,0,0,0,.36-1.66c.09-.56.26-1.09.32-1.65l.17-1.68c0-.28.07-.55.09-.83V642c0-.62,0-1.43-.07-2.14l-.16-4.39-.31-8.77-.55-17.54c-.16-5.85-.28-11.69-.33-17.54-.11-11.69-.09-23.39.14-35.08.51-46.77,3.09-93.55,4-140.32.29-11.69.37-23.39.47-35.08s0-23.39,0-35.08q-.34-35.08-1.3-70.16l-.22-8.77c0-.79-.07-1.32-.12-1.92l-.14-1.77-.33-1.74a10.41,10.41,0,0,0-.39-1.72,27.54,27.54,0,0,0-6.74-12.08,28.85,28.85,0,0,0-5.32-4.41l-1.5-.84-.74-.43-.79-.34-1.56-.7c-.53-.2-1.08-.36-1.62-.54a28.69,28.69,0,0,0-3.29-.89,15.51,15.51,0,0,0-1.68-.26c-.56-.06-1.12-.2-1.69-.2l-1.71-.05-.87,0-1.1,0-4.39.06c-11.69.22-23.39.18-35.08.25-2.92,0-5.85.08-8.77-.11a82.74,82.74,0,0,1-8.77-1c-5.85-1-11.69-2.09-17.54-2.11-46.77-.1-93.55-.06-140.32.4l-140.32,1.22-70.16.38-17.54.09-17.54,0c-11.69-.07-23.39-.27-35.08-.45l-35.08-.48q-17.54-.13-35.08,0l-35.08.31-35.08.44a28.78,28.78,0,0,0-13.4,3.68l-1.47.94-.74.47-.68.54-1.38,1.07-1.26,1.2-.64.59c-.2.21-.38.44-.57.65l-1.14,1.31c-.36.45-.67.94-1,1.41a11,11,0,0,0-1,1.44,26.94,26.94,0,0,0-4,13l-.06,1.71c0,.63,0,1.43,0,2.14l.07,4.39.15,8.77,1.07,70.16q1.08,70.16.67,140.32c-.05,11.69-.08,23.39-.25,35.08l-.44,35.08-1.32,70.16-.16,8.77c0,.8,0,1.3,0,1.89l0,1.73.23,1.71a10.06,10.06,0,0,0,.29,1.7,27.35,27.35,0,0,0,6.06,12.34,29.23,29.23,0,0,0,5.15,4.75l1.49.94.74.48.79.4,1.57.81c.54.23,1.09.43,1.64.65a27.32,27.32,0,0,0,3.37,1.07,16.41,16.41,0,0,0,1.74.34c.59.08,1.16.25,1.76.28l1.78.13.91.07,1.1,0,4.39.08c11.69.25,23.39.38,35.08.5s23.39.3,35.08.31l35.08.15,35.08-.09c23.39,0,46.77-.33,70.16-.51l140.32-2.21c46.77-.88,93.55-1.14,140.32-1.21,23.39-.09,46.77.75,70.16,2l17.54.88,17.54.75c5.85.17,11.69.4,17.54.53Z" transform="translate(-136.57 -223.11)"/><path class="ah" d="M250.06,486.93H476.8a17.68,17.68,0,0,1,17.68,17.68v20.71a5.32,5.32,0,0,1-5.32,5.32H239a6.61,6.61,0,0,1-6.61-6.61V504.6a17.68,17.68,0,0,1,17.68-17.68Z"/><path class="ai" d="M615.69,710H384.31c-7,0-13,6.29-15,15a11.92,11.92,0,0,1,5-1.1H613.55c4.37,0,7.91,4.88,7.91,10.91v18.9h5.31c2.63,0,4.76-2.94,4.76-6.57V731.89C631.53,719.82,624.44,710,615.69,710Z" transform="translate(-136.57 -223.11)"/><path d="M626.22,756.75c-12.36.42-24.72.89-37.08,1.21s-24.72.65-37.08.77l-18.54.12L515,758.79l-37.08-.38c-24.72-.19-49.44-1.4-74.15-1.32-6.18,0-12.36,0-18.54.13-3.09,0-6.18.12-9.27.19h-1.32a10.21,10.21,0,0,1-5.15-1.55,10.52,10.52,0,0,1-4.42-5.64,11.51,11.51,0,0,1-.41-1.8,8.66,8.66,0,0,1-.09-.92l0-.43v-.29l-.07-2.32-.13-4.63-.27-9.27-.06-2.32v-.59l0-.72,0-1.45a22.48,22.48,0,0,1,18.49-20.26c.49-.08,1-.19,1.48-.23l1.49-.11.72,0,.58,0,1.16,0,4.63-.12c3.09-.06,6.18-.15,9.27-.15h4.63a40.35,40.35,0,0,1,4.63.18c6.18,1.08,12.36.7,18.54.48s12.36-.61,18.54-.75c24.72.08,49.44,1.1,74.15,1.65,12.36.32,24.72.58,37.08.67s24.72.14,37.08-.18l9.27-.19,4.63-.1,2.32-.05,1.17,0,1.41,0a21.35,21.35,0,0,1,18.18,11.89,21,21,0,0,1,1.87,5.42,21.74,21.74,0,0,1,.35,2.85l.06,1.41V729c0,3.09,0,6.18,0,9.27s-.17,6.18-.35,9.27l0,.58-.06.75a8.84,8.84,0,0,1-2.34,5.28,8.31,8.31,0,0,1-6.76,2.62Zm0-6a2.32,2.32,0,0,0,1.37-1.18,1.92,1.92,0,0,0,.17-.74,1.18,1.18,0,0,0,0-.35.79.79,0,0,1,0-.12l0-.29,0-.58c-.18-3.09-.31-6.18-.35-9.27s0-6.18,0-9.27v-1.16l0-.9a13.24,13.24,0,0,0-.2-1.75,13.9,13.9,0,0,0-5.58-8.73,13.72,13.72,0,0,0-6.66-2.47l-.91-.07-1.15,0-2.32-.05-4.63-.1-9.27-.19c-12.36-.32-24.72-.31-37.08-.18s-24.72.35-37.08.67c-24.72.56-49.44,1.58-74.15,1.65-6.18-.14-12.36-.47-18.54-.75s-12.36-.6-18.54.48a40.35,40.35,0,0,1-4.63.18h-4.63c-3.09,0-6.18-.1-9.27-.15l-4.63-.12-1.16,0-.58,0H385c-.28,0-.54.06-.82.08a12.62,12.62,0,0,0-6.09,2.47,13,13,0,0,0-4.09,5.31,13.49,13.49,0,0,0-.91,3.29l-.07.86,0,.43,0,.57-.06,2.32-.27,9.27-.13,4.63-.07,2.32v.44a1.5,1.5,0,0,0,0,.24,3.31,3.31,0,0,0,.07.47,2.86,2.86,0,0,0,1.08,1.58,2.63,2.63,0,0,0,.89.43,2.77,2.77,0,0,0,.5.09l.13,0h.87c3.09.06,6.18.16,9.27.19,6.18.09,12.36.13,18.54.13,24.72.08,49.44-1.12,74.15-1.32l37.08-.38,18.54-.05,18.54.12q18.54.18,37.08.77c12.36.32,24.72.79,37.08,1.21Z" transform="translate(-136.57 -223.11)"/><g class="aj"><ellipse class="ak" cx="168.08" cy="130.23" rx="21.98" ry="22.29"/><ellipse class="al" cx="168.08" cy="124.23" rx="21.98" ry="22.29"/></g><path d="M327.6,353.34A23.59,23.59,0,0,1,321,369.8a23,23,0,0,1-33.1.35,24,24,0,0,1-5.12-7.72,23.62,23.62,0,0,1-1.75-9.1A23.88,23.88,0,0,1,288,336.58a23,23,0,0,1,25.58-4.89,23.52,23.52,0,0,1,14,21.64Zm-2,0a21.69,21.69,0,0,0-1.63-8.09,20.67,20.67,0,0,0-4.59-6.81,20.23,20.23,0,0,0-14.78-5.81,20,20,0,0,0-14.14,6.44,21.21,21.21,0,0,0-4.13,6.63,21.48,21.48,0,0,0-1.4,7.65,20.89,20.89,0,0,0,5.68,14.13,20.1,20.1,0,0,0,28.71.73,21,21,0,0,0,4.63-6.77A21.68,21.68,0,0,0,325.64,353.34Z" transform="translate(-136.57 -223.11)"/></g></svg>