<svg xmlns="http://www.w3.org/2000/svg" viewBox="0 0 305.45 308.14"><defs><style>.a{fill:#194a85;}.b{fill:#fff;}</style></defs><title>unity-mascot</title><polygon class="a" points="238.32 34.63 129.16 68.92 45.46 145.5 132.02 236.21 239.34 274.82 278.81 155.06 238.32 34.63"/><path class="b" d="M478.72,161.91,443.61,37,325.2,68.66,307.67,99.47l-35.57-.26-86.67,86.4,83.34,88.45,4.1,3.42,30.09-2.1,23.25,37,117.39,21.81,31.72-118-18-27.28ZM401.1,81.24,349.1,171h-104l58.77-66.11Zm-52,118.91,52,89.8L308.43,271.3,245.1,200.15Zm25.35-14.54,52-89.79,30.87,93.08-30.87,86.49Z" transform="translate(-178.51 -30.55)"/><path d="M430.22,97.94c.49,1,.84,1.92,1.2,2.84l1,2.71,2,5.4,3.77,10.81,7.34,21.66q7.27,21.68,14.39,43.41l-4.31-1.25h0c2.14-2,4.28-4,6.36-6.08s4.15-4.14,6.1-6.27a63.25,63.25,0,0,0,5.34-6.51,18.54,18.54,0,0,0,1-1.59,5.28,5.28,0,0,0,.53-1.24l0-.06a1.39,1.39,0,0,0-.05.2c0,.06,0,0,0,.07s0,0,0-.1,0-.48-.07-.78c-.06-.61-.17-1.29-.28-2-1-5.57-2.36-11.38-3.75-17.09s-2.91-11.46-4.45-17.18c-3.06-11.44-6.17-22.87-9.51-34.23q-2.5-8.52-5.15-17-1.33-4.22-2.71-8.41a54.42,54.42,0,0,1-2-8.61,32.4,32.4,0,0,0-2.42-8.38,16.52,16.52,0,0,0-2.67-3.43,13.8,13.8,0,0,1-2.12-2.78c-.07-.13-.14-.22,0-.12l.14.14a3.18,3.18,0,0,0,.34.28,5,5,0,0,0,.76.47l.29.13.35.14a5,5,0,0,0,1,.24l.26,0H443l-.32,0-.42,0c-1.18.13-2.6.36-4,.58l-8.6,1.49-17.48,3.21c-2.92.54-5.83,1.15-8.75,1.74l-4.37.89c-1.46.29-2.92.59-4.34,1q-34.36,9.43-68.63,19.34h0l1.89-1.5L310.36,101l-.27.39c.08-.1,0,0,0,0l0,.08s0,.06,0,0a1.47,1.47,0,0,0,0-.52,1.79,1.79,0,0,0-.38-.74c-.34-.33-.35-.23-.15-.19a4.87,4.87,0,0,0,.87.14,25.42,25.42,0,0,0,5.31-.43c1.88-.31,3.8-.73,5.71-1.2l5.91-1.44c7.91-1.87,15.82-3.6,23.74-5.31q23.75-5.1,47.55-9.87h0a2.69,2.69,0,0,1,3,3.87l-.09.18q-2.91,5.53-5.92,11l-6,11-12.2,21.79c-4.1,7.24-8.29,14.43-12.44,21.65l-6.23,10.82c-2.14,3.57-3.8,7.42-7.59,10a2.62,2.62,0,0,1-4.09-2.37c.38-4.59,2.89-7.95,4.92-11.58l6.28-10.79c4.2-7.19,8.35-14.4,12.59-21.56l12.83-21.43,6.52-10.65q3.25-5.33,6.59-10.61l2.91,4h0Q376.07,92.7,352.51,98.4c-7.84,1.92-15.68,3.86-23.44,5.92l-5.83,1.59c-2,.55-4.09,1.06-6.24,1.48-1.09.2-2.18.39-3.35.52a23.18,23.18,0,0,1-3.81.16,12.33,12.33,0,0,1-2.49-.38,6.31,6.31,0,0,1-.77-.24,6.83,6.83,0,0,1-.87-.38,6.65,6.65,0,0,1-1-.6l-.51-.4a7,7,0,0,1-.53-.53,6.35,6.35,0,0,1-1.51-2.93,6.73,6.73,0,0,1-.16-1.54,7.46,7.46,0,0,1,.14-1.27,8.06,8.06,0,0,1,.64-1.9c.13-.26.26-.51.4-.75l.23-.36c.1-.14.13-.2.33-.47l-.43.64,16.8-31.23a5.51,5.51,0,0,1,3.2-2.65l.25-.08h0q34.64-8.88,69.36-17.28c1.44-.39,2.84-.89,4.25-1.38l4.23-1.45,8.48-2.9c5.65-2,11.31-3.91,17.08-5.67,1.44-.44,2.88-.89,4.34-1.32s2.94-.8,4.45-1.18,3-.73,4.78-1l.68-.11.79-.09.2,0,.26,0,.53,0h.27l.47,0,.47,0,.23,0,.3,0a8.17,8.17,0,0,1,1.22.32c.22.08.34.13.48.19l.41.19a7.86,7.86,0,0,1,1.23.77c.32.24.51.42.76.65s.36.35.53.54a15,15,0,0,1,1.3,1.66,11.4,11.4,0,0,1,2,5.14,40.56,40.56,0,0,0,.72,4.81,52,52,0,0,0,3.59,8.42,45.33,45.33,0,0,1,3.52,8.37q1.27,4.33,2.48,8.66,2.41,8.66,4.63,17.35c3,11.58,5.8,23.18,8.36,34.86q1.89,8.76,3.61,17.58c1.12,5.91,2.24,11.74,3,17.94.09.79.17,1.58.21,2.46,0,.44,0,.89,0,1.44a9.24,9.24,0,0,1-.08,1l-.06.35c0,.16-.07.32-.11.47s-.11.31-.16.47a13.14,13.14,0,0,1-1.42,2.76c-.5.76-1,1.45-1.53,2.09a70,70,0,0,1-6.48,6.84A178.84,178.84,0,0,1,459,187.69h0a2.71,2.71,0,0,1-3.81-.36,2.75,2.75,0,0,1-.49-.9q-7-21.76-14-43.48l-7.16-21.68-3.67-10.8L428,105.12l-1-2.64c-.33-.86-.68-1.74-1-2.44l-.05-.12a2.36,2.36,0,0,1,4.28-2Z" transform="translate(-178.51 -30.55)"/><path d="M423.84,103.1c-3.07,7.48-6.47,14.77-9.95,22s-7.1,14.4-10.83,21.5-7.53,14.16-11.44,21.15q-2.92,5.25-5.91,10.46c-2,3.48-4,6.94-6,10.4v-6.06q3.24,5.61,6.41,11.27c2.13,3.76,4.23,7.54,6.31,11.33q6.28,11.35,12.32,22.84t11.82,23.13c3.82,7.78,7.62,15.57,11.12,23.53a1.4,1.4,0,0,1-2.41,1.4c-5.16-7-10-14.17-14.88-21.36s-9.54-14.45-14.18-21.76-9.2-14.65-13.68-22c-2.25-3.69-4.49-7.39-6.69-11.11s-4.42-7.43-6.59-11.17a6,6,0,0,1,0-6l0,0c2-3.48,4-7,6-10.4s4.06-6.9,6.13-10.34q6.18-10.31,12.65-20.45t13.26-20.1c4.55-6.62,9.19-13.2,14.14-19.59a1.41,1.41,0,0,1,2.41,1.4Z" transform="translate(-178.51 -30.55)"/><path d="M427.77,265.47l24.29-81.71a5.38,5.38,0,0,1,8.63-2.58l.38.32h0c3.38,3.23,6.44,6.44,9.47,9.88a99.2,99.2,0,0,1,8.55,11,38.43,38.43,0,0,1,3.57,6.76,19.06,19.06,0,0,1,1.17,4.41c0,.44.08.87.11,1.33a13.38,13.38,0,0,1,0,1.36c-.06.75-.15,1.37-.24,2-.38,2.42-.85,4.6-1.34,6.81s-1,4.36-1.54,6.52c-2.14,8.62-4.47,17.12-6.86,25.6s-4.79,17-7.3,25.4-5.08,16.87-7.79,25.28c-1.36,4.2-2.74,8.4-4.21,12.6-.73,2.1-1.48,4.2-2.28,6.3s-1.62,4.2-2.65,6.42c-.26.56-.54,1.12-.89,1.76-.19.33-.37.64-.65,1l-.23.32c-.1.12-.15.21-.29.37a6.23,6.23,0,0,1-.42.46,5.38,5.38,0,0,1-.76.64,4.49,4.49,0,0,1-.67.4,5.09,5.09,0,0,1-1.12.39,5.22,5.22,0,0,1-1.68.06l-.13,0-.47-.07-.84-.14-1.64-.28L433.39,337l-13-2.33-25.95-4.75q-13-2.43-25.92-5c-8.63-1.73-17.27-3.45-25.91-5.38-4.32-1-8.64-2-13-3.15q-1.64-.44-3.32-1a37.7,37.7,0,0,1-3.58-1.28l-.51-.22-.61-.32-.32-.18-.44-.29-.43-.31a6.52,6.52,0,0,1-.78-.77,5.28,5.28,0,0,1-.63-.87l-.24-.39-.45-.75c-.59-1-1.15-2-1.71-2.94-2.22-3.9-4.32-7.83-6.33-11.85s-3.9-8.1-5.58-12.49a41,41,0,0,1-2.19-7.31,12.85,12.85,0,0,1-.2-2.6v-.37c0-.13,0-.31.05-.47,0-.32.1-.64.16-1a3.85,3.85,0,0,1,.17-.57c.07-.21.15-.42.24-.62s.18-.41.28-.61a4.46,4.46,0,0,1,.38-.58,6.62,6.62,0,0,1,1.18-1.23,5,5,0,0,1,.42-.29,8.39,8.39,0,0,1,.83-.46,4.93,4.93,0,0,1,.63-.26l.53-.18A7.93,7.93,0,0,1,308,266c.25-.05.54-.11.72-.13a21.47,21.47,0,0,1,2.25-.2,69.62,69.62,0,0,1,7.28.1c2.31.11,4.57.27,6.82.46a164.28,164.28,0,0,1,26.36,4.21q12.88,3.18,25.41,7.59a179.83,179.83,0,0,1,24.59,10.53,1.44,1.44,0,0,1-.68,2.7h0a220.18,220.18,0,0,1-26.57-2.09c-8.73-1.13-17.37-2.59-25.93-4.24s-17-3.9-25.3-6.11c-2.08-.54-4.15-1.06-6.2-1.52s-4.12-.83-5.84-1c-.43,0-.81-.05-1-.06h-.09s-.1,0,.05,0l.14-.06a1.48,1.48,0,0,1,.25-.12,2.68,2.68,0,0,0,.46-.27l.24-.19a3.81,3.81,0,0,0,.9-.93c.11-.14.27-.45.25-.42a1.57,1.57,0,0,0,.2-.47c0-.08,0-.19,0-.18a.36.36,0,0,0,0-.15.22.22,0,0,0,0-.06v0a2.17,2.17,0,0,0,0,.68,23.52,23.52,0,0,0,1.35,5.35,116.09,116.09,0,0,0,5.06,11.6c1.89,3.85,3.9,7.68,6,11.43.89,1.61,2.76,4.74,1.73,3.11.69.3,1.66.64,2.62.95s2,.61,3,.89c4.1,1.14,8.33,2.16,12.57,3.14,17,3.9,34.24,7.23,51.46,10.5L422,325.85q6.47,1.18,13,2.28l6.47,1.1,1.61.27.78.13.34.05h.07a4.13,4.13,0,0,0-1.48.05,3.84,3.84,0,0,0-.93.32,4.24,4.24,0,0,0-.5.29,3.42,3.42,0,0,0-.45.37l-.15.16,0,0v0s.13-.21.21-.36c.18-.33.39-.75.59-1.18.81-1.77,1.59-3.78,2.33-5.77s1.46-4,2.16-6.1c1.4-4.1,2.74-8.25,4.06-12.42Q454,292.59,457.6,280t7.07-25.29c2.23-8.46,4.4-16.94,6.35-25.4.49-2.11,1-4.23,1.39-6.33s.84-4.21,1.11-6.13c.06-.47.12-.93.14-1.28,0-.15,0-.32,0-.29a2.23,2.23,0,0,1,0-.31A9.22,9.22,0,0,0,473,213a28.62,28.62,0,0,0-2.69-4.81,80.35,80.35,0,0,0-7.79-9.59c-2.85-3.07-5.94-6.14-9-8.9h0l9-2.26L430.41,266.4a1.4,1.4,0,0,1-2.63-.93Z" transform="translate(-178.51 -30.55)"/><path d="M395.15,284.38C385.05,271.21,376,257.49,367.3,243.7c-4.47-6.83-8.67-13.8-13-20.59-2.12-3.41-4.28-6.79-6.43-10-1.06-1.59-2.15-3.18-3.13-4.44-.24-.31-.47-.59-.65-.8s-.34-.35-.16-.17l.13.11.22.17.37.26c.19.12.3.18.67.38l.49.22a8.28,8.28,0,0,0,.81.29,8.85,8.85,0,0,0,2.5.36h-1.78c-16.29.28-32.71.28-49.09-.41a474.93,474.93,0,0,1-49.22-4l2.11-4.93h0c14.06,15.34,28,30.74,41.6,46.52,3.4,4,6.77,7.93,10.07,12,1.65,2,3.28,4.11,4.87,6.29a36.42,36.42,0,0,1,2.35,3.6,9.45,9.45,0,0,1,.62,1.36,5.56,5.56,0,0,1,.17.58c0,.13.05.25.07.39a5.08,5.08,0,0,1,0,.58,4,4,0,0,1-.13.93,4.63,4.63,0,0,1-.5,1.06,4.4,4.4,0,0,1-.55.66,6.6,6.6,0,0,1-1.56,1.1c-.42.21-.81.39-1.18.54a33,33,0,0,1-4.14,1.29c-1.33.33-2.66.62-4,.87-2.64.51-5.27.91-7.91,1.24s-5.29.58-8,.73a63,63,0,0,1-8.23,0,17.68,17.68,0,0,1-4.73-.91,7,7,0,0,1-1.64-.88c-.16-.12-.34-.27-.5-.42l-.22-.22-.35-.34-1.38-1.37-5.52-5.5-11-11q-11-11-21.92-22.17c-3.63-3.72-7.3-7.4-10.86-11.19a72.59,72.59,0,0,0-5.7-5.35c-1.95-1.74-3.93-3.44-5.91-5.16-4-3.41-8-6.82-11.82-10.4l-2.87-2.72-2.79-2.83c-.94-.95-1.85-1.92-2.74-2.94s-1.8-2.05-2.72-3.18c-.46-.57-.91-1.17-1.4-1.87-.25-.37-.5-.72-.8-1.24-.16-.27-.3-.52-.51-.94a8.52,8.52,0,0,1-.72-2.14,7.88,7.88,0,0,1-.14-1.42,7,7,0,0,1,.65-3,7.08,7.08,0,0,1,1.43-2.05l0,0,.29-.3.65-.69,1.32-1.41,2.66-2.84,2.71-2.8c3.59-3.76,7.3-7.41,11-11.06,7.36-7.35,15-14.46,22.42-21.74L232.89,129,244.05,118c3.75-3.63,7.52-7.24,11.37-10.81,1.93-1.78,3.88-3.55,5.89-5.29,1-.87,2-1.74,3.09-2.6s2.14-1.71,3.46-2.58c.35-.22.68-.44,1.13-.68a7.62,7.62,0,0,1,2-.78,5.32,5.32,0,0,1,1.16-.13h1.56l3.84-.1c2.6-.08,5.24-.15,7.89-.16s5.34,0,8.07.23A37.47,37.47,0,0,1,302,96.56a13.58,13.58,0,0,1,2.44,1,7.89,7.89,0,0,1,2.68,2.33,5.12,5.12,0,0,1,.3.47l.14.25a3.34,3.34,0,0,1,.17.35,4.57,4.57,0,0,1,.36,2.06,6.78,6.78,0,0,1-.43,2,15.11,15.11,0,0,1-1.11,2.29,62,62,0,0,1-4.79,6.76c-3.31,4.17-6.76,8.11-10.24,12-14,15.47-28.43,30.45-43.09,45.24h0l-1.84-4.49,94.56-.82a5,5,0,0,1,.09,9.92H341l-94.48-3.83h-.13a2.61,2.61,0,0,1-1.71-4.48h0q10.93-11,21.66-22.31c7.16-7.5,14.18-15.12,21-22.91,3.39-3.89,6.74-7.83,9.86-11.87a57.8,57.8,0,0,0,4.24-6.12,9.92,9.92,0,0,0,.67-1.39c.07-.18.09-.35.08-.25a1.26,1.26,0,0,0,.12.57c.06.11,0,0,0,0h0s0,0,0,0a4.54,4.54,0,0,0-2.06-1.08,31.81,31.81,0,0,0-7.11-1.05c-2.5-.14-5.05-.16-7.61-.11s-5.13.15-7.72.26l-3.92.16-1,0h-.78a1.18,1.18,0,0,0,.3,0c.14,0-.1,0-.27.14s-.43.26-.66.41a63.65,63.65,0,0,0-5.78,4.71c-1.91,1.7-3.8,3.46-5.67,5.23-3.74,3.55-7.44,7.18-11.1,10.84S241.58,130.23,238,134l-10.72,11.28c-7.11,7.55-14.21,15.12-21.22,22.77l-10.52,11.48-5.25,5.75L189,186.68l-.67.73-.35.38-.11.11c-.24.22.17-.06.58-.84a2.86,2.86,0,0,0,.28-1.26,2.26,2.26,0,0,0,0-.51c-.07-.37-.12-.38-.09-.36l.1.18c.1.17.26.39.41.61.32.45.69.92,1.07,1.4,3.09,3.87,6.62,7.72,10.09,11.51s7.05,7.56,10.63,11.31l21.59,22.39q10.83,11.17,21.76,22.26l10.94,11.08,5.48,5.52,1.37,1.38.34.34.09.09,0,0a.71.71,0,0,0-.12-.1c-.12-.08,0,0,.08,0a12.22,12.22,0,0,0,2.9.51,57,57,0,0,0,7.34,0c2.51-.13,5-.36,7.54-.66s5-.67,7.48-1.13c1.23-.23,2.45-.49,3.64-.78a27.28,27.28,0,0,0,3.3-1c.24-.09.43-.19.6-.26s.25-.17,0,0a2.21,2.21,0,0,0-.23.29,3.09,3.09,0,0,0-.39.84,2.46,2.46,0,0,0-.1.69,1.74,1.74,0,0,0,0,.34,1.12,1.12,0,0,0,0,.15.68.68,0,0,0,0,.11s-.09-.21-.2-.41a31.26,31.26,0,0,0-1.9-2.92c-1.45-2-3-4-4.63-6.05-3.21-4-6.53-8-9.88-11.92-13.44-15.75-27.29-31.23-41.21-46.59h0v0a2.93,2.93,0,0,1,2.12-4.91l98.26-1.72h2a3.46,3.46,0,0,1,1.55.39,5.64,5.64,0,0,1,1.19.83,19.8,19.8,0,0,1,2.36,2.69c1.31,1.74,2.46,3.47,3.59,5.23,2.25,3.5,4.36,7,6.44,10.59,4.15,7.11,8.13,14.28,12.07,21.48q11.79,21.6,23,43.46a2.35,2.35,0,0,1-3.95,2.5Z" transform="translate(-178.51 -30.55)"/></svg>